<svg width="48" height="48" viewBox="0 0 48 48" xmlns="http://www.w3.org/2000/svg"><title>Page 1</title><g fill="#151515" fill-rule="evenodd"><path d="M13.654 21.158c-.42.09-.684.263-.79.52-.107.258-.087.737.062 1.437.146.685.32 1.132.522 1.339.201.207.49.27.866.19.25-.052.46-.137.627-.254.168-.117.394-.32.679-.612l-.57-2.685c-.622-.022-1.087 0-1.396.065"/><path d="M34.785 21.345l-.777-3.658c-.067-.279-.162-.466-.282-.564-.12-.097-.307-.12-.557-.067a1.423 1.423 0 0 0-.574.261c-.17.128-.418.362-.746.701l.803 3.78-1.293.275-.777-3.658c-.054-.289-.147-.479-.278-.57-.13-.092-.318-.112-.56-.06-.207.044-.397.13-.57.259-.172.129-.42.36-.742.69l.805 3.79-1.337.284-1.151-5.415 1.094-.233.246.78c.587-.787 1.228-1.255 1.92-1.402.73-.155 1.254.05 1.575.613.549-.748 1.17-1.196 1.863-1.344.478-.101.87-.05 1.176.155.305.205.51.55.613 1.036l.865 4.067-1.316.28zm-.794 9.93l-.268-.717c-.503.715-1.14 1.155-1.914 1.32-.663.14-1.197.002-1.602-.417-.404-.418-.708-1.103-.91-2.053-.22-1.039-.208-1.806.037-2.3.245-.495.725-.82 1.44-.97.692-.148 1.326-.117 1.902.092a9.277 9.277 0 0 1-.286-1.072l-.33-1.558 1.348-.287 1.644 7.736-1.06.226zm-6.698 1.424l-.777-3.658c-.064-.303-.148-.499-.252-.588-.103-.09-.266-.111-.487-.064a2.13 2.13 0 0 0-.735.318c-.24.159-.541.4-.903.723l.8 3.769-1.348.286-1.15-5.415 1.127-.24.257.777c.706-.811 1.419-1.294 2.141-1.448.48-.102.875-.051 1.187.152.313.203.521.547.625 1.034l.864 4.067-1.349.287zm-5.67.68c-.31.516-.952.877-1.924 1.084-.98.208-1.719.14-2.215-.205-.497-.345-.856-1.037-1.077-2.075-.22-1.04-.175-1.82.138-2.34.313-.52.96-.886 1.94-1.094.972-.207 1.705-.135 2.199.214.494.35.852 1.043 1.072 2.083.22 1.039.176 1.816-.133 2.332zm-5.65-8.81c-.502.716-1.14 1.156-1.914 1.32-.664.14-1.197.002-1.602-.416-.405-.419-.708-1.103-.91-2.054-.221-1.039-.209-1.805.037-2.3.245-.495.724-.818 1.44-.97.692-.148 1.326-.117 1.902.092a9.154 9.154 0 0 1-.285-1.071l-.332-1.559 1.348-.286 1.645 7.736-1.061.225-.268-.716zm1.578-7.681l.619-.132c.258-.055.414.047.469.305l.13.608c.054.258-.048.414-.305.469l-.62.131c-.257.055-.414-.046-.468-.305l-.13-.607c-.054-.258.047-.415.305-.47zm2.635 7.56l-1.337.284-1.151-5.415 1.337-.284 1.151 5.415zm3.038-6.467c.7-.15 1.243-.119 1.63.092.388.21.656.665.805 1.365l.782 3.68-1.061.226-.32-.798c-.433.754-1.054 1.217-1.864 1.39-.508.107-.95.057-1.326-.152-.376-.21-.616-.56-.721-1.054l-.117-.553c-.093-.434-.024-.799.206-1.094.23-.295.6-.498 1.107-.606l2.034-.432-.07-.331c-.074-.308-.188-.5-.342-.575-.155-.074-.427-.07-.818.013a31.26 31.26 0 0 0-2.242.591l-.334-.921c.912-.38 1.796-.66 2.65-.841zm17.904 11.682L47.9 26.6l-5.987-4.405 4.94-5.554-7.261-1.589 2.254-7.083-7.28 1.502-.821-7.388-6.04 4.333L23.95 0l-3.755 6.415-6.04-4.333-.821 7.388-7.28-1.502 2.254 7.083-7.261 1.59 4.94 5.553L0 26.599l6.773 3.064-3.678 6.46 7.433.044-.733 7.398 6.809-2.983 2.34 7.055 5.006-5.494 5.007 5.494 2.34-7.055 6.808 2.983-.732-7.398 7.433-.044-3.678-6.46z"/><path d="M22.437 21.59c-.063.121-.074.277-.033.469l.045.21c.094.442.376.613.848.513.538-.114 1.023-.441 1.455-.98l-.178-.84-1.724.367c-.213.053-.35.14-.413.261m-2.647 8.389c-.232-.209-.592-.261-1.078-.158-.5.107-.814.302-.938.587-.124.284-.112.776.037 1.476.147.693.335 1.144.564 1.353.23.21.595.26 1.096.154.486-.103.793-.298.921-.583s.119-.774-.029-1.466c-.148-.7-.339-1.154-.572-1.363m11.613-2.832c-.42.089-.683.262-.79.52-.108.258-.087.736.062 1.436.146.686.32 1.132.522 1.339.201.208.49.271.866.191.25-.053.46-.138.628-.254.167-.117.393-.321.678-.612l-.57-2.686c-.622-.022-1.087 0-1.396.066"/></g></svg>