<svg width="48" height="48" viewBox="0 0 48 48" xmlns="http://www.w3.org/2000/svg" xmlns:xlink="http://www.w3.org/1999/xlink"><title>Page 1</title><defs><path id="a" d="M0 .36h47.9v47.219H0z"/></defs><g fill="none" fill-rule="evenodd"><path d="M18.505 28.83c-.12-.038-.376-.038-.767 0l-1.548.136c-.22.307-.304.581-.252.823.066.307.196.483.39.528.193.044.58.006 1.163-.117.583-.123.955-.246 1.116-.37.162-.123.21-.33.148-.623-.045-.214-.129-.34-.25-.377m-1.92-2.595c.446-.094.74-.216.886-.366.144-.15.184-.37.122-.663-.062-.292-.19-.475-.383-.55-.192-.075-.512-.066-.958.028-.446.094-.743.215-.891.362-.149.147-.192.366-.13.658.063.292.193.477.39.555.196.078.518.07.964-.024m7-2.598c-.227-.202-.578-.253-1.053-.153-.488.103-.794.293-.915.568-.121.275-.11.75.036 1.427.143.67.327 1.106.55 1.309.224.203.581.252 1.07.15.475-.101.774-.289.9-.564.124-.277.114-.75-.03-1.42-.144-.676-.33-1.115-.558-1.317m8.355-2.113c-.409.086-.666.254-.77.504-.105.249-.085.712.06 1.389.143.663.313 1.095.51 1.295.197.2.479.262.845.185.245-.052.449-.134.612-.247.164-.112.384-.31.663-.592l-.557-2.597c-.606-.021-1.06 0-1.362.063" fill="#151515"/><g transform="translate(0 .062)"><mask id="b" fill="#fff"><use xlink:href="#a"/></mask><path d="M34.466 25.455l-.262-.693c-.49.692-1.113 1.117-1.868 1.276-.647.137-1.168.002-1.563-.402-.395-.405-.69-1.067-.888-1.986-.215-1.005-.203-1.747.036-2.226.239-.478.708-.791 1.405-.938.675-.143 1.294-.113 1.856.09a8.764 8.764 0 0 1-.278-1.037l-.323-1.507 1.315-.278 1.605 7.483-1.035.218zm-5.712 1.327c-.439.092-.813.041-1.121-.155-.309-.196-.512-.521-.61-.978L25.7 19.482l1.316-.278 1.254 5.848c.037.208.118.35.244.428.126.079.296.094.512.049l.453-.095.357.93c-.218.172-.58.312-1.082.418zm-3.381.081c-.303.5-.929.849-1.878 1.049-.956.202-1.676.135-2.161-.198-.485-.334-.835-1.003-1.051-2.008-.215-1.005-.17-1.76.135-2.263.305-.504.936-.856 1.892-1.058.949-.2 1.664-.13 2.147.207.481.338.83 1.01 1.046 2.015.215 1.004.172 1.757-.13 2.256zm-5.639 3.512c-.333.32-1.003.585-2.009.798-1.021.215-1.747.246-2.177.095-.432-.151-.712-.53-.842-1.135-.058-.272-.04-.506.052-.704.093-.198.27-.407.53-.626-.283-.171-.443-.433-.477-.787-.036-.354.056-.64.272-.857-.546-.13-.895-.548-1.047-1.254-.132-.62-.05-1.095.247-1.426.297-.33.892-.59 1.783-.778.525-.11.978-.154 1.36-.13l1.67-.352.06.647-.674.22c.142.208.249.476.319.804.13.606.046 1.076-.25 1.41-.296.335-.887.595-1.772.781a5.375 5.375 0 0 1-.985.13.49.49 0 0 0 .038.444c.085.15.227.215.425.195l1.988-.139c.533-.038.938.04 1.217.235.278.195.467.524.567.987.137.641.04 1.122-.295 1.442zm21.394-.613l6.772-3.037-5.988-4.366 4.941-5.506-7.261-1.575 2.254-7.02-7.28 1.488-.82-7.323-6.04 4.295L23.95.36l-3.755 6.36-6.04-4.296-.821 7.323-7.28-1.489 2.255 7.021-7.263 1.575 4.942 5.506L0 26.725l6.773 3.037-3.679 6.403 7.434.045-.733 7.332 6.809-2.957 2.34 6.994 5.006-5.446 5.007 5.446 2.34-6.994 6.808 2.957-.733-7.332 7.433-.045-3.677-6.403z" fill="#151515" mask="url(#b)"/></g></g></svg>