<svg xmlns="http://www.w3.org/2000/svg" viewBox="0 0 976.76 221.27"><title>the_rolling_scopes</title><g data-name="Layer 2"><g data-name="Layer 1"><path d="M76.7 1.7h30.78v34.85h33.63V1.7H172v99.6h-30.89V61h-33.63v40.3H76.7zm111.85 0H271V23h-51.61v15.79h47.9v20.32h-47.9v19.63h53.13v22.56h-84zM356 101.3V1.7h51.29q14.28 0 21.81 2.44a23.29 23.29 0 0 1 12.16 9.07q4.62 6.63 4.62 16.14a27.67 27.67 0 0 1-3.53 14.3 27.67 27.67 0 0 1-9.72 9.75 37.05 37.05 0 0 1-10.81 3.94 31 31 0 0 1 8 3.67 31.13 31.13 0 0 1 4.92 5.24 38.6 38.6 0 0 1 4.31 6.19L454 101.3h-34.82l-16.45-30.44q-3.12-5.91-5.57-7.68a12.91 12.91 0 0 0-7.54-2.31h-2.72v40.43zm30.9-59.25h13a46.68 46.68 0 0 0 8.1-1.35 8.17 8.17 0 0 0 5-3.13 9.19 9.19 0 0 0 2-5.77 9.15 9.15 0 0 0-3.06-7.41q-3-2.58-11.48-2.58H386.9zm76.1 9.52q0-24.39 13.59-38T514.45 0q24.87 0 38.32 13.35t13.45 37.4q0 17.46-5.88 28.64a41.84 41.84 0 0 1-17 17.39Q532.25 103 515.67 103q-16.84 0-27.89-5.37a42 42 0 0 1-17.9-17Q463 69 463 51.57zm30.78.13q0 15.09 5.6 21.67T514.66 80q9.92 0 15.35-6.45t5.43-23.17q0-14.06-5.67-20.55t-15.39-6.53q-9.3 0-14.94 6.59T493.8 51.7z"/><path d="M562.94 1.7h30.77v75.07h48v24.53h-78.77z"/><path d="M621.45 1.7h30.78v75.07h48v24.53h-78.78zm100.39 0h30.84v99.6h-30.84zm66.39 0H817l37.5 55.1V1.7h29v99.6h-29l-37.32-54.69v54.69h-28.95z"/><path d="M929.21 65.22V44.5h47.55V87q-13.65 9.32-24.15 12.67t-24.9 3.33q-17.71 0-28.91-6a41.38 41.38 0 0 1-17.32-18q-6.15-12-6.15-27.45 0-16.3 6.73-28.37a43.56 43.56 0 0 1 19.7-18.31Q911.89 0 929 0q16.51 0 24.7 3a32 32 0 0 1 13.59 9.27 41.33 41.33 0 0 1 8.12 15.93l-29.69 5.3a16.13 16.13 0 0 0-6.22-8.62q-4.38-3-11.18-3-10.12 0-16.13 7t-6 22.25q0 16.17 6.09 23.1t17 6.93a32.15 32.15 0 0 0 9.85-1.5 52.92 52.92 0 0 0 10.73-5.09v-9.35zM0 1.7h93.55v24.59H62.16v75H31.39v-75H0zm10.45 184.92l29.28-1.84q.95 7.14 3.87 10.87 4.76 6 13.59 6 6.59 0 10.16-3.09a8.89 8.89 0 0 0 .17-14.1q-3.4-3.06-15.76-5.77-20.25-4.56-28.88-12.1a24.29 24.29 0 0 1-8.7-19.22 26.17 26.17 0 0 1 4.45-14.51q4.46-6.82 13.39-10.73t24.49-3.91q19.09 0 29.11 7.1T97.55 148l-29 1.7q-1.16-6.74-4.86-9.79t-10.23-3.05c-3.57 0-6.27.76-8.08 2.27a7 7 0 0 0-2.72 5.54 5.55 5.55 0 0 0 2.24 4.28q2.18 2 10.33 3.67 20.18 4.35 28.91 8.8t12.7 11a28 28 0 0 1 4 14.74 31.58 31.58 0 0 1-5.3 17.66 33.19 33.19 0 0 1-14.84 12.27q-9.51 4.17-24 4.18-25.41 0-35.19-9.79t-11.06-24.86zM222 178.8l27 8.2a49.77 49.77 0 0 1-8.56 18.95 37.17 37.17 0 0 1-14.51 11.48q-8.66 3.87-22 3.88-16.25 0-26.53-4.72T159.56 200q-7.47-11.88-7.47-30.42 0-24.72 13.14-38t37.2-13.27q18.82 0 29.59 7.61t16 23.37l-27.18 6.05a22.92 22.92 0 0 0-3-6.66 17.66 17.66 0 0 0-6.31-5.44 18.3 18.3 0 0 0-8.36-1.9q-10.47 0-16 8.42-4.2 6.24-4.21 19.61 0 16.54 5 22.69t14.13 6.15q8.83 0 13.35-5T222 178.8zm69.32-8.97q0-24.37 13.59-38t37.84-13.59q24.87 0 38.32 13.35T394.52 169q0 17.46-5.87 28.64a41.93 41.93 0 0 1-17 17.39q-11.1 6.21-27.68 6.22-16.86 0-27.89-5.37a42 42 0 0 1-17.9-17q-6.86-11.58-6.86-29.05zm30.78.14q0 15.09 5.6 21.67t15.3 6.59q9.92 0 15.35-6.45t5.44-23.17q0-14.06-5.68-20.55t-15.38-6.49q-9.31 0-14.95 6.59T322.1 170z"/><path d="M388.26 120h51.15q16.72 0 25 8t8.32 22.62q0 15.09-9.07 23.57T436 182.61h-16.83v37h-30.91zm30.91 42.46h7.54q8.9 0 12.5-3.09a10 10 0 0 0 3.6-7.92 11.05 11.05 0 0 0-3.12-7.94q-3.13-3.27-11.76-3.27h-8.76zM541.68 120h82.47v21.26h-51.63v15.83h47.9v20.32h-47.9V197h53.13v22.56h-84zm103.69 66.62l29.28-1.84c.63 4.76 1.93 8.38 3.87 10.87q4.76 6 13.59 6 6.58 0 10.16-3.09a8.87 8.87 0 0 0 .17-14.1q-3.41-3.06-15.76-5.77-20.25-4.56-28.88-12.1a24.28 24.28 0 0 1-8.69-19.22 26.09 26.09 0 0 1 4.45-14.51q4.44-6.82 13.38-10.73t24.49-3.91q19.1 0 29.11 7.1T732.47 148l-29 1.7q-1.15-6.74-4.86-9.79t-10.23-3.05c-3.57 0-6.27.76-8.08 2.27a7 7 0 0 0-2.72 5.54 5.55 5.55 0 0 0 2.24 4.28q2.18 2 10.33 3.67 20.18 4.35 28.91 8.8t12.7 11a28 28 0 0 1 4 14.74 31.58 31.58 0 0 1-5.3 17.66 33.19 33.19 0 0 1-14.81 12.27q-9.51 4.17-24 4.18-25.41 0-35.2-9.79t-11.08-24.86z"/></g></g></svg>