<svg width="172" height="37" viewBox="0 0 172 37" xmlns="http://www.w3.org/2000/svg"><title>microsoft</title><path d="M67.748 12.518v17.06h3.785V7.409h-5.238l-6.659 16.467-6.463-16.467h-5.452v22.17h3.557V12.517h.122l6.824 17.062h2.685l6.717-17.06h.122zm9.254-5.596c-.61 0-1.142.21-1.58.625-.439.416-.662.94-.662 1.558 0 .608.22 1.123.654 1.528.433.404.967.608 1.588.608.622 0 1.157-.204 1.595-.607a2 2 0 0 0 .663-1.529c0-.597-.217-1.115-.645-1.541-.428-.426-.97-.642-1.613-.642zM75.11 29.58h3.71V13.69h-3.71v15.888zm14.77-16.272c-1.7 0-3.22.367-4.51 1.092a7.328 7.328 0 0 0-2.974 3.082c-.678 1.317-1.022 2.853-1.022 4.566 0 1.502.333 2.879.993 4.093a7.01 7.01 0 0 0 2.775 2.827c1.18.659 2.545.993 4.054.993 1.764 0 3.268-.354 4.474-1.056l.05-.028v-3.423l-.156.113a6.958 6.958 0 0 1-1.814.953c-.656.23-1.254.346-1.779.346-1.455 0-2.623-.458-3.47-1.363-.85-.906-1.282-2.177-1.282-3.778 0-1.611.45-2.916 1.336-3.878.883-.96 2.054-1.447 3.479-1.447 1.218 0 2.406.416 3.53 1.237l.155.114v-3.608l-.05-.028c-.423-.24-.999-.436-1.717-.585-.71-.147-1.41-.222-2.072-.222zm10.352 3.134V13.69h-3.71v15.888h3.71V21.45c0-1.383.311-2.518.924-3.375.606-.847 1.414-1.277 2.4-1.277.334 0 .709.056 1.116.166.402.109.693.227.865.352l.155.113v-3.768l-.06-.025c-.346-.148-.835-.223-1.453-.223-.932 0-1.766.301-2.48.896-.628.522-1.08 1.238-1.428 2.13h-.04v.002zm14.055-3.134c2.45 0 4.392.734 5.772 2.183 1.382 1.448 2.081 3.464 2.081 5.99 0 2.558-.746 4.635-2.217 6.169-1.472 1.533-3.496 2.312-6.017 2.312-2.418 0-4.374-.74-5.81-2.198-1.435-1.458-2.165-3.457-2.165-5.945 0-2.62.746-4.715 2.22-6.23 1.47-1.514 3.535-2.281 6.136-2.281zm-.166 13.56c1.37 0 2.418-.447 3.117-1.326.702-.887 1.057-2.212 1.057-3.937 0-1.705-.379-3.013-1.124-3.89-.743-.872-1.78-1.313-3.08-1.313-1.344 0-2.408.462-3.164 1.374-.763.918-1.148 2.235-1.148 3.92 0 1.633.385 2.918 1.148 3.82.755.897 1.83 1.352 3.194 1.352zm15.832-13.56c-1.77 0-3.232.455-4.35 1.354-1.124.904-1.695 2.09-1.695 3.525 0 .746.123 1.408.366 1.97.245.564.62 1.06 1.121 1.477.498.414 1.265.845 2.283 1.287.854.354 1.493.654 1.898.89.396.232.677.465.836.691.153.223.231.526.231.901 0 1.067-.792 1.588-2.424 1.588-.605 0-1.298-.128-2.053-.378a7.706 7.706 0 0 1-2.102-1.076l-.155-.11v3.641l.056.028c.532.247 1.202.455 1.99.619.789.164 1.505.248 2.127.248 1.92 0 3.465-.458 4.592-1.364 1.136-.909 1.71-2.122 1.71-3.609 0-1.069-.309-1.988-.919-2.729-.606-.735-1.66-1.408-3.127-2.005-1.168-.473-1.918-.865-2.226-1.166-.296-.291-.45-.702-.45-1.223 0-.463.188-.832.571-1.132.387-.302.924-.455 1.599-.455.626 0 1.265.1 1.902.294a6.063 6.063 0 0 1 1.66.776l.153.106V14l-.058-.025c-.43-.186-.998-.345-1.687-.474a10.214 10.214 0 0 0-1.85-.193zm14.41 0c2.447 0 4.39.734 5.772 2.183 1.38 1.448 2.08 3.464 2.08 5.99 0 2.558-.745 4.635-2.217 6.169-1.472 1.533-3.496 2.312-6.017 2.312-2.42 0-4.374-.74-5.81-2.198s-2.165-3.458-2.165-5.945c0-2.62.747-4.715 2.218-6.23 1.474-1.514 3.538-2.281 6.14-2.281zm-.168 13.56c1.37 0 2.42-.447 3.117-1.326.702-.887 1.058-2.212 1.058-3.937 0-1.705-.378-3.013-1.125-3.89-.742-.872-1.778-1.313-3.08-1.313-1.343 0-2.407.462-3.164 1.374-.762.918-1.15 2.235-1.15 3.92 0 1.633.388 2.918 1.149 3.82.757.897 1.832 1.352 3.195 1.352zM172 16.738v.001h-3.758v7.5c0 .962.172 1.65.51 2.043.333.389.87.587 1.598.587.193 0 .443-.043.741-.128.298-.082.55-.195.755-.332l.153-.102v3.077l-.05.03c-.224.128-.603.25-1.162.37a7.62 7.62 0 0 1-1.595.178c-3.101 0-4.675-1.703-4.675-5.063v-8.16h-5.569v12.84h-3.754v-12.84h-2.616V13.69h2.616v-2.2c0-1.104.242-2.102.72-2.967a5.065 5.065 0 0 1 2.03-2.022c.868-.477 1.864-.717 2.959-.717.87 0 1.571.094 2.087.28l.065.025V9.3l-.139-.062a3.975 3.975 0 0 0-1.632-.375c-.737 0-1.316.239-1.72.708-.408.475-.614 1.188-.614 2.12v2h5.568V10.1l.07-.022 3.529-1.088.126-.04v4.74H172v3.047zM17.449 0v17.581H0V0h17.45zm1.816 17.581V0h17.448v17.581H19.265zM17.45 37H0V19.418h17.448V37zm1.816 0V19.419h17.448V37H19.265z" fill="#151515" fill-rule="evenodd"/></svg>