<svg width="164" height="35" viewBox="0 0 164 35" xmlns="http://www.w3.org/2000/svg"><title>madmaniak</title><path d="M14.654 8.86c2.05-1.139 3.992-1.708 5.825-1.708 1.736 0 3.111.545 4.124 1.636 1.013 1.092 1.52 2.48 1.52 4.163v12.311h-1.99V13.058c0-1.067-.23-1.933-.688-2.597-.458-.664-1.013-1.08-1.664-1.246-.651-.166-1.176-.249-1.574-.249-.398 0-.844.018-1.338.054-.495.035-1.152.207-1.972.516l-1.338.64c.41.807.615 1.732.615 2.775v12.311h-1.99V13.058c0-1.233-.302-2.194-.905-2.882-.723-.806-1.827-1.21-3.31-1.21s-2.948.392-4.396 1.174v15.122H3.547V7.436h2.026l-.18 1.139c1.664-.925 3.346-1.388 5.046-1.388 1.7 0 3.106.558 4.215 1.673zm21.924 16.758c-5.282 0-7.923-2.123-7.923-6.369v-2.953c0-2.348.832-3.926 2.496-4.732.869-.404 1.725-.605 2.569-.605 2.846 0 5.125.664 6.838 1.992 0-1.304-.386-2.342-1.158-3.113-.772-.77-2.255-1.156-4.45-1.156l.109-1.53c1.953 0 3.4.225 4.341.676.506.26.953.522 1.339.782.385.261.687.605.904 1.032.217.427.398.8.543 1.121.144.32.24.753.29 1.299.071.83.108 1.696.108 2.597v10.603c-2.509.237-4.51.356-6.006.356zm3.98-1.993v-9.144c-2.002-.949-4.052-1.506-6.15-1.672a2.68 2.68 0 0 0-.435-.036c-.916 0-1.7.28-2.351.837-.652.557-.977 1.488-.977 2.793v3.095c0 1.969.868 3.25 2.605 3.843 1.013.356 2.158.534 3.437.534 1.278 0 2.568-.083 3.87-.25zM52.685 7.152c2.002 0 3.594.415 4.775 1.245V.356h2.026v24.906c-2.074.285-3.991.427-5.752.427-1.76 0-3.352-.356-4.775-1.067-1.882-.95-2.822-2.598-2.822-4.946v-6.725c0-2.49 1.025-4.198 3.075-5.123.989-.451 2.146-.676 3.473-.676zm4.775 2.988c-1.47-.806-3.075-1.21-4.811-1.21-1.52 0-2.653.38-3.401 1.14-.748.758-1.121 1.755-1.121 2.988v6.654c0 2.775 1.893 4.163 5.68 4.163 1.085 0 2.303-.107 3.653-.32V10.14zm16.578-1.28c2.05-1.139 3.991-1.708 5.824-1.708 1.737 0 3.112.545 4.125 1.636 1.013 1.092 1.52 2.48 1.52 4.163v12.311h-1.99V13.058c0-1.067-.23-1.933-.688-2.597-.458-.664-1.013-1.08-1.664-1.246-.651-.166-1.176-.249-1.574-.249-.398 0-.844.018-1.339.054-.494.035-1.151.207-1.971.516l-1.339.64c.41.807.615 1.732.615 2.775v12.311h-1.99V13.058c0-1.233-.301-2.194-.904-2.882-.724-.806-1.827-1.21-3.31-1.21-1.484 0-2.949.392-4.396 1.174v15.122h-2.026V7.436h2.026l-.18 1.139c1.663-.925 3.346-1.388 5.046-1.388 1.7 0 3.105.558 4.215 1.673zM95.39 25.618c-5.282 0-7.923-2.123-7.923-6.369v-2.953c0-2.348.833-3.926 2.497-4.732.868-.404 1.724-.605 2.568-.605 2.846 0 5.126.664 6.838 1.992 0-1.304-.386-2.342-1.158-3.113-.771-.77-2.255-1.156-4.45-1.156l.109-1.53c1.954 0 3.4.225 4.341.676.507.26.953.522 1.339.782.386.261.687.605.904 1.032.217.427.398.8.543 1.121.145.32.241.753.29 1.299.072.83.108 1.696.108 2.597v10.603c-2.508.237-4.51.356-6.006.356zm3.98-1.993v-9.144c-2.002-.949-4.052-1.506-6.15-1.672a2.68 2.68 0 0 0-.434-.036c-.917 0-1.7.28-2.352.837-.651.557-.977 1.488-.977 2.793v3.095c0 1.969.868 3.25 2.605 3.843 1.013.356 2.159.534 3.437.534s2.569-.083 3.871-.25zm7.144-14.979c1.23-1.02 2.955-1.53 5.174-1.53 1.254 0 2.327.225 3.22.676 2.05.925 3.075 2.645 3.075 5.16v12.31h-1.99V13.058c0-1.233-.338-2.194-1.013-2.882-.82-.83-2.044-1.245-3.672-1.245-1.628 0-3.178.403-4.649 1.21v15.121h-2.026V7.436h2.026l-.145 1.21zm18.758-7.436c0 .308-.12.58-.362.818a1.173 1.173 0 0 1-.85.356c-.326 0-.61-.125-.85-.374-.242-.249-.362-.527-.362-.836 0-.308.12-.581.362-.818.24-.237.53-.356.868-.356.338 0 .62.119.85.356.23.237.344.522.344.854zm-.217 24.052h-2.026V7.436h2.026v17.826zm12.182.356c-5.282 0-7.923-2.123-7.923-6.369v-2.953c0-2.348.832-3.926 2.496-4.732.869-.404 1.725-.605 2.57-.605 2.845 0 5.124.664 6.837 1.992 0-1.304-.386-2.342-1.158-3.113-.772-.77-2.255-1.156-4.45-1.156l.109-1.53c1.953 0 3.4.225 4.341.676.507.26.953.522 1.339.782.386.261.687.605.904 1.032.217.427.398.8.543 1.121.145.32.241.753.29 1.299.072.83.108 1.696.108 2.597v10.603c-2.509.237-4.51.356-6.006.356zm3.98-1.993v-9.144c-2.002-.949-4.052-1.506-6.15-1.672a2.68 2.68 0 0 0-.435-.036c-.916 0-1.7.28-2.351.837-.651.557-.977 1.488-.977 2.793v3.095c0 1.969.868 3.25 2.605 3.843 1.013.356 2.158.534 3.437.534 1.278 0 2.568-.083 3.87-.25zm18.458 1.637h-2.424l-6.946-11.279-1.881 1.601v9.678h-2.026V.356h2.026v12.987l7.235-6.583 1.448 1.388-5.355 4.59c1.64 2.68 4.281 6.855 7.923 12.524zM0 33.502h164V35H0v-1.498z" fill="#151515" fill-rule="evenodd"/></svg>