<svg width="147" height="36" viewBox="0 0 147 36" xmlns="http://www.w3.org/2000/svg"><title>egnyte</title><path d="M0 10.525h18.122v5.329H6.18v3.42h10.814v4.943H6.181V27.8h12.1v5.33H0V10.524zm32.221 13.98v-4.584h10.365v10.175c-2.383 1.97-5.696 3.486-9.784 3.486-7.018 0-12.266-4.843-12.266-11.69v-.064c0-6.588 5.15-11.755 12.136-11.755 3.96 0 6.759 1.227 9.142 3.293l-3.669 4.424c-1.611-1.356-3.22-2.131-5.44-2.131-3.25 0-5.762 2.746-5.762 6.201v.064c0 3.649 2.544 6.266 6.116 6.266 1.512 0 2.671-.323 3.605-.938v-2.747H32.22zm28.937-2.032V10.526h6.18V33.13h-5.472l-9.624-12.4v12.4H46.06V10.526h5.828l9.27 11.947zm45.06-6.459v-5.49h19.763v5.49h-6.758V33.13h-6.247V16.014h-6.758zm22.498-5.49h18.122v5.33h-11.943v3.42h10.816v4.943h-10.816V27.8H147v5.33h-18.284V10.524zm-41.868 4.39l11.25-8.317 5.281 3.916-13.377 9.89V36H83.73V20.45l-.036-.043-13.38-9.894 5.293-3.91 11.241 8.312zm7.827 7.727l8.442 6.245-1.86 2.536-8.444-6.245 1.862-2.536zM88.398 0v10.523l-3.1.003L85.296.001 88.398 0zM70.576 28.886l8.443-6.244 1.864 2.535-8.444 6.245-1.863-2.536z" fill="#151515" fill-rule="evenodd"/></svg>