<svg data-name="Layer 1" xmlns="http://www.w3.org/2000/svg" viewBox="0 0 142.71072 119.08912"><title>logo-variant-2-bw-transparent-for_dark_background_only</title><path d="M126.502 51.408a15.998 15.998 0 0 0-7.5 2.2L56.754 89.047l14.848-24.44a.845.845 0 0 1 .2-.6 4.262 4.262 0 0 0 .473-2.037l3.927 2.438c.1.1.2.1.3.2a4.343 4.343 0 0 0 5.8-1.6 4.176 4.176 0 0 0-1-5.4l-62.6-54.5a11.297 11.297 0 0 0-7.3-3.1A10.997 10.997 0 0 0 .006 10.59l-.004.117a11.123 11.123 0 0 0 5.8 10l60.452 37.524a4.202 4.202 0 0 0-1.652 1.376l-35.861 45.528a7.908 7.908 0 0 0 1.932 13.206l.137.059c.12.05.237.102.36.147a7.97 7.97 0 0 0 7.21-.733l94.622-36.507a.31.31 0 0 0 .2-.1 15.647 15.647 0 0 0 9.5-14.9A15.485 15.485 0 0 0 126.66 51.4l-.157.007z" fill="#fff"/><path d="M45.502 35.708h51v51h-51z"/><path fill="#fff" d="M49.902 77.108h19.1v3.2h-19.1z"/><g fill="#fff"><path d="M49.702 49.108l1.5-1.4a1.703 1.703 0 0 0 1.3.8q.9 0 .9-1.2v-5.3h2.3v5.3a2.795 2.795 0 0 1-3.1 3.1 3.128 3.128 0 0 1-2.9-1.3zm6.6-7.1h6.7v2h-4.4v1.3h4v1.8h-4v1.3h4.4v2h-6.7zm9.7 2.1h-2.5v-2h7.3v2h-2.5v6.3h-2.3zm-16.1 8.2h4.3a3.702 3.702 0 0 1 2.3.7 1.978 1.978 0 0 1 .5 1.4 1.955 1.955 0 0 1-1.3 1.9 2.034 2.034 0 0 1 1.7 2c0 1.4-1.2 2.3-3.1 2.3h-4.3v-8.3zm4.8 2.6c0-.5-.4-.7-1-.7h-1.5v1.5h1.4c.7-.1 1.1-.3 1.1-.8zm-.8 2.3h-1.8v1.5h1.8c.7 0 1.1-.3 1.1-.8 0-.4-.3-.7-1.1-.7zm3.8-4.9h3.9a3.371 3.371 0 0 1 2.7.9 2.49 2.49 0 0 1 .7 1.9 2.76 2.76 0 0 1-1.7 2.6l2 2.9h-2.6l-1.7-2.5h-1v2.5h-2.3zm3.8 4c.8 0 1.2-.4 1.2-1 0-.7-.5-1-1.2-1h-1.5v2z"/><path d="M67.802 52.208h2.2l3.5 8.4h-2.5l-.6-1.5h-3.2l-.6 1.5h-2.4zm2 5.1l-.9-2.3-.9 2.4h1.8zm4-5h2.3v8.3h-2.3zm2.9 0h2.2l3.4 4.4v-4.4h2.3v8.3h-2l-3.6-4.5v4.6h-2.3zm8 7.1l1.3-1.5a3.942 3.942 0 0 0 2.7 1c.6 0 1-.2 1-.6 0-.4-.3-.5-1.4-.8-1.8-.4-3.1-.9-3.1-2.6 0-1.5 1.2-2.7 3.2-2.7a5.33 5.33 0 0 1 3.4 1.1l-1.2 1.6a4.553 4.553 0 0 0-2.3-.8c-.6 0-.8.2-.8.5 0 .4.3.5 1.4.8 1.9.4 3.1 1 3.1 2.6 0 1.7-1.3 2.7-3.4 2.7a5.293 5.293 0 0 1-3.9-1.3z"/></g></svg>