<svg xmlns="http://www.w3.org/2000/svg" width="128" height="128" viewBox="0 0 1333 1333" shape-rendering="geometricPrecision" text-rendering="geometricPrecision" image-rendering="optimizeQuality" fill-rule="evenodd" clip-rule="evenodd"><defs><style>.fil0,.fil1{fill-rule:nonzero}.fil1{fill:#253038}.fil0{fill:none}</style></defs><g id="Layer_x0020_1"><path class="fil0" d="M0 1333h1333V0H0z"/><path class="fil1" d="M769 528l29-96 29 96h-58zm143 84l-75-227c-2-5-4-8-6-10s-6-2-10-2h-41c-5 0-8 1-11 3-2 2-4 5-6 10l-76 227c-1 1-1 4-1 7 0 6 3 8 10 8h38c2 0 3-1 4-2s2-2 3-4 2-4 3-8l12-40h85l12 39c1 3 2 6 3 8s2 3 3 4 3 2 4 2h39c7 0 10-3 10-8v-3c0-1-1-2-1-4zm-37 91h-24c-6 0-10 1-12 3s-3 5-3 11v135l-71-135c-3-6-6-9-8-11-3-2-8-2-14-2h-22c-6 0-10 1-12 3s-3 5-3 11v227c0 5 1 9 3 11s6 3 12 3h24c6 0 10-1 12-3s3-5 3-11V810l71 135c3 6 6 9 8 11 3 2 8 2 14 2h22c6 0 10-1 12-3s3-5 3-11V717c0-5-1-9-3-11s-6-3-12-3zm119-22l62 62v311H279V743l62-62c9-9 9-24 0-33l-62-62V275h777v311l-62 62c-9 9-9 24 0 33zm117-461H222v393l51 51-51 51v393h889V715l-51-51 51-51V220zM617 904H517l106-149c2-2 3-4 3-6 0-1 1-3 1-5v-29c0-5-1-9-3-11s-6-3-12-3H459c-6 0-9 1-11 3s-3 6-3 13v21c0 6 1 11 3 13s5 3 11 3h94L449 903c-3 3-4 7-4 10v29c0 5 1 9 3 11s6 3 12 3h157c5 0 9-1 11-3s3-6 3-13v-21c0-6-1-11-3-13s-5-3-11-3zm-47-379c0 10-1 18-2 24-1 7-3 12-6 16s-7 7-12 9-11 3-18 3h-29V423h29c14 0 23 4 29 12s9 21 9 40v51zm51-103c-8-17-20-29-34-38-14-8-33-12-54-12h-73c-6 0-10 1-12 3s-3 5-3 11v227c0 5 1 9 3 11s6 3 12 3h82c39 0 65-17 80-50 3-8 6-15 7-23s2-18 2-29v-48c0-14-1-24-2-32s-4-15-7-22z"/></g></svg>