<svg width="138" height="40" viewBox="0 0 138 40" xmlns="http://www.w3.org/2000/svg"><title>moz-logo-bw-rgb</title><g fill="none"><path fill="#000" d="M0 .308h138v39.577H0z"/><path d="M131.79 28.73a2.597 2.597 0 0 1-.728.116c-.805 0-1.189-.346-1.189-1.346V20c0-3.962-3.143-5.885-6.861-5.885-2.837 0-4.37.347-7.399 1.577l-.613 4 3.948.423.575-1.961c.805-.423 1.61-.5 2.645-.5 2.799 0 2.837 2.115 2.837 3.884v.577c-.882-.115-1.878-.153-2.837-.153-3.948 0-8.05 1-8.05 5.269 0 3.615 2.837 4.961 5.329 4.961 2.798 0 4.561-1.692 5.558-3.461.23 2.115 1.495 3.461 3.795 3.461 1.073 0 2.185-.307 3.105-.807l-.115-2.654zm-10.58-.115c-1.495 0-2.032-.884-2.032-2 0-1.884 1.534-2.384 3.297-2.384.805 0 1.687.115 2.492.23-.115 2.885-1.994 4.154-3.757 4.154zm-6.632-23.269l-7.475 26.423h-4.868l7.475-26.423h4.868zm-10.043 0L97.06 31.77h-4.868l7.475-26.423h4.868zm-20.7 9.116h5.175v6.23h-5.175v-6.23zm0 11.115h5.175v6.23h-5.175v-6.23zm-7.552-.23l3.91.384-1.073 6.077H64.055l-.498-2.616 9.506-10.961h-5.405l-.766 2.692-3.565-.385.613-6.076h15.142l.383 2.615-9.583 10.961h5.596l.805-2.692zM51.558 14.114c-6.21 0-9.276 4.193-9.276 9.27 0 5.538 3.68 8.807 9.008 8.807 5.52 0 9.507-3.5 9.507-9.038 0-4.846-3.029-9.039-9.239-9.039zm-.115 14.231c-2.683 0-4.063-2.308-4.063-5.308 0-3.269 1.572-5.153 4.102-5.153 2.338 0 4.216 1.577 4.216 5.077 0 3.346-1.686 5.384-4.255 5.384zM37.835 28h2.3v3.77h-7.207v-9.732c0-3-.996-4.153-2.951-4.153-2.377 0-3.335 1.692-3.335 4.115v6.038h2.3v3.77h-7.245v-9.77c0-3-.997-4.153-2.952-4.153-2.377 0-3.335 1.692-3.335 4.115v6.038h3.297v3.77H8.203v-3.77h2.3v-9.807h-2.3v-3.77h7.245v2.616c1.035-1.846 2.837-2.962 5.252-2.962 2.492 0 4.792 1.193 5.635 3.731.958-2.308 2.913-3.73 5.635-3.73 3.105 0 5.942 1.884 5.942 6V28h-.077z" fill="#FFF"/></g></svg>