<svg width="194" height="24" viewBox="0 0 194 24" xmlns="http://www.w3.org/2000/svg" xmlns:xlink="http://www.w3.org/1999/xlink"><title>ks_logo_8</title><defs><path d="M0 .649h14.414l-4.706 11.65 4.706 11.652H0V.65z" id="a"/></defs><g fill="#151515" fill-rule="evenodd"><path d="M44.133.725h3.41l-10.538 11.15L48.804 23.76H45.27L34.73 13.102h-2.273V23.76h-2.612V.725h2.612V10.8h2.274zm5.595 0h14.81V3.03H52.34v7.831h11.675v2.15H52.34v8.446h12.197v2.304h-14.81zm17.208 0h14.81V3.03H69.548v7.831h11.676v2.15H69.548v8.446h12.198v2.304h-14.81zm20.372 2.304v9.46h6.76c3.472 0 5.254.03 5.254-4.454 0-4.423-.8-5.006-4.025-5.006h-7.989zM84.697.725h11.737c4.455 0 5.5 3.01 5.5 6.972 0 2.057-.031 7.094-5.623 7.094h-9.003v8.969h-2.611V.725zm23.937 15.695v1.074c0 2.642 1.137 2.826 5.223 2.826 4.025 0 4.578-.738 4.578-3.41 0-3.286-1.751-2.855-5.193-3.04-4.977-.307-8.91-.123-8.91-6.819 0-6.326 3.995-6.51 9.525-6.51 4.701 0 8.541.154 8.541 6.204v.737h-4.423v-.737c0-2.489-1.015-2.58-4.118-2.58-4.394 0-5.1.43-5.1 2.886 0 2.826.584 2.918 5.07 3.195 7.097.43 9.033.798 9.033 6.665 0 6.48-3.072 7.033-9.003 7.033-5.1 0-9.647.154-9.647-6.45V16.42h4.424zm76.697 3.562c2.98 0 3.902-2.672 3.902-5.252V9.294c0-3.84-1.26-4.792-4.64-4.792h-6.575v15.48h7.313zM173.593.725h11c6.36 0 9.064 2.304 9.064 8.569v5.436c0 4.791-1.352 9.03-8.326 9.03h-11.738V.725zm-44.095 8.232v6.204c0 4.575.892 5.005 5.316 5.005 4.025 0 5.408-.552 5.408-5.005V8.957c.091-4.33-1.476-4.638-5.408-4.638-4.762 0-5.223.982-5.316 4.638zm15.148 0v6.204c0 7.37-2.857 8.783-9.832 8.783-7.128 0-9.74-1.228-9.74-8.783V8.957c0-7.157 2.427-8.417 9.74-8.417 6.637 0 9.832 1.014 9.832 8.417zm7.652 11.025h10.754v3.778h-15.177V.725h4.423zM165.235.725h4.424V23.76h-4.424z"/><path opacity=".6" d="M14.766 8.534h8.543V23.95H6.224V16.3h10.251v-.235H6.224V.65h17.085V8.3h-8.543z"/><use xlink:href="#a"/></g></svg>