<svg xmlns="http://www.w3.org/2000/svg" width="61.92mm" height="35.92mm" viewBox="0 0 4966 4966" shape-rendering="geometricPrecision" text-rendering="geometricPrecision" image-rendering="optimizeQuality" fill-rule="evenodd" clip-rule="evenodd"><defs><style>.fil2{fill:#000}.fil0,.fil1{fill-rule:nonzero}.fil1{fill:#000}.fil0{fill:#fefefe}</style></defs><g id="Layer_x0020_1"><path class="fil0" d="M3457 33h1348c72 0 130 58 130 130v1348c0 72-58 130-130 130H3457c-72 0-130-58-130-130V163c0-72 58-130 130-130z"/><path class="fil1" d="M3457 1h1347c44 0 85 18 115 47 30 30 47 70 47 115v1347c0 44-18 85-47 115-30 30-70 47-115 47H3457c-45 0-85-18-115-47-30-30-47-70-47-115V163c0-45 18-85 47-115 30-30 70-47 115-47zm1347 64H3457c-27 0-51 11-69 29s-29 43-29 69v1347c0 27 11 51 29 69s43 29 69 29h1347c27 0 51-11 69-29s29-43 29-69V163c0-27-11-51-29-69s-43-29-69-29z"/><path class="fil2" d="M3293 1827c-88 0-158-71-157-159V159c0-88-70-159-157-159H158C70 0 0 71 0 159v4649c0 88 70 159 157 159h4651c87 0 157-71 157-159V1986c0-88-70-159-157-159H3293l-1 1z"/><path class="fil0" d="M4101 2077L2991 4545h-528L1369 2077h768l597 1270 628-1270zM1341 707v3050H651V707h690zm1589 0l-793 1366h-768l781-1366h780-1z"/><path class="fil1" d="M3617 1007h338V668h-338v339zm345 121h-351v-116h-115V200h121v345h345v115h115v351h-115v117zm690 345h-351v-121h345v-339h-108v116h-237v-116h-115V546h121v461h224V891h115V546h121v812h-115v115z"/></g></svg>