<svg id="Layer_1" xmlns="http://www.w3.org/2000/svg" viewBox="0 0 352.8 118.6"><style>.st0{fill:#000}.st1{fill:#fff}.st2{fill:#000}</style><path class="st0" d="M208.9 31.2c-.2 17-14.1 30.8-31.2 30.6S146.9 47.7 147 30.6c.2-17.1 14.1-30.8 31.2-30.6 17.2.1 30.9 14.1 30.7 31.2"/><path class="st1" d="M177.9 39.1v4.6h-15.3V19.1h15.1v4.6h-10.3V29h9.4v4.5h-9.4v5.6zm17.7 0v4.6h-14.3V19.1h4.9v20z"/><path class="st2" d="M227.8 56.8c0 5.1-4.1 9.1-9.1 9.1-5.1 0-9.1-4.1-9.1-9.1 0-5.1 4.1-9.1 9.1-9.1s9.1 4.1 9.1 9.1m-96.2-39.1C121.8 7 101.3 0 79.6 0c-4 0-8.1.2-12.1.7C40.6 4 18.2 15.7 6.2 32.8c-6.3 8.7-7.9 18.6-4.4 26.8 2.9 6.7 10.6 15.1 30.7 17.5.9.1 2.3 0 3-1.6l3.3-6.9c.2-.4.2-.9-.1-1.3-.2-.4-.6-.7-1.1-.7-17.2-1.5-23.2-7.3-25.3-11.9s-1-10.2 3-15.8c10-14.2 29.2-23.9 52.6-26.6 3.3-.4 6.7-.6 10.1-.6 18.3 0 36.4 5.9 44.1 14.3 2.6 2.8 3.7 5.6 3.5 8.4-1.1 12.4-27.3 23-48.1 23H76l9.3-20.3c.3-.6.2-1.4-.4-1.8l-6.6-5c-.3-.3-.8-.4-1.3-.3-8.7 1.9-21.3 4.8-27.1 13.6-2.2 3.4-2.7 7.4-1.4 11.3 1.6 4.8 6 8.8 11.9 11l-20.8 45.8c-.3.6-.2 1.4.4 1.8l6.2 4.8c.3.2.6.3.9.3.1 0 .3 0 .4-.1.5-.1.9-.5 1.1-.9L71 68.4c2.3.3 4.7.4 7.2.4 12.7 0 27-3.4 38.2-9.1 12.9-6.6 20.4-15.6 21.3-25.4.7-5.9-1.5-11.6-6.1-16.6M71.1 42.4l-5.9 13.1c-2.4-1-4.7-2.8-5.4-4.8-.2-.7-.2-1.4.3-2.1 1.4-2.9 7.3-5.3 11-6.2"/><path class="st2" d="M352.2 90.2l-7.7-5.1c-.3-.2-.8-.3-1.2-.1-11.3 4.1-22.9 11-31.6 16.7 6.2-16.8 8.5-23.2 9.3-25.3.2-.5.1-1.2-.4-1.6l-6.1-4.6c-.4-.3-.9-.4-1.3-.2-12.1 4.8-20.9 10.9-28.1 17.4l3.3-9.1c.2-.5 0-1.2-.4-1.5l-6.2-4.7c-.5-.4-1.3-.3-1.7.2-4.2 4.4-8.6 7-13.1 7.6-.6-1.7-1.6-3.2-2.9-4.5-2.6-2.5-6.2-4.4-15-2.9-.5.1-.8.4-1 .8-1.2 3.2-2.2 5.9-2.7 7.3-.2.6-.1 1.2.2 1.7 1.9 2.5 6.1 5.1 11.3 6.4-3.8 10-15.2 20.8-23.9 19.2-1.2-.2-3.3-1.7-4.1-4.2-.7-2.4-.9-9.1 11.5-21.4.3-.3.4-.6.4-1s-.2-.7-.5-1l-5.9-4.5c-.5-.4-1.2-.3-1.7.1l-23.5 21.3 7.4-19.9c.2-.6 0-1.2-.5-1.5l-6-4.5c-.5-.3-1.1-.3-1.6 0l-24.9 20.2c-.9-1-1.8-1.9-2.6-2.7-2.1-2-4-3.9-4-5.6 0-.9.5-3 3.7-6.4.2-.3.4-.6.3-1 0-.4-.2-.7-.5-.9l-6-4.6c-.5-.4-1.2-.3-1.6.1-9.8 8.4-17.2 14.7-22.7 19.4l-.3-.3c-4.5-4.2-6.5-6-.6-13 .2-.3.3-.6.3-1s-.2-.7-.5-.9l-5.9-4.5c-.5-.4-1.2-.3-1.7.1l-30.8 30.6 3.1-8c.3-.6.1-1.2-.4-1.6l-6.6-4.9c-.3-.2-.6-.3-1-.3-.4.1-.7.3-.9.5-12.7 18.1-20.5 22-25.9 22-9.7 0-3.2-12.5 3.3-18.4 4.5-4.1 16.6-13.3 33.4-6 .7.3 1.4 0 1.7-.6l3.1-6.6c.2-.3.2-.7 0-1-.1-.3-.4-.6-.7-.7-15.5-6.8-31.9-3.6-44.3 7.7-9.1 8.4-13.3 19.2-10.5 26.9 1.9 5.2 6.8 8.6 13.5 8.6 4.7 0 11.9-1.3 21.4-10.3l-.6 3.1c-.1.5.1 1 .5 1.3s4.5 3.4 6.4 4.8c.5.4 1.2.3 1.7-.1l28.7-28.5c1.4 3.2 3.8 5.6 5.8 7.5-2.8 2.4-4.8 4.2-6.3 5.5-4.5 3.9-7.2 6-11.1 9.1-.4.3-.7 1.2 0 1.7 0 0 5.3 4 7.1 5.3.7.5 1 .8 2.1.7 7.2-.6 16.3-4.8 20.5-13.1 1.5-2.9 1.6-5.5 1-7.7 3.3-2.8 7.2-6.2 12-10.3 1.3 3.5 4 6.2 6.2 8.4.8.7 1.4 1.4 1.8 1.9 0 0-13.7 11.3-17.7 14.4-.4.3-.7 1.2 0 1.7 0 0 3 2.6 4.8 3.9.7.5 1 .8 2.1.7 8.3-.7 19.2-6.3 22.1-17.3h.1l14.1-11.5-7.9 21.4c-.2.5 0 1.2.4 1.5l5.7 4.3c.5.4 1.2.3 1.7-.1l17.4-15.7c0 1.8.2 4 .6 5.3 2 6.6 7.5 10.3 11.7 11.1 12.4 2.4 30.6-9.6 35.8-27.7 2.6-.2 5.1-.8 7.6-1.7l-8.1 22.2c-.2.5 0 1.2.5 1.5l6.2 4.6c.3.2.7.3 1.1.2s.7-.3.9-.7c2.6-4.8 12.3-21.3 33.1-32.6-3.6 9.6-5.8 15.6-10.5 28.7-.2.6 0 1.2.5 1.5l6.5 4.3c.5.3 1.1.3 1.5 0 5.4-4.1 27.9-20.3 45.9-25.2.5-.1.9-.5.9-1.1.2-.4 0-.9-.5-1.2"/></svg>