<svg width="128" height="40" viewBox="0 0 128 40" xmlns="http://www.w3.org/2000/svg"><title>google-logo</title><path d="M16.108 14.243v4.279h10.25c-.314 2.4-1.116 4.156-2.336 5.391-1.5 1.496-3.835 3.13-7.914 3.13-6.311 0-11.244-5.078-11.244-11.373 0-6.296 4.933-11.374 11.244-11.374 3.399 0 5.892 1.339 7.722 3.06l3.016-3.008C24.3 1.878 20.884 0 16.108 0 7.46 0 .192 7.026.192 15.652s7.27 15.652 15.916 15.652c4.671 0 8.193-1.53 10.947-4.382 2.824-2.818 3.713-6.8 3.713-10 0-.992-.07-1.913-.226-2.679H16.108zm27.473-3.478c-5.596 0-10.163 4.244-10.163 10.105 0 5.808 4.567 10.104 10.163 10.104s10.163-4.278 10.163-10.104c0-5.861-4.567-10.105-10.163-10.105zm0 16.226c-3.068 0-5.718-2.521-5.718-6.121 0-3.635 2.65-6.122 5.718-6.122S49.3 17.235 49.3 20.87c0 3.6-2.65 6.121-5.718 6.121zm49.822-13.965h-.157c-.994-1.183-2.911-2.26-5.334-2.26-5.056 0-9.466 4.4-9.466 10.104 0 5.67 4.41 10.104 9.466 10.104 2.423 0 4.34-1.078 5.334-2.296h.157v1.409c0 3.86-2.074 5.93-5.404 5.93-2.72 0-4.41-1.947-5.108-3.6l-3.87 1.6c1.116 2.679 4.062 5.966 8.978 5.966 5.212 0 9.623-3.061 9.623-10.522V11.287h-4.219v1.74zm-5.108 13.965c-3.068 0-5.404-2.608-5.404-6.121 0-3.566 2.336-6.122 5.404-6.122 3.034 0 5.404 2.609 5.404 6.156.018 3.53-2.37 6.087-5.404 6.087zM66.243 10.765c-5.596 0-10.163 4.244-10.163 10.105 0 5.808 4.567 10.104 10.163 10.104s10.163-4.278 10.163-10.104c0-5.861-4.567-10.105-10.163-10.105zm0 16.226c-3.068 0-5.718-2.521-5.718-6.121 0-3.635 2.65-6.122 5.718-6.122s5.718 2.487 5.718 6.122c0 3.6-2.65 6.121-5.718 6.121zM101.108.417h4.376v30.557h-4.376zm17.886 26.574c-2.266 0-3.87-1.026-4.916-3.06l13.545-5.583-.453-1.148c-.837-2.26-3.417-6.435-8.664-6.435-5.213 0-9.553 4.087-9.553 10.105 0 5.67 4.288 10.104 10.04 10.104 4.638 0 7.322-2.835 8.438-4.47l-3.452-2.295c-1.15 1.67-2.719 2.782-4.985 2.782zm-.314-12.434c1.796 0 3.33.921 3.835 2.226l-9.152 3.774c0-4.244 3.016-6 5.317-6z" fill="#151515"/></svg>