<svg id="Layer_1" xmlns="http://www.w3.org/2000/svg" xmlns:xlink="http://www.w3.org/1999/xlink" viewBox="0 0 419.5 416"><style>.st0,.st1{fill-rule:evenodd;clip-rule:evenodd;fill:#000}.st2{clip-path:url(#SVGID_2_);fill:#5b5957}</style><path d="M153.4 261.5H147V193h6.4v68.5zm37.4-62.7v62.7h-6.4v-62.7h-19.7V193h45.9v5.8h-19.8zm56.7 62.7h-6.2l-25-68.5h7.1l19.4 54.8c.3 1 .7 2 .9 3.1.3 1 .5 2.1.6 3.2h.2c.2-.9.4-1.9.7-2.9.3-1.1.7-2.2 1.1-3.5l20.2-54.7h6.9l-25.9 68.5zm36.2 0V193h18c11.7 0 20.6 2.8 26.6 8.4 6 5.6 9 13.9 9 24.9 0 5.3-.8 10.1-2.5 14.4-1.7 4.3-4.1 8-7.2 11.1-3.2 3.1-7 5.4-11.5 7.1-4.5 1.7-9.6 2.5-15.2 2.5h-17.2zm6.4-62.7v56.9h10.5c4.7 0 8.9-.6 12.6-1.9 3.7-1.3 6.9-3.1 9.4-5.6 2.6-2.5 4.5-5.5 5.9-9.2 1.4-3.6 2-7.8 2-12.5 0-18.5-9.8-27.7-29.3-27.7h-11.1zM398 261.5l-38-55c-.5-.7-.9-1.4-1.4-2.2-.5-.7-.8-1.4-1.1-2.2h-.2c.1.6.1 1.4.2 2.4 0 1 .1 2.3.1 3.8v53.1H351v-68.5h7l37.4 54.3c.6.9 1.1 1.7 1.6 2.4s.9 1.4 1.3 2.1h.2c-.1-1.1-.2-2.2-.3-3.5-.1-1.3-.1-2.8-.1-4.3v-51h6.4v68.5H398zm-249.8 25H147v-13h1.2v13zm6.7-11.9v11.9h-1.2v-11.9H150v-1.1h8.7v1.1h-3.8zm14.6 11.9h-1.2l-4.7-13h1.4l3.7 10.4c.1.2.1.4.2.6.1.2.1.4.1.6 0-.2.1-.4.1-.6.1-.2.1-.4.2-.7l3.8-10.4h1.3l-4.9 13.1zm7.6 0h-1.2v-13h1.2v13zm2.9 0v-13h3.4c2.2 0 3.9.5 5 1.6s1.7 2.6 1.7 4.7c0 1-.2 1.9-.5 2.7-.3.8-.8 1.5-1.4 2.1-.6.6-1.3 1-2.2 1.4-.9.3-1.8.5-2.9.5H180zm1.2-11.9v10.8h2c.9 0 1.7-.1 2.4-.4.7-.2 1.3-.6 1.8-1.1.5-.5.9-1 1.1-1.7.3-.7.4-1.5.4-2.4 0-3.5-1.9-5.3-5.6-5.3h-2.1zm11.1 11.9v-13h6.3v1.1h-5.1v4.8h4.8v1.1h-4.8v4.9h5.4v1.1h-6.6zm14.2.3c-.9 0-1.8-.2-2.5-.5s-1.4-.8-1.9-1.4c-.5-.6-.9-1.3-1.2-2.1-.3-.8-.4-1.7-.4-2.6 0-1 .1-1.9.4-2.8.3-.8.7-1.6 1.2-2.2.5-.6 1.2-1.1 2-1.4.8-.3 1.7-.5 2.7-.5.9 0 1.7.2 2.5.5.7.3 1.4.8 1.9 1.4.5.6.9 1.3 1.2 2.1.3.8.4 1.7.4 2.6 0 1-.1 1.9-.4 2.7-.3.8-.7 1.6-1.2 2.2-.5.6-1.2 1.1-1.9 1.5-.9.3-1.8.5-2.8.5zm.1-12.4c-.8 0-1.5.1-2.1.4-.6.3-1.1.7-1.5 1.2-.4.5-.7 1.1-.9 1.8-.2.7-.3 1.4-.3 2.2 0 .7.1 1.4.3 2.1.2.7.5 1.3.9 1.8s.9.9 1.5 1.2c.6.3 1.3.5 2.1.5s1.5-.1 2.1-.4c.6-.3 1.1-.7 1.5-1.2.4-.5.7-1.1.9-1.8.2-.7.3-1.4.3-2.3 0-.8-.1-1.5-.3-2.2-.2-.7-.5-1.3-.9-1.8s-.9-.9-1.5-1.2c-.5-.1-1.2-.3-2.1-.3zm12.9 12.1v-13h3.4c2.2 0 3.9.5 5 1.6s1.7 2.6 1.7 4.7c0 1-.2 1.9-.5 2.7-.3.8-.8 1.5-1.4 2.1-.6.6-1.3 1-2.2 1.4-.9.3-1.8.5-2.9.5h-3.1zm1.2-11.9v10.8h2c.9 0 1.7-.1 2.4-.4.7-.2 1.3-.6 1.8-1.1.5-.5.9-1 1.1-1.7.3-.7.4-1.5.4-2.4 0-3.5-1.9-5.3-5.6-5.3h-2.1zm11.1 11.9v-13h6.3v1.1H233v4.8h4.8v1.1H233v4.9h5.4v1.1h-6.6zm13.4 0H244l-4.7-13h1.4l3.7 10.4c.1.2.1.4.2.6.1.2.1.4.1.6 0-.2.1-.4.1-.6.1-.2.1-.4.2-.7l3.8-10.4h1.3l-4.9 13.1zm6.5 0v-13h6.3v1.1h-5.1v4.8h4.8v1.1h-4.8v4.9h5.4v1.1h-6.6zm8.9 0v-13h1.2v11.9h5.2v1.1h-6.4zm12.8.3c-.9 0-1.8-.2-2.5-.5-.8-.3-1.4-.8-1.9-1.4-.5-.6-.9-1.3-1.2-2.1-.3-.8-.4-1.7-.4-2.6 0-1 .1-1.9.4-2.8.3-.8.7-1.6 1.2-2.2.5-.6 1.2-1.1 2-1.4.8-.3 1.7-.5 2.7-.5.9 0 1.7.2 2.5.5.7.3 1.4.8 1.9 1.4.5.6.9 1.3 1.2 2.1.3.8.4 1.7.4 2.6 0 1-.1 1.9-.4 2.7-.3.8-.7 1.6-1.2 2.2-.5.6-1.2 1.1-1.9 1.5-.9.3-1.8.5-2.8.5zm.1-12.4c-.8 0-1.5.1-2.1.4-.6.3-1.1.7-1.5 1.2-.4.5-.7 1.1-.9 1.8-.2.7-.3 1.4-.3 2.2 0 .7.1 1.4.3 2.1.2.7.5 1.3.9 1.8s.9.9 1.5 1.2c.6.3 1.3.5 2.1.5s1.5-.1 2.1-.4c.6-.3 1.1-.7 1.5-1.2.4-.5.7-1.1.9-1.8.2-.7.3-1.4.3-2.3 0-.8-.1-1.5-.3-2.2-.2-.7-.5-1.3-.9-1.8s-.9-.9-1.5-1.2c-.5-.1-1.2-.3-2.1-.3zm9.4 7.1v5.1h-1.2v-13h3.4c.7 0 1.3.1 1.8.3.5.2 1 .4 1.3.7.4.3.6.7.8 1.2.2.5.3 1 .3 1.6 0 .6-.1 1.2-.3 1.7-.2.5-.5 1-.9 1.3-.4.4-.9.7-1.4.9-.6.2-1.2.3-1.9.3h-1.9zm0-6.9v5.7h1.7c1.1 0 2-.3 2.6-.8.6-.5.9-1.3.9-2.2 0-1.8-1.1-2.8-3.2-2.8h-2zm8.6 11.9v-13h6.3v1.1h-5.1v4.8h4.8v1.1h-4.8v4.9h5.4v1.1h-6.6zm16 0l-2-3.7c-.2-.4-.4-.7-.6-.9l-.6-.6c-.2-.1-.4-.3-.6-.3-.2-.1-.5-.1-.7-.1h-1.4v5.7h-1.2v-13h3.7c.5 0 1 .1 1.4.2.5.1.9.4 1.2.6.4.3.6.6.9 1.1.2.4.3.9.3 1.5 0 .5-.1.9-.2 1.3s-.3.7-.6 1c-.3.3-.6.6-.9.8-.4.2-.8.4-1.2.5.2.1.3.2.5.3l.4.4c.1.2.3.4.4.6.1.2.3.5.4.7l2.2 4h-1.4zm-5.9-11.9v5.1h2.2c.4 0 .8-.1 1.2-.2.4-.1.7-.3.9-.5.3-.2.5-.5.6-.9s.2-.7.2-1.1c0-.8-.2-1.4-.7-1.8-.5-.4-1.2-.6-2.1-.6h-2.3zm8.6 10c.2.2.5.3.7.4.3.1.5.2.8.3.3.1.6.2.8.2.3 0 .5.1.8.1 1 0 1.7-.2 2.2-.6s.7-.9.7-1.6c0-.3-.1-.6-.2-.9-.1-.3-.3-.5-.5-.7-.2-.2-.5-.4-.9-.7-.4-.2-.8-.5-1.3-.7-.6-.3-1-.6-1.4-.9-.4-.3-.7-.5-1-.8-.3-.3-.4-.6-.6-.9-.1-.3-.2-.7-.2-1.1 0-.5.1-1 .3-1.4.2-.4.5-.8.9-1.1.4-.3.8-.5 1.3-.7.5-.2 1.1-.2 1.6-.2 1 0 1.9.1 2.6.4v1.3c-.8-.4-1.7-.7-2.7-.7-.4 0-.8 0-1.1.1-.3.1-.6.2-.9.4-.3.2-.5.4-.6.7-.1.3-.2.6-.2.9 0 .3 0 .6.1.9.1.2.3.5.5.7s.5.4.9.6c.4.2.8.5 1.3.7.5.3 1 .6 1.4.8.4.3.7.6 1 .9.3.3.5.6.6 1 .1.3.2.7.2 1.1 0 .6-.1 1.1-.3 1.5-.2.4-.5.8-.9 1.1-.4.3-.8.5-1.4.6-.5.1-1.1.2-1.7.2h-.7c-.3 0-.6-.1-.9-.1-.3-.1-.6-.1-.8-.2-.3-.1-.5-.2-.6-.3v-1.3zm23.2 1.9l-7.2-10.4c-.1-.1-.2-.3-.3-.4-.1-.1-.2-.3-.2-.4v11.3h-1.2v-13h1.3l7.1 10.3c.1.2.2.3.3.5.1.1.2.3.2.4 0-.2 0-.4-.1-.7v-10.5h1.2v13h-1.1zm4.1 0v-13h6.3v1.1h-5.1v4.8h4.8v1.1h-4.8v4.9h5.4v1.1h-6.6zm12.7-11.9v11.9H349v-11.9h-3.7v-1.1h8.7v1.1h-3.8zm17 11.9h-1.3l-2.8-9.6c-.1-.2-.1-.5-.2-.7 0-.2-.1-.4-.1-.6 0 .4-.1.8-.3 1.3l-2.9 9.7h-1.3l-3.8-13h1.3l2.9 10.2c.1.2.1.4.2.6 0 .2.1.4.1.6 0-.3.1-.7.3-1.2l3-10.2h1l2.9 10.2c.1.2.1.4.1.6 0 .2.1.4.1.6 0-.1 0-.3.1-.4 0-.2.1-.3.1-.5l2.9-10.5h1.3l-3.6 12.9zm10.6.3c-.9 0-1.8-.2-2.5-.5-.8-.3-1.4-.8-1.9-1.4-.5-.6-.9-1.3-1.2-2.1-.3-.8-.4-1.7-.4-2.6 0-1 .1-1.9.4-2.8.3-.8.7-1.6 1.2-2.2.5-.6 1.2-1.1 2-1.4.8-.3 1.7-.5 2.7-.5.9 0 1.7.2 2.5.5.7.3 1.4.8 1.9 1.4.5.6.9 1.3 1.2 2.1.3.8.4 1.7.4 2.6 0 1-.1 1.9-.4 2.7-.3.8-.7 1.6-1.2 2.2-.5.6-1.2 1.1-1.9 1.5-.9.3-1.8.5-2.8.5zm.1-12.4c-.8 0-1.5.1-2.1.4-.6.3-1.1.7-1.5 1.2-.4.5-.7 1.1-.9 1.8-.2.7-.3 1.4-.3 2.2 0 .7.1 1.4.3 2.1.2.7.5 1.3.9 1.8s.9.9 1.5 1.2c.6.3 1.3.5 2.1.5s1.5-.1 2.1-.4c.6-.3 1.1-.7 1.5-1.2.4-.5.7-1.1.9-1.8.2-.7.3-1.4.3-2.3 0-.8-.1-1.5-.3-2.2-.2-.7-.5-1.3-.9-1.8s-.9-.9-1.5-1.2c-.5-.1-1.2-.3-2.1-.3zm15.3 12.1l-2-3.7c-.2-.4-.4-.7-.6-.9l-.6-.6c-.2-.1-.4-.3-.6-.3-.2-.1-.5-.1-.7-.1h-1.4v5.7h-1.2v-13h3.7c.5 0 1 .1 1.4.2.5.1.9.4 1.2.6.4.3.6.6.9 1.1.2.4.3.9.3 1.5 0 .5-.1.9-.2 1.3s-.3.7-.6 1-.6.6-.9.8c-.4.2-.8.4-1.2.5.2.1.3.2.5.3l.4.4c.1.2.3.4.4.6.1.2.3.5.4.7l2.2 4h-1.4zm-5.8-11.9v5.1h2.2c.4 0 .8-.1 1.2-.2.4-.1.7-.3.9-.5.3-.2.5-.5.6-.9s.2-.7.2-1.1c0-.8-.2-1.4-.7-1.8-.5-.4-1.2-.6-2.1-.6h-2.3zm15.8 11.9l-5.3-6.1c-.1-.2-.2-.3-.3-.4v6.5h-1.2v-13h1.2v6.1c0-.1.1-.1.1-.2s.1-.1.2-.2l5.1-5.7h1.5l-5.6 6.3 6 6.7h-1.7z"/><path class="st0" d="M72 248.2l-45.8 46.4v-91.8L72 156.4z"/><path class="st1" d="M124.4 195.2l-45.9 46.5v-91.8l45.9-46.4z"/><defs><path id="SVGID_1_" d="M26.2 118.8h98.2v100.4H26.2z"/></defs><clipPath id="SVGID_2_"><use xlink:href="#SVGID_1_" overflow="visible"/></clipPath><path class="st2" d="M78.5 179.8v1.7c14.9-11.2 29.6-23.9 45.7-38l.2-.2v-1.8c-.4.3-.7.6-1.1 1-15.8 13.8-30.2 26.3-44.8 37.3m-52.3 32.4c16.7-7 31.5-15.8 45.9-26v-1.7c-14.4 10.3-29.2 19.1-45.9 26.2v1.5z"/><path class="st2" d="M26.2 209.7c16.7-7.1 31.5-16 45.9-26.5v-1.7c-14.4 10.6-29.2 19.6-45.9 26.7v1.5zm52.3-33v1.7c14.4-11.1 28.6-23.6 44.1-37.4.6-.5 1.2-1 1.7-1.6v-1.8c-.9.8-1.8 1.6-2.6 2.3-15.2 13.6-29.1 25.9-43.2 36.8"/><path class="st2" d="M26.2 207.3c16.8-7.2 31.6-16.4 45.9-27.2v-1.7c-14.3 10.9-29.1 20.2-45.9 27.4v1.5zm52.3-34v1.7c14.5-11.6 28.6-24.8 44.2-39.4.5-.5 1.1-1 1.6-1.5v-1.8c-.9.8-1.7 1.6-2.6 2.4-15.2 14.2-29.1 27.2-43.2 38.6m0-10.3c11.5-9.6 22.2-20 32.5-30.8.8-.9-.5-2.2-1.3-1.3-10 10.4-20.2 20.5-31.2 29.8v2.3zm-7.5 6.1c.4-.3.7-.6 1-.9v-2.3c-.3.2-.6.5-.9.8-9.6 7.6-19.8 14.4-30.1 21.1l-5.9 6C47.4 186 59.5 178 71 169.1m-5 0c2.1-1.6 4-3.3 6-5v-2.4c-1.9 1.7-3.9 3.4-5.9 5-4.5 3.6-9.3 6.8-14.1 10l-5.9 5.9c6.9-4.2 13.6-8.6 19.9-13.5m35.1-36.1c-7.3 7.9-14.7 15.7-22.6 22.9v2.5c8.4-7.6 16.2-15.8 23.9-24.1.8-.9-.5-2.2-1.3-1.3m13.1-4.3c3.4-.6 6.8-1.3 10.1-2.1v-2c-2.3.6-4.6 1.1-7 1.6-6 1.2-12 2-18.1 2.6l-2 2c5.8-.5 11.4-1.2 17-2.1m-.4-5.7c3.6-.6 7.1-1.4 10.6-2.2v-2c-2.5.6-4.9 1.2-7.5 1.7-3.7.7-7.5 1.3-11.2 1.8l-2.1 2.1c3.4-.4 6.8-.8 10.2-1.4m-35.3 65.1c15-9.7 29.6-21 45.9-34.6V152c-16.3 13.7-30.9 25-45.9 34.7v1.4zm0 10.8c15.5-7.5 30.3-16.3 45.9-27.2v-1.4c-15.6 10.9-30.4 19.8-45.9 27.3v1.3z"/><path class="st2" d="M78.5 197.6c14.9-7.6 29.7-16.8 45.9-28.3v-1.4c-16.2 11.6-30.9 20.7-45.9 28.4v1.3zm-52.3 21.5c16.6-5.1 31.6-10.6 45.9-17.1v-2.4c-4.7 2.2-9.4 4.4-14.2 6.4 4.8-2.1 9.5-4.3 14.2-6.7V198c-14 7.1-28.6 13-45.4 18.1 16.4-6.2 31.2-12.9 45.4-20.8V194c-1.7.9-3.3 1.9-5 2.8 1.7-.9 3.3-1.9 5-2.9v-1.3c-7.4 4.3-14.8 8.2-22.4 11.8 7.8-3.8 15.1-7.9 22.4-12.3v-1.3c-14.2 8.7-29 16-45.9 22.5v5.8z"/><path class="st2" d="M78.5 195.9c15.3-8.2 30-17.9 45.9-29.6V165c-15.9 11.8-30.6 21.5-45.9 29.7v1.2zm0-4.3c15.3-9 30.1-19.4 45.9-32.2V158c-15.8 12.8-30.6 23.3-45.9 32.4v1.2z"/><path class="st2" d="M78.5 190.1c14.7-9 29.5-19.8 45.9-33.3v-1.4c-16.4 13.5-31.2 24.3-45.9 33.4v1.3z"/></svg>