<svg width="101" height="40" viewBox="0 0 101 40" xmlns="http://www.w3.org/2000/svg"><title>yandex-2</title><path d="M44.402 15.088c-2.309 0-4.716 1.688-4.716 1.688v-1.085c0-.238-.095-.333-.332-.333h-2.947c-.238 0-.38.143-.38.333V38.83c0 .238.094.381.332.381h2.994c.19 0 .333-.143.333-.381V19.024s1.39-.883 3.078-.883c1.607 0 2.876.8 2.876 2.438v18.25c0 .239.142.381.38.381h2.946c.238 0 .333-.19.333-.381V19.542c0-2.905-1.783-4.454-4.897-4.454zM67.325 3.482h-2.947c-.238 0-.38.142-.38.333v11.673c-1.131-.435-2.161-.664-2.994-.664-4.786 0-8.071 4.583-8.071 13.396 0 7.55 3.196 11.6 7.367 11.6 1.758 0 3.21-1.01 4.272-1.956l.643 1.092c.109.19.198.254.416.254l1.695.002c.19 0 .332-.143.332-.382V3.815c0-.238-.096-.333-.333-.333zM56.83 27.44c0-4.856 1.419-9.665 4.316-9.665.981 0 1.924.324 2.853 1.063v17.108c-.726.396-1.64.76-2.626.76-3.151 0-4.543-3.743-4.543-9.266zm21.783-12.569c-4.907 0-7.33 6.431-7.33 13.43 0 7.325 3.455 11.431 7.897 11.431 1.952 0 3.896-.77 5.17-1.48.195-.108.23-.261.184-.45l-.373-1.548c-.046-.19-.141-.284-.377-.284-.104 0-1.714.472-3.28.472-3.635 0-5.302-3.237-5.302-7.536v-1.044s1.806.25 2.892.25h6.857v-1.986c0-7.33-2.562-11.255-6.338-11.255zm-.236 10.262c-1.085 0-3.06.269-3.06.269s.026-.79.12-1.546c.426-4.02 1.383-6.052 3.035-6.052 1.436 0 2.42 2.08 2.657 5.72.046.758.046 1.609.046 1.609h-2.798zM30.43 17.877c-1.09-2.151-3.031-3.091-5.254-3.091-1.429 0-3.658.547-5.147 1.218-.291.13-.475.246-.475.476 0 .136.068.293.142.428L20.7 19.06c.103.242.269.298.406.298.148 0 .269-.07.402-.156 1.452-.93 2.516-1.44 3.358-1.44 1.114 0 1.87.74 2.337 1.853.435 1.038.603 2.471.603 4.127v.487c-.914-.574-2.5-.89-3.291-.89-4.258 0-6.554 4.053-6.554 8.386 0 4.67 2.684 8.094 5.908 8.094 1.796 0 3.422-1.055 4.511-2.387 0 0 .58 1.385.656 1.55.076.166.156.228.374.228l1.724.002c.19 0 .332-.143.332-.382V25.408c0-3.3-.167-5.815-1.036-7.531zm-2.624 17.585c-.844.817-1.855 1.244-2.765 1.244-.91 0-1.613-.42-2.177-1.2-.686-.95-1.006-2.41-1.006-4.029 0-2.56.943-5.186 2.943-5.186.99 0 2.077.322 3.005 1.062v8.109zm72.708-20.107h-2.627a.508.508 0 0 0-.518.353c-.58 1.526-1.157 3.053-1.732 4.58-.325.867-1.199 3.349-1.199 3.349l-.102-.001c-.003-.009-.643-1.806-.99-2.705-.28-.73-1.744-4.591-1.929-5.067-.099-.256-.21-.51-.585-.51h-2.876c-.316 0-.494.348-.393.564.103.216 4.685 10.67 4.685 10.67s-4.92 11.707-5.065 11.97c-.144.262.037.651.387.651h2.52c.429 0 .598-.225.727-.587.362-1.017.901-2.43 1.665-4.615.506-1.447 1.306-3.988 1.306-3.988h.088s.876 2.59 1.203 3.436c.823 2.141 1.876 4.937 1.988 5.233.116.308.279.522.573.522h2.858c.283 0 .414-.324.28-.605-.317-.672-3.031-7.277-4.916-11.62 0 0 4.89-10.813 4.986-11.08.098-.268.07-.55-.334-.55zM20.937 0h-3.313c-.294 0-.477.144-.52.353-.041.21-4.967 15.257-5.325 16.51-.254.889-1.082 4.021-1.28 4.773l-1.714-4.685C8.37 15.66 4.38 4.495 4.262 4.049c-.064-.245-.177-.55-.606-.55H.422c-.317 0-.495.347-.393.563.081.172 5.923 15.742 8.284 21.69V38.83c0 .238.095.381.333.381h3.063c.19 0 .333-.143.333-.381V25.855C14.008 20.35 21.195.769 21.273.55c.096-.268.067-.55-.336-.55z" fill="#151515"/></svg>