<svg width="124" height="40" viewBox="0 0 124 40" xmlns="http://www.w3.org/2000/svg"><title>Logo_Black Copy 5</title><path d="M65.676 10.872H58.91v18.712h-2.773V10.872h-6.73V8.616h16.27zm10.207 17.233a4.955 4.955 0 0 1-1.923 1.479 6.878 6.878 0 0 1-2.7.48 6.36 6.36 0 0 1-2.07-.48 4.105 4.105 0 0 1-1.628-1.035 4.66 4.66 0 0 1-.998-1.776 8.468 8.468 0 0 1-.37-2.662V14.015h2.663v10.133c-.013.59.075 1.177.259 1.738.137.403.365.77.665 1.072.257.26.575.45.925.555.355.052.717.052 1.072 0a4.881 4.881 0 0 0 2.626-.629 3.698 3.698 0 0 0 1.442-1.664V14.015h2.662v15.569h-2.551l-.074-1.48zM90.194 16.42h-1.442a3.698 3.698 0 0 0-2.256.59 3.698 3.698 0 0 0-1.294 1.628v10.946h-2.663V14.015h2.515v1.812c.382-.615.9-1.134 1.516-1.516a4.105 4.105 0 0 1 2.219-.554h1.183l.222 2.662zm7.211-6.214v3.698h2.922v2.071h-2.922v9.911a2.737 2.737 0 0 0 0 .961c.076.213.203.404.37.555.16.132.35.221.555.259h1.886v1.923l-.814.185c-.406.04-.814.04-1.22 0a4.549 4.549 0 0 1-1.22-.185 2.81 2.81 0 0 1-1.147-.703 3.476 3.476 0 0 1-.776-1.294 5.843 5.843 0 0 1-.296-1.701v-9.8h-2.848v-2.07h2.848v-3.699l2.662-.11zm9.393 19.378h-2.662V7.396h2.662zm10.762.333a7.396 7.396 0 0 1-2.96-.555 6.62 6.62 0 0 1-2.255-1.553 6.915 6.915 0 0 1-1.405-2.404 8.764 8.764 0 0 1-.555-3.217v-.407a9.54 9.54 0 0 1 .555-3.291 7.655 7.655 0 0 1 1.516-2.515 6.62 6.62 0 0 1 2.182-1.7 6.25 6.25 0 0 1 2.552-.555 6.576 6.576 0 0 1 2.884.591 5.51 5.51 0 0 1 1.96 1.59c.54.73.93 1.56 1.146 2.441.255.99.38 2.01.37 3.032v1.184h-10.502c.017.693.142 1.379.37 2.034.202.596.515 1.148.924 1.627a4.4 4.4 0 0 0 1.442 1.11c.602.28 1.26.418 1.923.406a4.66 4.66 0 0 0 2.404-.592 6.028 6.028 0 0 0 1.701-1.516l1.627 1.257c-.27.4-.58.772-.924 1.11a6.25 6.25 0 0 1-1.258.961 6.582 6.582 0 0 1-1.627.666c-.674.19-1.37.29-2.07.296zm-.333-14.016a3.698 3.698 0 0 0-1.48.296c-.46.198-.875.488-1.22.85a4.658 4.658 0 0 0-.888 1.406 7.1 7.1 0 0 0-.48 1.923h7.84v-.185a7.396 7.396 0 0 0-.296-1.701 4.179 4.179 0 0 0-.666-1.368 3.328 3.328 0 0 0-1.146-.999c-.53-.2-1.1-.276-1.664-.222zM19.747 0C8.841 0 0 8.841 0 19.747s8.841 19.748 19.747 19.748 19.748-8.842 19.748-19.748C39.475 8.85 30.645.02 19.747 0zm5.843 14.274l3.698-3.18 7.1 1.516a18.083 18.083 0 0 1 1.332 5.621l-.999.777h-7.137l-3.994-4.734zm2.515 5.547l-3.994 4.475h-8.653l-4.031-4.475 3.957-5.029h8.653l4.068 5.03zm-3.957-6.508h-8.764l-2.737-2.219-1.072-.888 1.11-.961 2.625-2.219h8.8l3.699 3.143-3.661 3.144zm-12.536-1.036l2.292 1.96-3.882 4.734H2.626l-.888-.777c.144-1.92.593-3.805 1.331-5.584l7.064-1.516 1.479 1.183zm-8.875 8.32H9.91l4.03 4.475-3.698 3.44-7.396-2.108a18.046 18.046 0 0 1-1.109-5.03l.999-.776zm12.647 5.289h8.764l.222.222 3.698 3.365-3.698 3.18h-8.95l-3.808-3.069 3.772-3.698zm10.17-.888l4.03-4.4h7.396l1.035.776a18.046 18.046 0 0 1-1.109 4.993l-7.396 2.145-3.957-3.514zm9.836-14.422l-5.806-1.183-4.03-3.291 1.996-2.7a18.194 18.194 0 0 1 7.84 7.248v-.074zm-9.504-7.803l-1.997 2.59h-8.431l-.444-.556-1.553-2.034a17.972 17.972 0 0 1 6.286-1.183c2.1.033 4.178.433 6.139 1.183zm-13.941.666l1.886 2.44v.186l-2.404 2.034L9.91 9.393l-5.917 1.294a18.194 18.194 0 0 1 7.95-7.248zM3.957 28.55l6.028 1.738 4.03 3.328-1.886 2.588a18.194 18.194 0 0 1-8.172-7.654zm9.689 8.431l1.812-2.478h8.616l.444.592 1.368 1.886a17.972 17.972 0 0 1-6.139 1.146 17.972 17.972 0 0 1-6.101-1.146zm13.793-.629l-1.553-2.44-.333-.26 2.219-1.848 1.812-1.516 6.065-1.775a18.194 18.194 0 0 1-8.21 7.654v.185z" fill="#26252D"/></svg>