<svg width="1130" height="160" viewBox="0 0 1130 160" xmlns="http://www.w3.org/2000/svg"><title>logo_black_transparent copy 2</title><path d="M125.495 1h30.588c3.159 0 5.798.718 7.916 2.155 2.118 1.436 3.5 3.34 4.146 5.71l21.54 81.873a318.145 318.145 0 0 1 1.94 8.51 542.014 542.014 0 0 1 1.938 9.48c1.292-6.75 2.872-12.747 4.739-17.99L223.72 8.864c.646-2.01 2.028-3.824 4.146-5.44 2.118-1.616 4.685-2.424 7.7-2.424h10.77c3.16 0 5.71.736 7.648 2.208 1.938 1.473 3.41 3.358 4.416 5.656l25.202 81.874c1.867 5.027 3.446 10.737 4.739 17.129.574-3.16 1.166-6.177 1.777-9.05.61-2.872 1.238-5.566 1.885-8.08l21.54-81.873c.574-2.083 1.939-3.914 4.093-5.494C319.79 1.79 322.374 1 325.39 1h28.649l-48.466 156.96h-32.957l-29.51-97.279c-1.077-3.088-2.118-6.643-3.123-10.665-1.006 4.022-2.047 7.577-3.124 10.665l-29.941 97.28h-32.957L125.495 1zm373.726 156.96h-28.218c-3.16 0-5.708-.736-7.647-2.208-1.938-1.473-3.41-3.358-4.415-5.656l-9.263-27.363h-59.667l-9.262 27.363c-.79 2.011-2.208 3.824-4.254 5.44-2.047 1.616-4.578 2.424-7.593 2.424h-28.434L401.212 1h37.265l60.744 156.96zM398.412 97.956h42.865l-14.432-42.984c-1.077-2.73-2.225-5.943-3.446-9.642a294.95 294.95 0 0 1-3.662-12.011 250.648 250.648 0 0 1-3.5 12.173c-1.185 3.734-2.316 6.966-3.393 9.695l-14.432 42.769zm255.577-18.53c0 11.348-1.957 21.815-5.87 31.403-3.913 9.588-9.424 17.883-16.532 24.885-7.109 7.003-15.67 12.46-25.687 16.375-10.016 3.914-21.128 5.871-33.334 5.871h-60.96V1h60.96c12.206 0 23.318 1.975 33.334 5.925 10.016 3.95 18.578 9.408 25.687 16.375 7.108 6.966 12.619 15.243 16.532 24.831 3.913 9.588 5.87 20.02 5.87 31.295zm-37.265 0c0-7.756-1.005-14.759-3.016-21.007-2.01-6.248-4.9-11.545-8.67-15.89-3.77-4.345-8.383-7.684-13.84-10.018-5.456-2.335-11.667-3.502-18.632-3.502h-24.34v100.942h24.34c6.965 0 13.176-1.167 18.633-3.501 5.456-2.334 10.07-5.674 13.84-10.02 3.769-4.344 6.659-9.64 8.67-15.889 2.01-6.248 3.015-13.286 3.015-21.115zm95.208 49.448h58.16v29.086h-94.563V1h36.403v127.874zm113.303 29.086h-36.619V1h36.619v156.96zM874.778 1c1.58 0 2.908.072 3.985.215 1.077.144 2.046.413 2.908.808.861.395 1.687.952 2.477 1.67.79.718 1.687 1.688 2.692 2.909l74.53 94.262a198.644 198.644 0 0 1-.646-8.78 159.175 159.175 0 0 1-.216-8.025V1h32.096v156.96h-18.956c-2.8 0-5.152-.449-7.054-1.346-1.903-.898-3.788-2.46-5.655-4.687L886.948 58.42c.215 2.73.395 5.405.539 8.026.143 2.621.215 5.081.215 7.38v84.135h-32.095V1h19.17zm-816.985.134h38.459L49.8 150.96a10 10 0 0 1-9.55 7.04H2L47.636 8.219a10 10 0 0 1 9.566-7.085h.591zM1124 1v28.01h-64.406v36.627h49.328v26.932h-49.328v37.382H1124v28.01h-101.024V1H1124z" fill="#222" fill-rule="evenodd"/></svg>