<svg width="143" height="25" viewBox="0 0 143 25" fill="none" xmlns="http://www.w3.org/2000/svg"><path d="M17.695 0L9.788 7.719l7.907 7.722 7.906-7.722L17.695 0z" fill="#555"/><path d="M17.694 15.441l1.881 1.838 7.907-7.72-1.882-1.84-7.906 7.722z" fill="#999"/><path d="M0 17.279L7.906 25l9.79-9.558-7.908-7.723L0 17.28zm19.575 0L27.483 25l7.904-7.721-7.904-7.72-7.909 7.72z" fill="#000"/><path d="M37.27 0l-9.787 9.559 7.905 7.72 9.788-9.56L37.27 0z" fill="#555"/><path d="M95.646 9.246a3.224 3.224 0 0 0-.698-.688 3.96 3.96 0 0 0-1.032-.518 5.513 5.513 0 0 0-1.362-.284 23.386 23.386 0 0 0-2.276-.1c-.727 0-1.47.016-2.236.045-.763.028-1.416.046-1.945.046-.51 0-1.185-.011-2.018-.032 0 .793-.012 1.86-.037 3.201a156.276 156.276 0 0 1-.121 3.827 81.73 81.73 0 0 1-.192 3.186 92.428 92.428 0 0 1-.3 3.091c1.005-.015 1.7-.021 2.09-.021.33 0 1.051.007 2.162.021.02-1.846.065-3.728.133-5.644.063-1.918.14-3.542.229-4.87.333-.008.622-.02.87-.029.252-.01.492-.014.727-.014a5.444 5.444 0 0 1 1.52.158c.289.074.544.24.725.472.154.216.233.473.228.735a1.662 1.662 0 0 1-.303.944c-.218.31-.534.544-.9.666a3.87 3.87 0 0 1-1.321.214 6.153 6.153 0 0 1-1.06-.098l1.03 2.76c.312.83.548 1.476.707 1.94.083.206.178.5.29.887l.581 1.88c1.092-.016 1.877-.023 2.355-.022.379 0 1.12.006 2.216.021a24.63 24.63 0 0 0-.32-.733l-1.337-2.854a43.47 43.47 0 0 1-.47-1.054l-.522-1.237a8.133 8.133 0 0 0 1.555-.747 3.43 3.43 0 0 0 .916-.866c.24-.325.42-.687.535-1.071.115-.4.173-.812.17-1.226a3.783 3.783 0 0 0-.153-1.095 2.892 2.892 0 0 0-.436-.89M77.43 7.715c-.035 0-.068.52-.11 1.553-.048 1.07-.111 2.248-.2 3.53-.099 1.509-.177 2.477-.24 2.904a4.26 4.26 0 0 1-.238 1.02 2.75 2.75 0 0 1-.37.696c-.112.154-.246.29-.4.405a1.99 1.99 0 0 1-.588.29c-.29.087-.592.13-.896.13a3.289 3.289 0 0 1-1.073-.177 1.75 1.75 0 0 1-.805-.52 1.905 1.905 0 0 1-.397-.845 5.71 5.71 0 0 1-.11-1.238c0-.259.014-.732.044-1.411.028-.683.076-1.416.133-2.194l.3-4.143c-.887.014-1.596.02-2.125.02-.427 0-1.16-.006-2.196-.02l-.18 3.85a73.76 73.76 0 0 1-.11 1.804l-.132 1.558a60.166 60.166 0 0 0-.088 1.364c-.015.312-.02.547-.02.703a4.49 4.49 0 0 0 .18 1.297c.091.328.24.64.439.919.22.293.49.547.796.754.415.288.865.523 1.341.698a8.424 8.424 0 0 0 1.728.453c.712.106 1.431.159 2.151.158.827 0 1.653-.07 2.468-.205a7.461 7.461 0 0 0 2.176-.697 4.508 4.508 0 0 0 1.455-1.104c.341-.428.585-.922.715-1.45a14.18 14.18 0 0 0 .257-2.86c0-.084.003-.192.01-.322l.485-6.92h-4.4zm-17.804 5.546c0 .424-.007.756-.02.998-.013.244-.025.433-.027.563l-.073 1.196 1.06-.009c.082 0 .338.01.771.03l-.112 2.116a8.25 8.25 0 0 1-1.946.254A4.52 4.52 0 0 1 57.34 18a2.62 2.62 0 0 1-1.266-1.197 3.868 3.868 0 0 1-.401-1.789 5.052 5.052 0 0 1 .351-1.87 4.034 4.034 0 0 1 1.053-1.525 4.487 4.487 0 0 1 1.68-.946 6.986 6.986 0 0 1 2.08-.305 13.158 13.158 0 0 1 2.08.198c.395.068.744.144 1.04.224.294.082.68.202 1.161.356a43.415 43.415 0 0 1-.13-3.169 25.736 25.736 0 0 0-4.841-.512c-1.995 0-3.625.33-4.888.988a7.133 7.133 0 0 0-2.9 2.683 7.08 7.08 0 0 0-1.009 3.675c0 .788.127 1.57.376 2.32a5.794 5.794 0 0 0 1.064 1.938 4.902 4.902 0 0 0 1.72 1.3c.743.333 1.53.566 2.34.692.881.142 1.773.213 2.667.213.553 0 1.18-.023 1.885-.075a32.8 32.8 0 0 0 1.813-.167 32.187 32.187 0 0 0 1.9-.295c.02-.831.076-2.062.166-3.693.089-1.632.177-2.889.265-3.783a196.933 196.933 0 0 1-5.92 0m46.71-5.535l-2.466.01c-2.514 0-4.717-.007-6.606-.02a70.234 70.234 0 0 1-.061 1.9l-.047 1.08 4.251-.105c-.069 3.796-.269 7.272-.6 10.43 1.245-.015 2.01-.022 2.297-.022.319 0 1.026.007 2.114.021 0-.811.021-1.873.063-3.186.038-1.315.094-2.67.169-4.063a95.3 95.3 0 0 1 .23-3.18h.698c.923 0 2.097.036 3.522.106a45.966 45.966 0 0 1 .068-2.026l.062-.956-1.299.011h-2.395zm15.284 4.054l-1.458-4.066c-.8.015-1.665.022-2.606.022-.141 0-.305 0-.492-.003-.519-.003-1.21-.009-2.073-.019a73.139 73.139 0 0 1-.667 1.347l-.548 1.064-5.161 9.491-.829 1.404c1.124-.015 1.939-.021 2.445-.021.281 0 1.037.006 2.271.02a98.87 98.87 0 0 1 1.802-3.778h5.031c.553 1.447.975 2.706 1.268 3.779a197.86 197.86 0 0 1 2.465-.021c.246 0 .945.007 2.095.02l-.578-1.425-2.965-7.814zm-4.556 2.622h-1.551l.718-1.44c.235-.478.516-1.054.833-1.735.091-.196.188-.401.285-.613.07.232.492 1.495 1.267 3.788h-1.552zm20.286-6.687c-.167.6-.296 1.043-.395 1.33-.095.291-.323.902-.683 1.838-.36.934-.659 1.769-.897 2.504a77.458 77.458 0 0 0-.799 2.631 96.92 96.92 0 0 0-.643-3.151 53.784 53.784 0 0 0-.568-2.183 29.759 29.759 0 0 1-.446-1.698c-.06-.29-.134-.713-.221-1.271-1.19.014-2.078.02-2.654.02-.7 0-1.66-.006-2.888-.02l-.311 4.5-.615 6.835-.249 1.97c.853-.014 1.451-.021 1.796-.022.255 0 .839.008 1.758.022l.031-1.246.328-5.539.25-2.7c.072.409.127.695.157.858.035.163.066.3.093.409l.72 2.859 1.225 5.359c.851-.014 1.486-.022 1.897-.022.325 0 .921.008 1.786.022l1.877-5.536 1.308-3.967c.01.473.016.843.016 1.111 0 .61-.036 2.017-.118 4.217-.079 2.198-.145 3.59-.199 4.175.747-.014 1.375-.021 1.887-.021.353 0 .969.007 1.849.021a59.33 59.33 0 0 1-.02-1.31c0-1.151.043-3.269.129-6.352.04-1.57.124-3.452.249-5.643a208.822 208.822 0 0 1-5.65 0" fill="#000"/></svg>