<svg xmlns="http://www.w3.org/2000/svg" viewBox="0 0 250 74.8"><path d="M54.5 74v-1.7c1.1.4 2 .7 2.7.7.5 0 .9-.1 1.2-.4.3-.2.5-.6.5-1 0-.3-.1-.6-.3-.8-.2-.2-.6-.5-1.1-.8l-.7-.4c-.9-.5-1.5-1-1.9-1.4s-.5-1-.5-1.6c0-.8.3-1.5.9-1.9.6-.5 1.4-.7 2.4-.7.8 0 1.7.1 2.6.3V66c-1-.4-1.8-.6-2.4-.6-.4 0-.8.1-1.1.3s-.4.5-.4.8.1.5.3.7c.2.2.5.5 1.1.7l.7.4c.9.5 1.6 1 2 1.5s.5 1 .5 1.6c0 .9-.3 1.6-1 2.1s-1.6.8-2.8.8c-.7 0-1.6-.1-2.7-.3zm8.6.1v-9.8h3.4c1.2 0 2 .2 2.6.6.5.4.8 1.1.8 2 0 1.1-.3 1.9-1 2.5s-1.6.9-2.9.9h-.8v3.8h-2.1zm2-5.2h.4c.7 0 1.2-.2 1.7-.5.4-.3.6-.8.6-1.3 0-1-.6-1.5-1.9-1.5h-.8v3.3zm6.6 5.2v-9.8h6.1v1.3h-4.1v2.7h3.4v1.3h-3.4v3h4.4V74l-6.4.1zm16.3-.4c-.9.4-2.1.6-3.4.6-1.6 0-2.9-.5-3.8-1.4s-1.3-2.2-1.3-3.8c0-1.7.5-2.9 1.4-3.8s2.2-1.3 3.9-1.3c1.1 0 2.1.1 3.2.4V66c-1.2-.4-2.2-.6-3-.6-1 0-1.8.3-2.4 1s-.8 1.6-.8 2.8c0 1.2.3 2.1.9 2.8s1.4 1 2.5 1c1 0 1.9-.2 2.9-.7l-.1 1.4zm2 .4v-9.8h2v9.8h-2zm3.7 0l3.8-9.8h2l3.8 9.8h-2.1l-1-2.6h-4.1l-1 2.6h-1.4zm3-3.9h3l-1.5-3.9-1.5 3.9zm8.4 3.9v-9.8h2v8.4h4.4v1.4h-6.4zm12.9 0v-9.8h2v9.8h-2zm4.7 0v-9.8h1.8L129 71v-6.7h1.6v9.8h-1.8l-4.5-6.7v6.7h-1.6zm13.1 0v-8.5h-3.5v-1.3h9.1v1.3h-3.5v8.5h-2.1zm7.2 0v-9.8h6.1v1.3H145v2.7h3.4v1.3H145v3h4.4V74l-6.4.1zm8.5 0v-9.8h3.7c2 0 3 .8 3 2.4 0 .6-.2 1.2-.5 1.7s-.8.9-1.4 1.1l3.2 4.6H157l-2.4-4h-1.1v4h-2zm1.9-5.4h.5c1.5 0 2.2-.6 2.2-1.8 0-.9-.7-1.3-2-1.3h-.7v3.1zm7.7 5.4v-9.8h6.1v1.3h-4.1v2.7h3.4v1.3h-3.4v3h4.4V74l-6.4.1zm7.8-.1v-1.7c1.1.4 2 .7 2.7.7.5 0 .9-.1 1.2-.4.3-.2.5-.6.5-1 0-.3-.1-.6-.3-.8-.2-.2-.6-.5-1.1-.8l-.7-.4c-.9-.5-1.5-1-1.9-1.4-.4-.5-.5-1-.5-1.6 0-.8.3-1.5.9-1.9.6-.5 1.4-.7 2.4-.7.8 0 1.7.1 2.6.3V66c-1-.4-1.8-.6-2.4-.6-.4 0-.8.1-1.1.3s-.4.5-.4.8.1.5.3.7.5.5 1.1.7l.7.4c.9.5 1.6 1 2 1.5.4.4.5 1 .5 1.6 0 .9-.3 1.6-1 2.1s-1.6.8-2.8.8c-.7 0-1.6-.1-2.7-.3zm11 .1v-8.5h-3.5v-1.3h9.1v1.3H182v8.5h-2.1zm19.8-.2c-1.2.3-2.3.5-3.2.5-1.7 0-3-.4-3.9-1.3s-1.4-2.2-1.4-3.8c0-1.6.5-2.9 1.4-3.8s2.2-1.3 3.9-1.3c1.1 0 2.1.1 3.2.4V66c-1.2-.4-2.2-.6-3-.6-1 0-1.8.3-2.4 1s-.8 1.6-.8 2.8c0 1.2.3 2.1.9 2.8s1.4 1 2.5 1c.2 0 .5 0 .8-.1v-3.2h2v4.2zm2.6.2v-9.8h3.7c2 0 3 .8 3 2.4 0 .6-.2 1.2-.5 1.7s-.8.9-1.4 1.1l3.2 4.6h-2.5l-2.4-4h-1.1v4h-2zm1.9-5.4h.5c1.5 0 2.2-.6 2.2-1.8 0-.9-.7-1.3-2-1.3h-.7v3.1zm12 5.6c-1.5 0-2.7-.5-3.6-1.4-.9-.9-1.3-2.2-1.3-3.7 0-1.6.4-2.8 1.3-3.8.9-.9 2.1-1.4 3.6-1.4s2.7.5 3.6 1.4c.9.9 1.3 2.2 1.3 3.7 0 1.6-.4 2.9-1.3 3.8-.8 1-2.1 1.4-3.6 1.4zm0-1.3c.9 0 1.6-.3 2.1-1s.8-1.6.8-2.8c0-1.1-.3-2.1-.8-2.7-.5-.7-1.2-1-2-1-.9 0-1.5.3-2 1s-.8 1.6-.8 2.8c0 1.1.3 2.1.8 2.8.4.5 1.1.9 1.9.9zm7-8.7h2v6c0 .9.2 1.6.5 2.1.3.4.8.6 1.5.6s1.1-.2 1.4-.6c.3-.4.4-1 .4-1.9v-6.2h1.8v6c0 .9-.1 1.6-.3 2.1s-.5.9-.9 1.2c-.6.5-1.5.7-2.5.7-1.1 0-2-.3-2.7-.8-.5-.4-.8-.8-1-1.3s-.3-1.2-.3-2l.1-5.9zm10.4 9.8v-9.8h3.4c1.2 0 2 .2 2.6.6.5.4.8 1.1.8 2 0 1.1-.3 1.9-1 2.5s-1.6.9-2.9.9h-.8v3.8h-2.1zm2-5.2h.4c.7 0 1.2-.2 1.7-.5.4-.3.6-.8.6-1.3 0-1-.6-1.5-1.9-1.5h-.8v3.3zM61.3 34.7h2.4c4.4 0 6 2.2 6 6.6 0 4.3-1.4 6.6-5.3 6.6h-3.1V34.7zm0-17.5h2.8c3.3 0 4.8 2.1 4.8 6 0 3.5-2.1 5.4-4.9 5.4h-2.7V17.2zM54 53.8h11.6c8.3 0 11.5-5.3 11.5-12.4 0-5.5-2.2-8.5-5.9-10.1 3.5-1.4 5.1-5.3 5.1-8.9 0-7.3-3.5-11.3-11.4-11.3H54v42.7zm32.6 0V11.1H80v42.7zM104.3 22v25c-1.5 1.1-2.8 2-4.3 2s-2.4-.7-2.4-2.3V22H91v25.7c0 4.1 2.1 6.7 5.6 6.7 3.8 0 5.3-1.4 8-3.8v3.2h6.3V22h-6.6zm17.3 11.7V32c0-3.7 1.3-5.2 3.7-5.2s3.7 1.5 3.7 5.2v1.7h-7.4zm14-.5c0-7-2.7-11.8-10.3-11.8S115 26.2 115 33.2v9.3c0 7 2.7 11.8 10.3 11.8 7.4 0 10.2-4.6 10.3-11.4H129v.7c0 3.7-1.3 5.2-3.7 5.2s-3.7-1.5-3.7-5.2V39h14v-5.8zm5.8-5.7v19.8c0 4.9 2.8 7.2 7.7 7.2 1.7 0 2.4-.1 3.3-.4v-5.7h-2.2c-1.5 0-2.2-.9-2.2-2.6V27.5h4.4V22H148v-8.6h-6.6V22h-3.7v5.4l3.7.1zm27.8 16.3c0 3.7-1.3 5.2-3.7 5.2s-3.7-1.5-3.7-5.2V32.1c0-3.7 1.3-5.2 3.7-5.2s3.7 1.5 3.7 5.2v11.7zm-14-1.2c0 7 2.7 11.8 10.3 11.8s10.3-4.8 10.3-11.8v-9.3c0-7-2.7-11.8-10.3-11.8s-10.3 4.8-10.3 11.8v9.3zm38 1.2c0 3.7-1.3 5.2-3.7 5.2s-3.7-1.5-3.7-5.2V32.1c0-3.7 1.3-5.2 3.7-5.2s3.7 1.5 3.7 5.2v11.7zm-13.9-1.2c0 7 2.7 11.8 10.3 11.8s10.3-4.8 10.3-11.8v-9.3c0-7-2.7-11.8-10.3-11.8s-10.3 4.8-10.3 11.8v9.3zm26.2-15.1v19.8c0 4.9 2.8 7.2 7.7 7.2 1.7 0 2.4-.1 3.3-.4v-5.7h-2.2c-1.5 0-2.2-.9-2.2-2.6V27.5h4.4V22h-4.4v-8.6h-6.6V22h-3.7v5.4l3.7.1zm21.8 26.3v-25c1.5-1.1 2.8-2 4.3-2 1.4 0 2.4.7 2.4 2.3v24.7h6.6V28.1c0-4.1-2.1-6.7-5.6-6.7-3.8 0-5.3 1.4-7.7 3.5V11.1h-6.6v42.7h6.6zM24.2 16.3l4.9 4.9-4.9 4.8v-9.7zm0 29.9l4.9-4.9-4.9-4.9v9.8zm-5.2-15L8.4 20.6l3.1-3.1 8.4 8.4V5.8l15.3 15.3-10.1 10.1 10.1 10.1-15.3 15.4V36.5l-8.4 8.4-3.1-3.1L19 31.2zm2.8 29.6c12.9 0 21.8-6.1 21.8-29.6 0-23.4-8.9-29.6-21.8-29.6C8.9 1.7 0 7.8 0 31.2c0 23.5 8.9 29.6 21.8 29.6zM250 15.7c0 2.5-2.2 4.7-4.7 4.7-2.6 0-4.7-2-4.7-4.7 0-2.6 2.1-4.7 4.7-4.7 2.7 0 4.7 2.1 4.7 4.7zm-8.3 0c0 2 1.6 3.7 3.6 3.7s3.6-1.6 3.6-3.6-1.6-3.7-3.6-3.7c-2-.1-3.6 1.6-3.6 3.6zm4.5 2.5l-1.4-2.3h-.1v2.3h-.9v-5.1h1.6c1.2 0 1.7.5 1.7 1.3 0 .9-.5 1.4-1.4 1.5.1.1.3.4.5.7l1.1 1.6h-1.1zm-.9-4.4h-.6v1.6h.4c.8 0 1.1-.5 1.1-.9-.1-.5-.3-.7-.9-.7z"/></svg>