<svg id="Layer_1" xmlns="http://www.w3.org/2000/svg" viewBox="0 0 150.2 48"><style>.st0,.st1,.st2{fill:#000}</style><path class="st0" d="M107.2 37h6"/><path class="st1" d="M107 7c.5 0 1.1-.4 1.1-1l.6-5c.1-.5-.3-1-.9-1h-4c-.5 0-1.1.4-1.1 1l-.6 5c-.1.5.3 1 .9 1h4z"/><path class="st2" d="M18.3 21.1c0 1-.2 1.8-.6 2.6-.4.8-1 1.5-2 2.1-.9.6-2.2 1.1-3.8 1.6-1.6.4-3.6.8-5.9 1 0 1.4.3 2.5.9 3.1s1.5 1 2.6 1c.6 0 1 0 1.4-.1.4-.1.8-.2 1.1-.4.3-.1.6-.3.8-.5s.5-.3.7-.5c.2-.1.5-.3.7-.4.2-.1.5-.1.8-.1.2 0 .4.1.6.2.2.1.4.2.5.4l1.6 1.9c-.7.7-1.5 1.4-2.2 1.9-.7.5-1.4 1-2.2 1.3-.7.3-1.5.6-2.4.8-.8.2-1.8.2-2.7.2-1.2 0-2.4-.2-3.4-.6-1-.4-1.9-1-2.7-1.8S1 33 .6 31.9c-.4-1.1-.6-2.3-.6-3.6 0-1.1.1-2.2.4-3.3.2-1 .6-2 1-3 .5-.9 1-1.8 1.7-2.6s1.4-1.5 2.3-2c.8-.6 1.8-1 2.8-1.3 1-.3 2.1-.5 3.2-.5s2.1.2 3 .5c.9.3 1.6.7 2.2 1.3.6.5 1 1.1 1.3 1.7.3.7.4 1.3.4 2zM11 19.8c-1 0-1.9.4-2.7 1.2-.8.8-1.4 2-1.8 3.4 1.3-.2 2.4-.4 3.2-.6.8-.2 1.4-.5 1.9-.7.4-.3.7-.5.9-.8.2-.3.2-.6.2-1 0-.3-.1-.7-.4-1-.3-.3-.7-.5-1.3-.5zM19.3 37l2.6-21h3.2c.6 0 1.2.2 1.5.5.4.3.5.8.5 1.5v1.2c.9-1.2 1.8-2.1 2.8-2.6 1-.6 2-.9 3.1-.9 1.2 0 2.2.4 3 1.2.8.8 1.3 1.9 1.5 3.4.9-1.6 2-2.7 3.1-3.4s2.4-1.1 3.7-1.1c.8 0 1.5.1 2.1.4.6.3 1.2.7 1.6 1.2.5.5.8 1.2 1.1 2 .2.8.4 1.7.4 2.7v.8c0 .3 0 .6-.1.8L47.9 37h-6.2l1.6-13.3c0-.2 0-.4.1-.6v-.5c0-.7-.1-1.2-.3-1.4-.2-.3-.5-.4-1-.4-.4 0-.8.1-1.2.3-.4.2-.7.5-1.1 1-.3.4-.7.9-.9 1.5-.3.6-.5 1.3-.7 2L36.7 37h-6.2l1.6-13.3c0-.2 0-.4.1-.6v-.5c0-.7-.1-1.2-.3-1.4-.2-.3-.5-.4-1-.4-.4 0-.8.1-1.2.3-.4.2-.8.6-1.1 1-.3.4-.7 1-.9 1.6-.3.6-.5 1.3-.7 2.1L25.5 37h-6.2zm50.6-15.9c0 1-.2 1.8-.6 2.6-.4.8-1 1.5-2 2.1-.9.6-2.2 1.1-3.8 1.6-1.6.4-3.6.8-5.9 1 0 1.4.3 2.5.9 3.1s1.5 1 2.6 1c.6 0 1 0 1.4-.1.4-.1.8-.2 1.1-.4.3-.1.6-.3.8-.5s.5-.3.7-.5c.2-.1.5-.3.7-.4.2-.1.5-.1.8-.1.2 0 .4.1.6.2s.4.2.5.4l1.6 1.9c-.7.7-1.5 1.4-2.2 1.9-.7.5-1.4 1-2.2 1.3-.7.3-1.5.6-2.4.8-.6 0-1.5.1-2.5.1-1.2 0-2.4-.2-3.4-.6-1-.4-1.9-1-2.7-1.8s-1.3-1.7-1.7-2.8c-.4-1.1-.6-2.3-.6-3.6 0-1.1.1-2.2.4-3.3.2-1.1.6-2.1 1.1-3 .5-.9 1-1.8 1.7-2.6s1.4-1.5 2.3-2c.8-.6 1.8-1 2.8-1.3 1-.3 2.1-.5 3.2-.5s2.1.2 3 .5c.9.3 1.6.7 2.2 1.3.6.5 1 1.1 1.3 1.7.1.7.3 1.3.3 2zm-7.3-1.3c-1 0-1.9.4-2.7 1.2-.8.8-1.4 2-1.8 3.4 1.3-.2 2.4-.4 3.2-.6.8-.2 1.4-.5 1.9-.7.4-.3.7-.5.9-.8.2-.3.2-.6.2-1 0-.3-.1-.7-.4-1-.3-.3-.7-.5-1.3-.5zM71.3 37l2.6-21h3.2c.6 0 1.2.2 1.5.5.4.3.5.8.5 1.5v2.4c.8-1.4 1.7-2.5 2.6-3.3.9-.8 1.9-1.2 2.9-1.2.6 0 1.1.1 1.7.4l-1.1 5.8c-.7-.3-1.3-.4-2-.4-1 0-2 .5-2.8 1.4-.8.9-1.5 2.4-2 4.5l-.9 9.4h-6.2zm50.4 0l1.6-13.3c0-.2 0-.4.1-.6v-.5c0-.7-.1-1.2-.4-1.5-.2-.3-.6-.4-1.1-.4-.5 0-.9.1-1.4.4-.5.3-1 .7-1.4 1.2-.5.5-.9 1.1-1.2 1.9-.4.7-.7 1.5-.9 2.4L115.7 37h-6.3l2.5-21h3.2c.6 0 1.2.2 1.5.5.4.3.5.8.5 1.5v1.7c1-1.4 2.1-2.3 3.3-3 1.2-.6 2.4-1 3.7-1 .8 0 1.5.1 2.2.4.7.3 1.2.7 1.7 1.2s.8 1.2 1.1 2c.3.8.4 1.7.4 2.8v.7c0 .3 0 .5-.1.8L127.9 37h-6.2zm28.5-15.9c0 1-.2 1.8-.6 2.6-.4.8-1 1.5-2 2.1-.9.6-2.2 1.1-3.8 1.6-1.6.4-3.6.8-5.9 1 0 1.4.3 2.5.9 3.1.6.7 1.5 1 2.6 1 .6 0 1 0 1.4-.1.4-.1.8-.2 1.1-.4.3-.1.6-.3.8-.5s.5-.3.7-.5c.2-.1.5-.3.7-.4.2-.1.5-.1.8-.1.2 0 .4.1.6.2s.4.2.5.4l1.6 1.9c-.7.7-1.5 1.4-2.2 1.9-.7.5-1.4 1-2.2 1.3-.7.3-1.5.6-2.4.8-.8.2-1.8.2-2.7.2-1.2 0-2.4-.2-3.4-.6-1-.4-1.9-1-2.7-1.8s-1.3-1.7-1.7-2.8c-.4-1.1-.6-2.3-.6-3.6 0-1.1.1-2.2.4-3.3.2-1.1.6-2.1 1.1-3 .5-.9 1-1.8 1.7-2.6s1.4-1.5 2.3-2c.8-.6 1.8-1 2.8-1.3 1-.3 2.1-.5 3.2-.5s2.1.2 3 .5c.9.3 1.6.7 2.2 1.3.6.5 1 1.1 1.3 1.7.4.6.5 1.2.5 1.9zm-7.3-1.3c-1 0-1.9.4-2.7 1.2-.8.8-1.4 2-1.8 3.4 1.3-.2 2.4-.4 3.2-.6.8-.2 1.4-.5 1.9-.7.4-.3.7-.5.9-.8.2-.3.2-.6.2-1 0-.3-.1-.7-.4-1-.3-.3-.7-.5-1.3-.5z"/><path class="st1" d="M101.5 11L97 48h6.1l4.5-37zM86.2 48l5.9-48h6.2l-5.9 48h-6.2z"/></svg>