<svg width="48" height="48" viewBox="0 0 48 48" xmlns="http://www.w3.org/2000/svg"><title>Page 1</title><g fill="#151515" fill-rule="evenodd"><path d="M32.014 22.53c-.058-.273-.17-.449-.338-.528-.166-.079-.438-.079-.814.002-.437.093-.72.248-.85.464-.129.217-.145.587-.048 1.109l1.723-.366c.3-.064.41-.291.327-.68"/><path d="M37.177 20.854c-.355.076-.877.344-1.566.805l.755 3.548-1.25.266-1.07-5.025.975-.207.27.714c.593-.74 1.22-1.181 1.884-1.322l.246-.053.115 1.198-.359.076zm-5.369 5.45c-.909.193-1.597.13-2.066-.193-.469-.322-.805-.962-1.009-1.919-.208-.977-.165-1.703.128-2.176.292-.472.873-.802 1.74-.986.8-.17 1.412-.148 1.837.065.424.214.697.611.82 1.192.204.957-.142 1.531-1.037 1.721l-2.051.436c.14.428.326.694.555.799.23.105.57.11 1.022.013.512-.11 1.104-.278 1.778-.507l.283.776c-.424.326-1.09.586-2 .779zm-4.827.587c-.033.214-.152.343-.357.387l-1.087.23c-.219.047-.377-.023-.474-.21l-2.727-4.361 1.312-.279 1.75 3.09c.263.494.407.768.432.82l.133-.03.081-.927.332-3.533 1.323-.28-.718 5.093zm-4.589 1.404c-.417.089-.773.039-1.066-.149-.294-.187-.487-.5-.58-.938l-1.258-5.917 1.252-.266 1.192 5.61c.035.2.113.337.232.411.12.075.282.09.487.047l.43-.092.34.893c-.207.165-.55.299-1.029.4zm-4.064.746l-1.069-5.025 1.241-.264 1.069 5.025-1.241.264zm-1.367-6.28l-.12-.564c-.05-.239.043-.384.283-.435l.574-.122c.239-.051.384.043.435.282l.12.565c.051.239-.043.384-.283.434l-.574.123c-.24.05-.385-.044-.435-.283zm-.335 6.443c-.292.273-.852.498-1.679.673a12.97 12.97 0 0 1-2.137.283l-.103-.89c.36-.047.935-.155 1.72-.322.54-.115.895-.222 1.063-.322.168-.1.231-.25.19-.447a.577.577 0 0 0-.035-.111.408.408 0 0 0-.05-.086.607.607 0 0 0-.057-.063.227.227 0 0 0-.085-.046 1.178 1.178 0 0 0-.091-.03.968.968 0 0 0-.117-.017 4.884 4.884 0 0 0-.267-.024 3.504 3.504 0 0 0-.152-.01l-1.4-.078c-.464-.03-.807-.14-1.029-.328-.222-.189-.377-.488-.464-.898-.115-.54-.04-.946.224-1.216s.772-.486 1.524-.645a15.674 15.674 0 0 1 2.265-.289l.09.881c-.853.153-1.495.275-1.927.367-.45.096-.737.18-.857.252-.12.072-.16.207-.118.405a.602.602 0 0 0 .045.13l.047.097a.153.153 0 0 0 .073.066.934.934 0 0 1 .079.042c.016.01.054.02.112.029.06.009.1.015.122.017.022.002.073.006.153.01.079.005.137.007.172.007l1.433.081c.456.031.8.132 1.028.301.229.17.388.466.479.89.125.588.041 1.019-.251 1.291zm24.502.46l6.772-3.065-5.988-4.405 4.941-5.554-7.261-1.589 2.254-7.083-7.28 1.502-.82-7.388-6.04 4.333L23.95 0l-3.755 6.415-6.04-4.333-.821 7.388-7.28-1.502 2.254 7.083-7.261 1.59 4.94 5.553L0 26.599l6.773 3.064-3.679 6.46 7.434.044-.733 7.397 6.809-2.982 2.339 7.056 5.007-5.494 5.007 5.494 2.34-7.056 6.808 2.982-.733-7.397 7.434-.044-3.678-6.46z"/></g></svg>