<?xml version="1.0" encoding="UTF-8"?>
<svg width="947px" height="160px" viewBox="0 0 947 160" version="1.1" xmlns="http://www.w3.org/2000/svg" xmlns:xlink="http://www.w3.org/1999/xlink">
    <!-- Generator: Sketch 55.2 (78181) - https://sketchapp.com -->
    <title>logo copy 3</title>
    <desc>Created with Sketch.</desc>
    <g id="rsconf_limited" stroke="none" stroke-width="1" fill="none" fill-rule="evenodd">
        <g id="home" transform="translate(-225.000000, -116.000000)" fill="#000000" fill-rule="nonzero">
            <g id="logo-copy-3" transform="translate(225.000000, 116.000000)">
                <polygon id="H" points="65.4100407 1.41796875 87.5291813 1.41796875 87.5291813 26.4667969 111.699103 26.4667969 111.699103 1.41796875 133.9159 1.41796875 133.9159 73 111.699103 73 111.699103 44.0449219 87.5291813 44.0449219 87.5291813 73 65.4100407 73"></polygon>
                <polygon id="E" points="160.754681 1.41796875 220.032024 1.41796875 220.032024 16.7011719 182.922649 16.7011719 182.922649 28.078125 217.346477 28.078125 217.346477 42.6777344 182.922649 42.6777344 182.922649 56.7890625 221.106243 56.7890625 221.106243 73 160.754681 73"></polygon>
                <path d="M312.871625,73 L312.871625,1.41796875 L349.73686,1.41796875 C356.572831,1.41796875 361.797389,2.00390039 365.410688,3.17578125 C369.023987,4.34766211 371.93737,6.52049194 374.150922,9.69433594 C376.364475,12.8681799 377.471235,16.7337012 377.471235,21.2910156 C377.471235,25.2623896 376.624889,28.6884622 374.932172,31.5693359 C373.239455,34.4502097 370.912005,36.7857983 367.94975,38.5761719 C366.06172,39.7155005 363.473855,40.6595015 360.186078,41.4082031 C362.82281,42.2871138 364.743364,43.1660112 365.947797,44.0449219 C366.761603,44.6308623 367.941605,45.884105 369.487836,47.8046875 C371.034068,49.72527 372.067586,51.206375 372.588422,52.2480469 L383.281782,73 L358.281782,73 L346.465375,51.125 C344.967972,48.2929546 343.63335,46.4537803 342.461469,45.6074219 C340.866409,44.5006455 339.059787,43.9472656 337.041547,43.9472656 L335.088422,43.9472656 L335.088422,73 L312.871625,73 Z M335.088422,30.421875 L344.414594,30.421875 C345.423714,30.421875 347.376819,30.0963574 350.273969,29.4453125 C351.73882,29.1523423 352.935097,28.4036519 353.862836,27.1992188 C354.790575,25.9947856 355.254438,24.6113359 355.254438,23.0488281 C355.254438,20.7376187 354.522023,18.9635479 353.057172,17.7265625 C351.592321,16.4895771 348.841698,15.8710938 344.805219,15.8710938 L335.088422,15.8710938 L335.088422,30.421875 Z" id="R"></path>
                <path d="M417.103146,37.2578125 C417.103146,25.5715562 420.358322,16.4733398 426.868771,9.96289062 C433.37922,3.45244141 442.444885,0.197265625 454.066036,0.197265625 C465.980158,0.197265625 475.159754,3.39547583 481.605099,9.79199219 C488.050444,16.1885085 491.273068,25.1483799 491.273068,36.671875 C491.273068,45.0378022 489.865204,51.8980852 487.049435,57.2529297 C484.233666,62.6077742 480.164696,66.7743992 474.842404,69.7529297 C469.520111,72.7314602 462.887691,74.2207031 454.944943,74.2207031 C446.871986,74.2207031 440.190737,72.9349087 434.900997,70.3632812 C429.611257,67.7916538 425.322563,63.7226841 422.034786,58.15625 C418.74701,52.5898159 417.103146,45.6237397 417.103146,37.2578125 Z M439.222286,37.3554688 C439.222286,44.5820674 440.565046,49.7740728 443.250607,52.9316406 C445.936167,56.0892085 449.590102,57.6679688 454.212521,57.6679688 C458.965149,57.6679688 462.643497,56.1217603 465.247677,53.0292969 C467.851857,49.9368335 469.153927,44.3867588 469.153927,36.3789062 C469.153927,29.6405913 467.794891,24.7171379 465.076779,21.6083984 C462.358666,18.4996589 458.672179,16.9453125 454.017208,16.9453125 C449.557551,16.9453125 445.976857,18.5240728 443.275021,21.6816406 C440.573184,24.8392085 439.222286,30.0637656 439.222286,37.3554688 Z" id="O"></path>
                <polygon id="L" points="537.075698 1.41796875 559.194839 1.41796875 559.194839 55.3730469 593.716323 55.3730469 593.716323 73 537.075698 73"></polygon>
                <polygon id="L" points="583.229544 1.41796875 605.348685 1.41796875 605.348685 55.3730469 639.870169 55.3730469 639.870169 73 583.229544 73"></polygon>
                <polygon id="I" points="692.98419 1.41796875 715.152159 1.41796875 715.152159 73 692.98419 73"></polygon>
                <polygon id="N" points="791.512123 1.41796875 812.16642 1.41796875 839.119545 41.0175781 839.119545 1.41796875 859.969154 1.41796875 859.969154 73 839.119545 73 812.312904 33.6933594 812.312904 73 791.512123 73"></polygon>
                <path d="M909.008772,47.0722656 L909.008772,32.1796875 L943.188459,32.1796875 L943.188459,62.6972656 C936.645458,67.1569233 930.859383,70.1923748 925.830061,71.8037109 C920.800739,73.4150471 914.835629,74.2207031 907.934553,74.2207031 C899.438417,74.2207031 892.51303,72.7721499 887.158186,69.875 C881.803341,66.9778501 877.652992,62.6647422 874.707014,56.9355469 C871.761036,51.2063516 870.288069,44.6308965 870.288069,37.2089844 C870.288069,29.3964453 871.899381,22.6012659 875.122053,16.8232422 C878.344725,11.0452185 883.06473,6.65886914 889.282209,3.6640625 C894.132494,1.35285303 900.659121,0.197265625 908.862287,0.197265625 C916.772483,0.197265625 922.688765,0.913404297 926.611311,2.34570312 C930.533856,3.77800195 933.789032,5.99965942 936.376936,9.01074219 C938.964839,12.021825 940.909807,15.8385186 942.211897,20.4609375 L920.874006,24.2695312 C919.995095,21.5676948 918.505853,19.5006582 916.406233,18.0683594 C914.306613,16.6360605 911.629231,15.9199219 908.374006,15.9199219 C903.523721,15.9199219 899.6582,17.6044753 896.777326,20.9736328 C893.896453,24.3427903 892.456037,29.6731406 892.456037,36.9648438 C892.456037,44.7122783 893.912729,50.2460771 896.826155,53.5664062 C899.739581,56.8867354 903.800412,58.546875 909.008772,58.546875 C911.482742,58.546875 913.842745,58.1888057 916.08885,57.4726562 C918.334955,56.7565068 920.906544,55.5358159 923.803694,53.8105469 L923.803694,47.0722656 L909.008772,47.0722656 Z" id="G"></path>
                <polygon id="T" points="0.294921875 1.41796875 67.53125 1.41796875 67.53125 19.09375 44.9726562 19.09375 44.9726562 73 22.8535156 73 22.8535156 19.09375 0.294921875 19.09375"></polygon>
                <path d="M7.92833534,134.318359 L28.9732572,133 C29.4289887,136.417986 30.3567138,139.022126 31.7564603,140.8125 C34.0351176,143.70965 37.2902933,145.158203 41.5220853,145.158203 C44.6796532,145.158203 47.1128971,144.417651 48.82189,142.936523 C50.5308829,141.455396 51.3853666,139.738291 51.3853666,137.785156 C51.3853666,135.929678 50.5715726,134.269539 48.9439603,132.804688 C47.316348,131.339836 43.5403441,129.956387 37.6158353,128.654297 C27.915266,126.473296 20.9980175,123.57619 16.8638822,119.962891 C12.6971947,116.349591 10.6138822,111.743518 10.6138822,106.144531 C10.6138822,102.466127 11.6799523,98.9912273 13.8121244,95.7197266 C15.9442965,92.4482258 19.1506447,89.876637 23.431265,88.0048828 C27.7118854,86.1331287 33.5793397,85.1972656 41.0338041,85.1972656 C50.1809852,85.1972656 57.1551994,86.898095 61.9566556,90.2998047 C66.7581119,93.7015144 69.6145287,99.1132441 70.5259916,106.535156 L49.6763822,107.755859 C49.122994,104.533187 47.9592687,102.18946 46.1851713,100.724609 C44.4110739,99.2597583 41.9615541,98.5273438 38.8365385,98.5273438 C36.264911,98.5273438 34.3280814,99.0725857 33.0259916,100.163086 C31.7239017,101.253586 31.0728666,102.58007 31.0728666,104.142578 C31.0728666,105.281907 31.6099706,106.307287 32.6841947,107.21875 C33.7258666,108.162765 36.1998002,109.041663 40.1060697,109.855469 C49.7740868,111.938812 56.6994733,114.046539 60.8824369,116.178711 C65.0654005,118.310883 68.1089899,120.955713 70.0132963,124.113281 C71.9176027,127.270849 72.8697416,130.802715 72.8697416,134.708984 C72.8697416,139.298851 71.600223,143.53058 69.0611478,147.404297 C66.5220726,151.278014 62.973931,154.21581 58.4166166,156.217773 C53.8593021,158.219737 48.1139169,159.220703 41.1802885,159.220703 C29.0057484,159.220703 20.5748431,156.876977 15.8873197,152.189453 C11.1997963,147.50193 8.54682801,141.544958 7.92833534,134.318359 Z" id="S"></path>
                <path d="M156.08106,128.751953 L175.465826,134.611328 C174.163736,140.047553 172.112976,144.588523 169.313482,148.234375 C166.513989,151.880227 163.039089,154.63085 158.888678,156.486328 C154.738266,158.341806 149.456744,159.269531 143.043951,159.269531 C135.263964,159.269531 128.908234,158.138358 123.976568,155.875977 C119.044903,153.613595 114.788761,149.634143 111.208014,143.9375 C107.627267,138.240857 105.83692,130.949263 105.83692,122.0625 C105.83692,110.213482 108.986302,101.107128 115.285162,94.7431641 C121.584022,88.3792 130.495065,85.1972656 142.01856,85.1972656 C151.035533,85.1972656 158.123678,87.0201641 163.283209,90.6660156 C168.44274,94.3118672 172.275709,99.9107695 174.782232,107.462891 L155.250982,111.808594 C154.567385,109.627593 153.851247,108.032557 153.102545,107.023438 C151.865559,105.330721 150.351903,104.02865 148.561529,103.117188 C146.771156,102.205725 144.769223,101.75 142.55567,101.75 C137.542624,101.75 133.701517,103.768209 131.032232,107.804688 C129.013993,110.799494 128.004889,115.503223 128.004889,121.916016 C128.004889,129.858764 129.209304,135.303045 131.61817,138.249023 C134.027036,141.195002 137.412419,142.667969 141.77442,142.667969 C146.006212,142.667969 149.204422,141.47983 151.369146,139.103516 C153.533871,136.727202 155.104493,133.276715 156.08106,128.751953 Z" id="C"></path>
                <path d="M222.9493,122.257812 C222.9493,110.571556 226.204475,101.47334 232.714925,94.9628906 C239.225374,88.4524414 248.291038,85.1972656 259.91219,85.1972656 C271.826312,85.1972656 281.005908,88.3954758 287.451253,94.7919922 C293.896598,101.188509 297.119222,110.14838 297.119222,121.671875 C297.119222,130.037802 295.711358,136.898085 292.895589,142.25293 C290.079819,147.607774 286.01085,151.774399 280.688557,154.75293 C275.366265,157.73146 268.733845,159.220703 260.791097,159.220703 C252.718139,159.220703 246.036891,157.934909 240.747151,155.363281 C235.457411,152.791654 231.168717,148.722684 227.88094,143.15625 C224.593163,137.589816 222.9493,130.62374 222.9493,122.257812 Z M245.06844,122.355469 C245.06844,129.582067 246.4112,134.774073 249.096761,137.931641 C251.782321,141.089208 255.436256,142.667969 260.058675,142.667969 C264.811303,142.667969 268.489651,141.12176 271.093831,138.029297 C273.698011,134.936833 275.000081,129.386759 275.000081,121.378906 C275.000081,114.640591 273.641045,109.717138 270.922932,106.608398 C268.20482,103.499659 264.518333,101.945312 259.863362,101.945312 C255.403704,101.945312 251.823011,103.524073 249.121175,106.681641 C246.419338,109.839208 245.06844,115.063766 245.06844,122.355469 Z" id="O"></path>
                <path d="M292.114136,86.4179688 L328.881715,86.4179688 C336.889567,86.4179688 342.887229,88.3222466 346.874879,92.1308594 C350.862529,95.9394722 352.856324,101.35934 352.856324,108.390625 C352.856324,115.617224 350.683494,121.264954 346.337769,125.333984 C341.992044,129.403015 335.359624,131.4375 326.440308,131.4375 L314.330933,131.4375 L314.330933,158 L292.114136,158 L292.114136,86.4179688 Z M314.330933,116.935547 L319.750855,116.935547 C324.015199,116.935547 327.009961,116.194994 328.73523,114.713867 C330.460499,113.23274 331.323121,111.3366 331.323121,109.025391 C331.323121,106.779286 330.57443,104.875008 329.077027,103.3125 C327.579624,101.749992 324.763897,100.96875 320.629761,100.96875 L314.330933,100.96875 L314.330933,116.935547 Z" id="P"></path>
                <polygon id="E" points="379.736929 86.4179688 439.014273 86.4179688 439.014273 101.701172 401.904898 101.701172 401.904898 113.078125 436.328726 113.078125 436.328726 127.677734 401.904898 127.677734 401.904898 141.789062 440.088492 141.789062 440.088492 158 379.736929 158"></polygon>
                <path d="M467.052596,134.318359 L488.097518,133 C488.553249,136.417986 489.480974,139.022126 490.880721,140.8125 C493.159378,143.70965 496.414554,145.158203 500.646346,145.158203 C503.803914,145.158203 506.237157,144.417651 507.94615,142.936523 C509.655143,141.455396 510.509627,139.738291 510.509627,137.785156 C510.509627,135.929678 509.695833,134.269539 508.068221,132.804688 C506.440608,131.339836 502.664604,129.956387 496.740096,128.654297 C487.039526,126.473296 480.122278,123.57619 475.988143,119.962891 C471.821455,116.349591 469.738143,111.743518 469.738143,106.144531 C469.738143,102.466127 470.804213,98.9912273 472.936385,95.7197266 C475.068557,92.4482258 478.274905,89.876637 482.555525,88.0048828 C486.836146,86.1331287 492.7036,85.1972656 500.158064,85.1972656 C509.305246,85.1972656 516.27946,86.898095 521.080916,90.2998047 C525.882372,93.7015144 528.738789,99.1132441 529.650252,106.535156 L508.800643,107.755859 C508.247254,104.533187 507.083529,102.18946 505.309432,100.724609 C503.535334,99.2597583 501.085814,98.5273438 497.960799,98.5273438 C495.389171,98.5273438 493.452342,99.0725857 492.150252,100.163086 C490.848162,101.253586 490.197127,102.58007 490.197127,104.142578 C490.197127,105.281907 490.734231,106.307287 491.808455,107.21875 C492.850127,108.162765 495.324061,109.041663 499.23033,109.855469 C508.898347,111.938812 515.823734,114.046539 520.006697,116.178711 C524.189661,118.310883 527.23325,120.955713 529.137557,124.113281 C531.041863,127.270849 531.994002,130.802715 531.994002,134.708984 C531.994002,139.298851 530.724483,143.53058 528.185408,147.404297 C525.646333,151.278014 522.098191,154.21581 517.540877,156.217773 C512.983562,158.219737 507.238177,159.220703 500.304549,159.220703 C488.130009,159.220703 479.699104,156.876977 475.01158,152.189453 C470.324057,147.50193 467.671088,141.544958 467.052596,134.318359 Z" id="S"></path>
                <path d="M674.08106,128.751953 L693.465826,134.611328 C692.163736,140.047553 690.112976,144.588523 687.313482,148.234375 C684.513989,151.880227 681.039089,154.63085 676.888678,156.486328 C672.738266,158.341806 667.456744,159.269531 661.043951,159.269531 C653.263964,159.269531 646.908234,158.138358 641.976568,155.875977 C637.044903,153.613595 632.788761,149.634143 629.208014,143.9375 C625.627267,138.240857 623.83692,130.949263 623.83692,122.0625 C623.83692,110.213482 626.986302,101.107128 633.285162,94.7431641 C639.584022,88.3792 648.495065,85.1972656 660.01856,85.1972656 C669.035533,85.1972656 676.123678,87.0201641 681.283209,90.6660156 C686.44274,94.3118672 690.275709,99.9107695 692.782232,107.462891 L673.250982,111.808594 C672.567385,109.627593 671.851247,108.032557 671.102545,107.023438 C669.865559,105.330721 668.351903,104.02865 666.561529,103.117188 C664.771156,102.205725 662.769223,101.75 660.55567,101.75 C655.542624,101.75 651.701517,103.768209 649.032232,107.804688 C647.013993,110.799494 646.004889,115.503223 646.004889,121.916016 C646.004889,129.858764 647.209304,135.303045 649.61817,138.249023 C652.027036,141.195002 655.412419,142.667969 659.77442,142.667969 C664.006212,142.667969 667.204422,141.47983 669.369146,139.103516 C671.533871,136.727202 673.104493,133.276715 674.08106,128.751953 Z" id="C"></path>
                <path d="M715.9493,122.257812 C715.9493,110.571556 719.204475,101.47334 725.714925,94.9628906 C732.225374,88.4524414 741.291038,85.1972656 752.91219,85.1972656 C764.826312,85.1972656 774.005908,88.3954758 780.451253,94.7919922 C786.896598,101.188509 790.119222,110.14838 790.119222,121.671875 C790.119222,130.037802 788.711358,136.898085 785.895589,142.25293 C783.079819,147.607774 779.01085,151.774399 773.688557,154.75293 C768.366265,157.73146 761.733845,159.220703 753.791097,159.220703 C745.718139,159.220703 739.036891,157.934909 733.747151,155.363281 C728.457411,152.791654 724.168717,148.722684 720.88094,143.15625 C717.593163,137.589816 715.9493,130.62374 715.9493,122.257812 Z M738.06844,122.355469 C738.06844,129.582067 739.4112,134.774073 742.096761,137.931641 C744.782321,141.089208 748.436256,142.667969 753.058675,142.667969 C757.811303,142.667969 761.489651,141.12176 764.093831,138.029297 C766.698011,134.936833 768.000081,129.386759 768.000081,121.378906 C768.000081,114.640591 766.641045,109.717138 763.922932,106.608398 C761.20482,103.499659 757.518333,101.945312 752.863362,101.945312 C748.403704,101.945312 744.823011,103.524073 742.121175,106.681641 C739.419338,109.839208 738.06844,115.063766 738.06844,122.355469 Z" id="O"></path>
                <polygon id="N" points="784.358277 86.4179688 805.012574 86.4179688 831.965699 126.017578 831.965699 86.4179688 852.815308 86.4179688 852.815308 158 831.965699 158 805.159058 118.693359 805.159058 158 784.358277 158"></polygon>
                <polygon id="F" points="891.883413 86.4179688 946.570913 86.4179688 946.570913 101.798828 914.10021 101.798828 914.10021 114.298828 941.834585 114.298828 941.834585 128.751953 914.10021 128.751953 914.10021 158 891.883413 158"></polygon>
            </g>
        </g>
    </g>
</svg>