<?xml version="1.0" encoding="utf-8"?>
<!-- Generator: Adobe Illustrator 21.0.2, SVG Export Plug-In . SVG Version: 6.00 Build 0)  -->
<svg version="1.1" id="Layer_1" xmlns="http://www.w3.org/2000/svg" xmlns:xlink="http://www.w3.org/1999/xlink" x="0px" y="0px"
	 viewBox="0 0 352.8 118.6" style="enable-background:new 0 0 352.8 118.6;" xml:space="preserve">
<style type="text/css">
	.st0{fill:#000000;}
	.st1{fill:#FFFFFF;}
	.st2{fill:#000000;}
</style>
<g>
	<path class="st0" d="M208.9,31.2c-0.2,17-14.1,30.8-31.2,30.6S146.9,47.7,147,30.6c0.2-17.1,14.1-30.8,31.2-30.6
		C195.4,0.1,209.1,14.1,208.9,31.2"/>
	<polygon class="st1" points="177.9,39.1 177.9,43.7 162.6,43.7 162.6,19.1 177.7,19.1 177.7,23.7 167.4,23.7 167.4,29 176.8,29
		176.8,33.5 167.4,33.5 167.4,39.1 	"/>
	<polygon class="st1" points="195.6,39.1 195.6,43.7 181.3,43.7 181.3,19.1 186.2,19.1 186.2,39.1 	"/>
	<path class="st2" d="M227.8,56.8c0,5.1-4.1,9.1-9.1,9.1c-5.1,0-9.1-4.1-9.1-9.1c0-5.1,4.1-9.1,9.1-9.1
		C223.7,47.7,227.8,51.8,227.8,56.8"/>
	<path class="st2" d="M131.6,17.7C121.8,7,101.3,0,79.6,0c-4,0-8.1,0.2-12.1,0.7C40.6,4,18.2,15.7,6.2,32.8
		c-6.3,8.7-7.9,18.6-4.4,26.8c2.9,6.7,10.6,15.1,30.7,17.5c0.9,0.1,2.3,0,3-1.6l3.3-6.9c0.2-0.4,0.2-0.9-0.1-1.3
		c-0.2-0.4-0.6-0.7-1.1-0.7c-17.2-1.5-23.2-7.3-25.3-11.9s-1-10.2,3-15.8c10-14.2,29.2-23.9,52.6-26.6c3.3-0.4,6.7-0.6,10.1-0.6
		c18.3,0,36.4,5.9,44.1,14.3c2.6,2.8,3.7,5.6,3.5,8.4c-1.1,12.4-27.3,23-48.1,23c-0.5,0-1,0-1.5,0l9.3-20.3c0.3-0.6,0.2-1.4-0.4-1.8
		l-6.6-5C78,30,77.5,29.9,77,30c-8.7,1.9-21.3,4.8-27.1,13.6c-2.2,3.4-2.7,7.4-1.4,11.3c1.6,4.8,6,8.8,11.9,11l-20.8,45.8
		c-0.3,0.6-0.2,1.4,0.4,1.8l6.2,4.8c0.3,0.2,0.6,0.3,0.9,0.3c0.1,0,0.3,0,0.4-0.1c0.5-0.1,0.9-0.5,1.1-0.9L71,68.4
		c2.3,0.3,4.7,0.4,7.2,0.4c12.7,0,27-3.4,38.2-9.1c12.9-6.6,20.4-15.6,21.3-25.4C138.4,28.4,136.2,22.7,131.6,17.7 M71.1,42.4
		l-5.9,13.1c-2.4-1-4.7-2.8-5.4-4.8c-0.2-0.7-0.2-1.4,0.3-2.1C61.5,45.7,67.4,43.3,71.1,42.4"/>
	<path class="st2" d="M352.2,90.2l-7.7-5.1c-0.3-0.2-0.8-0.3-1.2-0.1c-11.3,4.1-22.9,11-31.6,16.7c6.2-16.8,8.5-23.2,9.3-25.3
		c0.2-0.5,0.1-1.2-0.4-1.6l-6.1-4.6c-0.4-0.3-0.9-0.4-1.3-0.2c-12.1,4.8-20.9,10.9-28.1,17.4l3.3-9.1c0.2-0.5,0-1.2-0.4-1.5
		l-6.2-4.7c-0.5-0.4-1.3-0.3-1.7,0.2c-4.2,4.4-8.6,7-13.1,7.6c-0.6-1.7-1.6-3.2-2.9-4.5c-2.6-2.5-6.2-4.4-15-2.9
		c-0.5,0.1-0.8,0.4-1,0.8c-1.2,3.2-2.2,5.9-2.7,7.3c-0.2,0.6-0.1,1.2,0.2,1.7c1.9,2.5,6.1,5.1,11.3,6.4c-3.8,10-15.2,20.8-23.9,19.2
		c-1.2-0.2-3.3-1.7-4.1-4.2c-0.7-2.4-0.9-9.1,11.5-21.4c0.3-0.3,0.4-0.6,0.4-1s-0.2-0.7-0.5-1l-5.9-4.5c-0.5-0.4-1.2-0.3-1.7,0.1
		l-23.5,21.3l7.4-19.9c0.2-0.6,0-1.2-0.5-1.5l-6-4.5c-0.5-0.3-1.1-0.3-1.6,0l-24.9,20.2c-0.9-1-1.8-1.9-2.6-2.7c-2.1-2-4-3.9-4-5.6
		c0-0.9,0.5-3,3.7-6.4c0.2-0.3,0.4-0.6,0.3-1c0-0.4-0.2-0.7-0.5-0.9l-6-4.6c-0.5-0.4-1.2-0.3-1.6,0.1c-9.8,8.4-17.2,14.7-22.7,19.4
		c-0.1-0.1-0.2-0.2-0.3-0.3c-4.5-4.2-6.5-6-0.6-13c0.2-0.3,0.3-0.6,0.3-1s-0.2-0.7-0.5-0.9l-5.9-4.5c-0.5-0.4-1.2-0.3-1.7,0.1
		l-30.8,30.6l3.1-8c0.3-0.6,0.1-1.2-0.4-1.6l-6.6-4.9c-0.3-0.2-0.6-0.3-1-0.3c-0.4,0.1-0.7,0.3-0.9,0.5c-12.7,18.1-20.5,22-25.9,22
		c-9.7,0-3.2-12.5,3.3-18.4c4.5-4.1,16.6-13.3,33.4-6c0.7,0.3,1.4,0,1.7-0.6l3.1-6.6c0.2-0.3,0.2-0.7,0-1c-0.1-0.3-0.4-0.6-0.7-0.7
		c-15.5-6.8-31.9-3.6-44.3,7.7c-9.1,8.4-13.3,19.2-10.5,26.9c1.9,5.2,6.8,8.6,13.5,8.6c4.7,0,11.9-1.3,21.4-10.3l-0.6,3.1
		c-0.1,0.5,0.1,1,0.5,1.3s4.5,3.4,6.4,4.8c0.5,0.4,1.2,0.3,1.7-0.1l28.7-28.5c1.4,3.2,3.8,5.6,5.8,7.5c-2.8,2.4-4.8,4.2-6.3,5.5
		c-4.5,3.9-7.2,6-11.1,9.1c-0.4,0.3-0.7,1.2,0,1.7c0,0,5.3,4,7.1,5.3c0.7,0.5,1,0.8,2.1,0.7c7.2-0.6,16.3-4.8,20.5-13.1
		c1.5-2.9,1.6-5.5,1-7.7c3.3-2.8,7.2-6.2,12-10.3c1.3,3.5,4,6.2,6.2,8.4c0.8,0.7,1.4,1.4,1.8,1.9c0,0-13.7,11.3-17.7,14.4
		c-0.4,0.3-0.7,1.2,0,1.7c0,0,3,2.6,4.8,3.9c0.7,0.5,1,0.8,2.1,0.7c8.3-0.7,19.2-6.3,22.1-17.3h0.1l14.1-11.5l-7.9,21.4
		c-0.2,0.5,0,1.2,0.4,1.5l5.7,4.3c0.5,0.4,1.2,0.3,1.7-0.1l17.4-15.7c0,1.8,0.2,4,0.6,5.3c2,6.6,7.5,10.3,11.7,11.1
		c12.4,2.4,30.6-9.6,35.8-27.7c2.6-0.2,5.1-0.8,7.6-1.7l-8.1,22.2c-0.2,0.5,0,1.2,0.5,1.5l6.2,4.6c0.3,0.2,0.7,0.3,1.1,0.2
		s0.7-0.3,0.9-0.7c2.6-4.8,12.3-21.3,33.1-32.6c-3.6,9.6-5.8,15.6-10.5,28.7c-0.2,0.6,0,1.2,0.5,1.5l6.5,4.3c0.5,0.3,1.1,0.3,1.5,0
		c5.4-4.1,27.9-20.3,45.9-25.2c0.5-0.1,0.9-0.5,0.9-1.1C352.9,91,352.7,90.5,352.2,90.2"/>
</g>
</svg>
