<?xml version="1.0" encoding="UTF-8"?>
<svg width="124px" height="40px" viewBox="0 0 124 40" version="1.1" xmlns="http://www.w3.org/2000/svg" xmlns:xlink="http://www.w3.org/1999/xlink">
    <!-- Generator: Sketch 49.3 (51167) - http://www.bohemiancoding.com/sketch -->
    <title>Logo_Black Copy 5</title>
    <desc>Created with Sketch.</desc>
    <defs></defs>
    <g id="UI" stroke="none" stroke-width="1" fill="none" fill-rule="evenodd">
        <g id="Logo_Black-Copy-5" fill="#26252D" fill-rule="nonzero">
            <polygon id="Shape" points="65.6764253 10.8721109 58.9090909 10.8721109 58.9090909 29.5839753 56.1355932 29.5839753 56.1355932 10.8721109 49.4052388 10.8721109 49.4052388 8.61633281 65.6764253 8.61633281"></polygon>
            <path d="M75.8828969,28.1047766 C75.3743763,28.7495598 74.7135871,29.2578593 73.9599383,29.5839753 C73.1014766,29.9237764 72.1833912,30.0872711 71.2604007,30.0647149 C70.5480264,30.0217816 69.8479566,29.8592654 69.189522,29.5839753 C68.5726122,29.3729532 68.0148447,29.0180102 67.5624037,28.5485362 C67.1027667,28.0377205 66.7618035,27.4315636 66.5639445,26.7734977 C66.2997038,25.9113281 66.1748648,25.0124874 66.1941448,24.1109399 L66.1941448,14.0154083 L68.8567024,14.0154083 L68.8567024,24.1479199 C68.8440407,24.7377452 68.9315702,25.325442 69.1155627,25.8859784 C69.2532624,26.2892961 69.480882,26.6560164 69.781202,26.9583976 C70.0381125,27.2177249 70.3559837,27.4084475 70.705701,27.5130971 C71.0612753,27.565206 71.4225464,27.565206 71.77812,27.5130971 C72.6950108,27.5545511 73.6050129,27.3366633 74.4036983,26.8844376 C75.0422725,26.489066 75.5453207,25.9086252 75.8459166,25.220339 L75.8459166,14.0154083 L78.5084746,14.0154083 L78.5084746,29.5839753 L75.9568569,29.5839753 L75.8828969,28.1047766 Z" id="Shape"></path>
            <path d="M90.1941451,16.4191063 L89.5654854,16.4191063 L88.7519261,16.4191063 C87.9558644,16.3678694 87.1645763,16.5754205 86.4961478,17.0107858 C85.9179871,17.4182204 85.468798,17.9829149 85.2018488,18.6379045 L85.2018488,29.5839753 L82.5392915,29.5839753 L82.5392915,14.0154083 L85.0539288,14.0154083 L85.0539288,15.8274268 C85.4356468,15.2118815 85.9545627,14.6929656 86.5701078,14.3112481 C87.2422203,13.9198776 88.0116915,13.7275098 88.7889058,13.7565485 L89.4545458,13.7565485 L89.9722651,13.7565485 L90.1941451,16.4191063 Z" id="Shape"></path>
            <path d="M97.4052386,10.2064715 L97.4052386,13.9044684 L100.326656,13.9044684 L100.326656,15.9753467 L97.4052386,15.9753467 L97.4052386,25.8859784 C97.3484949,26.2039598 97.3484949,26.5294762 97.4052386,26.8474576 C97.4808861,27.0600188 97.6079234,27.2505746 97.7750386,27.4021572 C97.9349431,27.5341688 98.1258488,27.6232581 98.3297383,27.6610169 L98.9583973,27.6610169 L99.6610169,27.6610169 L100.215717,27.6610169 L100.215717,29.5839753 L99.4021573,29.7688752 C98.9963403,29.8084502 98.5876353,29.8084502 98.1818183,29.7688752 C97.7685268,29.7629753 97.3579681,29.7007695 96.9614793,29.5839753 C96.5281329,29.4459719 96.1347492,29.204866 95.8151003,28.8813559 C95.4645661,28.5120099 95.1994569,28.0701618 95.0385207,27.587057 C94.8562088,27.0378108 94.7565071,26.4645266 94.7426814,25.8859784 L94.7426814,16.0862866 L91.8952237,16.0862866 L91.8952237,14.0154083 L94.7426814,14.0154083 L94.7426814,10.3174114 L97.4052386,10.2064715 Z" id="Shape"></path>
            <polygon id="Shape" points="106.798151 29.5839753 104.135593 29.5839753 104.135593 7.39599383 106.798151 7.39599383"></polygon>
            <path d="M117.559322,29.9167951 C116.545593,29.9366346 115.53861,29.7478254 114.600925,29.3620955 C113.748946,29.0072915 112.980577,28.47825 112.345146,27.8089368 C111.718607,27.1112663 111.240505,26.2934595 110.939908,25.4052388 C110.555136,24.3770272 110.366972,23.2856772 110.385208,22.1879815 L110.385208,21.7812018 C110.375289,20.6600588 110.563061,19.5459424 110.939908,18.4899846 C111.278292,17.5617846 111.793156,16.7078643 112.456086,15.9753467 C113.055424,15.2609716 113.798933,14.6812862 114.637904,14.2742681 C115.439897,13.9117625 116.309413,13.7227373 117.189522,13.7195685 C118.183344,13.6964583 119.169494,13.8987454 120.07396,14.3112481 C120.841502,14.6825148 121.512414,15.2268392 122.033898,15.9013868 C122.574161,16.6308361 122.963855,17.4605087 123.180277,18.3420647 C123.435281,19.3323938 123.559603,20.3518334 123.550077,21.3744222 L123.550077,22.5577812 L113.047766,22.5577812 C113.064962,23.2508068 113.189717,23.9369544 113.417565,24.5916795 C113.619589,25.1878485 113.93335,25.7400673 114.342064,26.2187982 C114.740268,26.6850321 115.231507,27.0629081 115.784283,27.3281972 C116.385994,27.6082642 117.043662,27.7473862 117.707242,27.7349769 C118.547167,27.7580875 119.377712,27.5536456 120.11094,27.1432974 C120.769206,26.750654 121.346546,26.2360678 121.812018,25.6271186 L123.439137,26.8844376 C123.169272,27.2845433 122.85952,27.6562452 122.514638,27.9938367 C122.137974,28.3663216 121.715481,28.6894052 121.257319,28.9553159 C120.747148,29.2489507 120.199896,29.4728266 119.6302,29.6209553 C118.95604,29.8107717 118.259664,29.9102539 117.559322,29.9167951 Z M117.226502,15.9013868 C116.718346,15.8973181 116.214805,15.9980263 115.747304,16.1972265 C115.287113,16.3951563 114.871936,16.6845224 114.526965,17.0477658 C114.148653,17.4587094 113.847953,17.9348167 113.639445,18.4530046 C113.390075,19.0683598 113.228252,19.7156519 113.158706,20.3759631 L120.998459,20.3759631 L120.998459,20.1910632 C120.966598,19.6144315 120.867308,19.0435159 120.70262,18.4899846 C120.566345,17.9970054 120.340726,17.5332323 120.03698,17.1217258 C119.737001,16.7049217 119.344639,16.3631879 118.890601,16.1232666 C118.360247,15.9227077 117.790877,15.8467917 117.226502,15.9013868 Z" id="Shape"></path>
            <path d="M19.7473035,0 C8.84116895,-6.67808141e-16 1.33561628e-15,8.84116895 0,19.7473035 C-1.33561628e-15,30.6534382 8.84116895,39.4946071 19.7473035,39.4946071 C30.6534382,39.4946071 39.4946071,30.6534382 39.4946071,19.7473035 C39.4742565,8.84960956 30.6449976,0.0203505555 19.7473035,2.19649671e-15 Z M25.5901386,14.2742681 L29.2881356,11.0939908 L36.3882897,12.6101695 C37.1303732,14.4003825 37.5798664,16.2982426 37.7195685,18.2311248 L36.7211094,19.0077041 L29.5839753,19.0077041 L25.5901386,14.2742681 Z M28.1047766,19.8212635 L24.1109399,24.2958397 L15.4576271,24.2958397 L11.4268105,19.8212635 L15.3836672,14.7919877 L24.03698,14.7919877 L28.1047766,19.8212635 Z M24.1479199,13.3127889 L15.3836672,13.3127889 L12.6471495,11.0939908 L11.5747304,10.2064715 L12.6841294,9.24499227 L15.3097073,7.02619417 L24.1109399,7.02619417 L27.8089368,10.1694915 L24.1479199,13.3127889 Z M11.6117103,12.2773498 L13.9044684,14.2372881 L10.0215717,18.9707242 L2.62557781,18.9707242 L1.73805855,18.1941448 C1.8816659,16.2738084 2.33108696,14.3887367 3.06933744,12.6101695 L10.1325115,11.0939908 L11.6117103,12.2773498 Z M2.73651772,20.5978428 L9.91063173,20.5978428 L13.9414484,25.0724191 L10.2434515,28.5115563 L2.84745763,26.403698 C2.23911338,24.788934 1.86551,23.0952654 1.73805855,21.3744222 L2.73651772,20.5978428 Z M15.3836672,25.8859784 L24.1479199,25.8859784 L24.3697997,26.1078582 L28.0677966,29.4730355 L24.3697997,32.6533128 L15.4206471,32.6533128 L11.6117103,29.5839753 L15.3836672,25.8859784 Z M25.5531587,24.9984592 L29.5839753,20.5978428 L36.9799692,20.5978428 L38.0154083,21.3744222 C37.8844717,23.0827473 37.510922,24.7637209 36.9060092,26.366718 L29.5100154,28.5115563 L25.5531587,24.9984592 Z M35.3898305,10.5762712 L29.5839753,9.3929122 L25.5531587,6.10169492 L27.550077,3.40215717 C30.8293752,4.97979041 33.5602373,7.50454969 35.3898305,10.6502311 L35.3898305,10.5762712 Z M25.8859784,2.77349769 L23.8890601,5.36209553 L15.4576271,5.36209553 L15.0138675,4.80739599 L13.4607088,2.77349769 C15.4686143,2.00627881 17.5978678,1.60547816 19.7473035,1.59013868 C21.8469477,1.62293765 23.9245993,2.0234488 25.8859784,2.77349769 Z M11.94453,3.43913713 L13.8305085,5.8798151 L13.8305085,6.06471495 L11.4268105,8.09861322 L9.91063173,9.3929122 L3.99383667,10.6872111 C5.8528116,7.52493986 8.62423661,4.99843146 11.94453,3.43913713 Z M3.95685671,28.5485362 L9.98459166,30.2865948 L14.0154083,33.614792 L12.1294299,36.2033898 C8.66825153,34.5743736 5.80858096,31.8958586 3.95685671,28.5485362 Z M13.6456086,36.9799692 L15.4576271,34.5023113 L24.0739599,34.5023113 L24.5177196,35.0939908 L25.8859784,36.9799692 C23.9223287,37.7173911 21.8447475,38.1053731 19.7473035,38.1263482 C17.6623035,38.1010764 15.5976051,37.7131634 13.6456086,36.9799692 Z M27.4391372,36.3513097 L25.8859784,33.9106317 L25.5531587,33.6517719 L27.7719569,31.8027735 L29.5839753,30.2865948 L35.6486903,28.5115563 C33.7873326,31.8646329 30.9140311,34.5437924 27.4391372,36.1664098 L27.4391372,36.3513097 Z" id="Shape"></path>
        </g>
    </g>
</svg>