<?xml version="1.0" encoding="utf-8"?>
<!-- Generator: Adobe Illustrator 22.1.0, SVG Export Plug-In . SVG Version: 6.00 Build 0)  -->
<svg version="1.1" id="Layer_1" xmlns="http://www.w3.org/2000/svg" xmlns:xlink="http://www.w3.org/1999/xlink" x="0px" y="0px"
	 viewBox="0 0 419.5 416" style="enable-background:new 0 0 419.5 436;" xml:space="preserve">
<style type="text/css">
	.st0{fill-rule:evenodd;clip-rule:evenodd;fill:#000;}
	.st1{fill-rule:evenodd;clip-rule:evenodd;fill:#000;}
	.st2{clip-path:url(#SVGID_2_);fill:#5B5957;}
</style>
<g>
	<g>
		<path d="M153.4,261.5H147v-68.5h6.4V261.5z"/>
		<path d="M190.8,198.8v62.7h-6.4v-62.7h-19.7v-5.8h45.9v5.8H190.8z"/>
		<path d="M247.5,261.5h-6.2l-25-68.5h7.1l19.4,54.8c0.3,1,0.7,2,0.9,3.1c0.3,1,0.5,2.1,0.6,3.2h0.2c0.2-0.9,0.4-1.9,0.7-2.9
			c0.3-1.1,0.7-2.2,1.1-3.5l20.2-54.7h6.9L247.5,261.5z"/>
		<path d="M283.7,261.5v-68.5h18c11.7,0,20.6,2.8,26.6,8.4c6,5.6,9,13.9,9,24.9c0,5.3-0.8,10.1-2.5,14.4c-1.7,4.3-4.1,8-7.2,11.1
			c-3.2,3.1-7,5.4-11.5,7.1c-4.5,1.7-9.6,2.5-15.2,2.5H283.7z M290.1,198.8v56.9h10.5c4.7,0,8.9-0.6,12.6-1.9
			c3.7-1.3,6.9-3.1,9.4-5.6c2.6-2.5,4.5-5.5,5.9-9.2c1.4-3.6,2-7.8,2-12.5c0-18.5-9.8-27.7-29.3-27.7H290.1z"/>
		<path d="M398,261.5l-38-55c-0.5-0.7-0.9-1.4-1.4-2.2c-0.5-0.7-0.8-1.4-1.1-2.2h-0.2c0.1,0.6,0.1,1.4,0.2,2.4c0,1,0.1,2.3,0.1,3.8
			v53.1H351v-68.5h7l37.4,54.3c0.6,0.9,1.1,1.7,1.6,2.4c0.5,0.7,0.9,1.4,1.3,2.1h0.2c-0.1-1.1-0.2-2.2-0.3-3.5
			c-0.1-1.3-0.1-2.8-0.1-4.3v-51h6.4v68.5H398z"/>
	</g>
	<g>
		<path d="M148.2,286.5H147v-13h1.2V286.5z"/>
		<path d="M154.9,274.6v11.9h-1.2v-11.9h-3.7v-1.1h8.7v1.1H154.9z"/>
		<path d="M169.5,286.5h-1.2l-4.7-13h1.4l3.7,10.4c0.1,0.2,0.1,0.4,0.2,0.6c0.1,0.2,0.1,0.4,0.1,0.6h0c0-0.2,0.1-0.4,0.1-0.6
			c0.1-0.2,0.1-0.4,0.2-0.7l3.8-10.4h1.3L169.5,286.5z"/>
		<path d="M177.1,286.5h-1.2v-13h1.2V286.5z"/>
		<path d="M180,286.5v-13h3.4c2.2,0,3.9,0.5,5,1.6c1.1,1.1,1.7,2.6,1.7,4.7c0,1-0.2,1.9-0.5,2.7c-0.3,0.8-0.8,1.5-1.4,2.1
			c-0.6,0.6-1.3,1-2.2,1.4c-0.9,0.3-1.8,0.5-2.9,0.5H180z M181.2,274.6v10.8h2c0.9,0,1.7-0.1,2.4-0.4c0.7-0.2,1.3-0.6,1.8-1.1
			c0.5-0.5,0.9-1,1.1-1.7c0.3-0.7,0.4-1.5,0.4-2.4c0-3.5-1.9-5.3-5.6-5.3H181.2z"/>
		<path d="M192.3,286.5v-13h6.3v1.1h-5.1v4.8h4.8v1.1h-4.8v4.9h5.4v1.1H192.3z"/>
		<path d="M206.5,286.8c-0.9,0-1.8-0.2-2.5-0.5s-1.4-0.8-1.9-1.4c-0.5-0.6-0.9-1.3-1.2-2.1c-0.3-0.8-0.4-1.7-0.4-2.6
			c0-1,0.1-1.9,0.4-2.8c0.3-0.8,0.7-1.6,1.2-2.2c0.5-0.6,1.2-1.1,2-1.4c0.8-0.3,1.7-0.5,2.7-0.5c0.9,0,1.7,0.2,2.5,0.5
			c0.7,0.3,1.4,0.8,1.9,1.4c0.5,0.6,0.9,1.3,1.2,2.1c0.3,0.8,0.4,1.7,0.4,2.6c0,1-0.1,1.9-0.4,2.7c-0.3,0.8-0.7,1.6-1.2,2.2
			c-0.5,0.6-1.2,1.1-1.9,1.5C208.4,286.6,207.5,286.8,206.5,286.8z M206.6,274.4c-0.8,0-1.5,0.1-2.1,0.4c-0.6,0.3-1.1,0.7-1.5,1.2
			c-0.4,0.5-0.7,1.1-0.9,1.8c-0.2,0.7-0.3,1.4-0.3,2.2c0,0.7,0.1,1.4,0.3,2.1c0.2,0.7,0.5,1.3,0.9,1.8c0.4,0.5,0.9,0.9,1.5,1.2
			c0.6,0.3,1.3,0.5,2.1,0.5c0.8,0,1.5-0.1,2.1-0.4c0.6-0.3,1.1-0.7,1.5-1.2c0.4-0.5,0.7-1.1,0.9-1.8c0.2-0.7,0.3-1.4,0.3-2.3
			c0-0.8-0.1-1.5-0.3-2.2c-0.2-0.7-0.5-1.3-0.9-1.8c-0.4-0.5-0.9-0.9-1.5-1.2C208.2,274.6,207.5,274.4,206.6,274.4z"/>
		<path d="M219.5,286.5v-13h3.4c2.2,0,3.9,0.5,5,1.6c1.1,1.1,1.7,2.6,1.7,4.7c0,1-0.2,1.9-0.5,2.7c-0.3,0.8-0.8,1.5-1.4,2.1
			c-0.6,0.6-1.3,1-2.2,1.4c-0.9,0.3-1.8,0.5-2.9,0.5H219.5z M220.7,274.6v10.8h2c0.9,0,1.7-0.1,2.4-0.4c0.7-0.2,1.3-0.6,1.8-1.1
			c0.5-0.5,0.9-1,1.1-1.7c0.3-0.7,0.4-1.5,0.4-2.4c0-3.5-1.9-5.3-5.6-5.3H220.7z"/>
		<path d="M231.8,286.5v-13h6.3v1.1h-5.1v4.8h4.8v1.1h-4.8v4.9h5.4v1.1H231.8z"/>
		<path d="M245.2,286.5h-1.2l-4.7-13h1.4l3.7,10.4c0.1,0.2,0.1,0.4,0.2,0.6c0.1,0.2,0.1,0.4,0.1,0.6h0c0-0.2,0.1-0.4,0.1-0.6
			c0.1-0.2,0.1-0.4,0.2-0.7l3.8-10.4h1.3L245.2,286.5z"/>
		<path d="M251.7,286.5v-13h6.3v1.1h-5.1v4.8h4.8v1.1h-4.8v4.9h5.4v1.1H251.7z"/>
		<path d="M260.6,286.5v-13h1.2v11.9h5.2v1.1H260.6z"/>
		<path d="M273.4,286.8c-0.9,0-1.8-0.2-2.5-0.5c-0.8-0.3-1.4-0.8-1.9-1.4c-0.5-0.6-0.9-1.3-1.2-2.1c-0.3-0.8-0.4-1.7-0.4-2.6
			c0-1,0.1-1.9,0.4-2.8c0.3-0.8,0.7-1.6,1.2-2.2c0.5-0.6,1.2-1.1,2-1.4c0.8-0.3,1.7-0.5,2.7-0.5c0.9,0,1.7,0.2,2.5,0.5
			c0.7,0.3,1.4,0.8,1.9,1.4c0.5,0.6,0.9,1.3,1.2,2.1c0.3,0.8,0.4,1.7,0.4,2.6c0,1-0.1,1.9-0.4,2.7c-0.3,0.8-0.7,1.6-1.2,2.2
			c-0.5,0.6-1.2,1.1-1.9,1.5C275.3,286.6,274.4,286.8,273.4,286.8z M273.5,274.4c-0.8,0-1.5,0.1-2.1,0.4c-0.6,0.3-1.1,0.7-1.5,1.2
			c-0.4,0.5-0.7,1.1-0.9,1.8c-0.2,0.7-0.3,1.4-0.3,2.2c0,0.7,0.1,1.4,0.3,2.1c0.2,0.7,0.5,1.3,0.9,1.8c0.4,0.5,0.9,0.9,1.5,1.2
			c0.6,0.3,1.3,0.5,2.1,0.5c0.8,0,1.5-0.1,2.1-0.4c0.6-0.3,1.1-0.7,1.5-1.2c0.4-0.5,0.7-1.1,0.9-1.8c0.2-0.7,0.3-1.4,0.3-2.3
			c0-0.8-0.1-1.5-0.3-2.2c-0.2-0.7-0.5-1.3-0.9-1.8c-0.4-0.5-0.9-0.9-1.5-1.2C275.1,274.6,274.4,274.4,273.5,274.4z"/>
		<path d="M282.9,281.5v5.1h-1.2v-13h3.4c0.7,0,1.3,0.1,1.8,0.3c0.5,0.2,1,0.4,1.3,0.7c0.4,0.3,0.6,0.7,0.8,1.2
			c0.2,0.5,0.3,1,0.3,1.6c0,0.6-0.1,1.2-0.3,1.7c-0.2,0.5-0.5,1-0.9,1.3c-0.4,0.4-0.9,0.7-1.4,0.9c-0.6,0.2-1.2,0.3-1.9,0.3H282.9z
			 M282.9,274.6v5.7h1.7c1.1,0,2-0.3,2.6-0.8c0.6-0.5,0.9-1.3,0.9-2.2c0-1.8-1.1-2.8-3.2-2.8H282.9z"/>
		<path d="M291.5,286.5v-13h6.3v1.1h-5.1v4.8h4.8v1.1h-4.8v4.9h5.4v1.1H291.5z"/>
		<path d="M307.5,286.5l-2-3.7c-0.2-0.4-0.4-0.7-0.6-0.9c-0.2-0.2-0.4-0.4-0.6-0.6c-0.2-0.1-0.4-0.3-0.6-0.3
			c-0.2-0.1-0.5-0.1-0.7-0.1h-1.4v5.7h-1.2v-13h3.7c0.5,0,1,0.1,1.4,0.2c0.5,0.1,0.9,0.4,1.2,0.6c0.4,0.3,0.6,0.6,0.9,1.1
			c0.2,0.4,0.3,0.9,0.3,1.5c0,0.5-0.1,0.9-0.2,1.3c-0.1,0.4-0.3,0.7-0.6,1c-0.3,0.3-0.6,0.6-0.9,0.8c-0.4,0.2-0.8,0.4-1.2,0.5v0
			c0.2,0.1,0.3,0.2,0.5,0.3c0.1,0.1,0.3,0.3,0.4,0.4c0.1,0.2,0.3,0.4,0.4,0.6c0.1,0.2,0.3,0.5,0.4,0.7l2.2,4H307.5z M301.6,274.6
			v5.1h2.2c0.4,0,0.8-0.1,1.2-0.2c0.4-0.1,0.7-0.3,0.9-0.5c0.3-0.2,0.5-0.5,0.6-0.9s0.2-0.7,0.2-1.1c0-0.8-0.2-1.4-0.7-1.8
			c-0.5-0.4-1.2-0.6-2.1-0.6H301.6z"/>
		<path d="M310.2,284.6c0.2,0.2,0.5,0.3,0.7,0.4c0.3,0.1,0.5,0.2,0.8,0.3c0.3,0.1,0.6,0.2,0.8,0.2c0.3,0,0.5,0.1,0.8,0.1
			c1,0,1.7-0.2,2.2-0.6s0.7-0.9,0.7-1.6c0-0.3-0.1-0.6-0.2-0.9c-0.1-0.3-0.3-0.5-0.5-0.7c-0.2-0.2-0.5-0.4-0.9-0.7
			c-0.4-0.2-0.8-0.5-1.3-0.7c-0.6-0.3-1-0.6-1.4-0.9c-0.4-0.3-0.7-0.5-1-0.8c-0.3-0.3-0.4-0.6-0.6-0.9c-0.1-0.3-0.2-0.7-0.2-1.1
			c0-0.5,0.1-1,0.3-1.4c0.2-0.4,0.5-0.8,0.9-1.1c0.4-0.3,0.8-0.5,1.3-0.7c0.5-0.2,1.1-0.2,1.6-0.2c1,0,1.9,0.1,2.6,0.4v1.3
			c-0.8-0.4-1.7-0.7-2.7-0.7c-0.4,0-0.8,0-1.1,0.1c-0.3,0.1-0.6,0.2-0.9,0.4c-0.3,0.2-0.5,0.4-0.6,0.7c-0.1,0.3-0.2,0.6-0.2,0.9
			c0,0.3,0,0.6,0.1,0.9c0.1,0.2,0.3,0.5,0.5,0.7s0.5,0.4,0.9,0.6c0.4,0.2,0.8,0.5,1.3,0.7c0.5,0.3,1,0.6,1.4,0.8
			c0.4,0.3,0.7,0.6,1,0.9c0.3,0.3,0.5,0.6,0.6,1c0.1,0.3,0.2,0.7,0.2,1.1c0,0.6-0.1,1.1-0.3,1.5c-0.2,0.4-0.5,0.8-0.9,1.1
			c-0.4,0.3-0.8,0.5-1.4,0.6c-0.5,0.1-1.1,0.2-1.7,0.2c-0.2,0-0.5,0-0.7,0c-0.3,0-0.6-0.1-0.9-0.1c-0.3-0.1-0.6-0.1-0.8-0.2
			c-0.3-0.1-0.5-0.2-0.6-0.3V284.6z"/>
		<path d="M333.4,286.5l-7.2-10.4c-0.1-0.1-0.2-0.3-0.3-0.4c-0.1-0.1-0.2-0.3-0.2-0.4h0c0,0.1,0,0.3,0,0.5c0,0.2,0,0.4,0,0.7v10.1
			h-1.2v-13h1.3l7.1,10.3c0.1,0.2,0.2,0.3,0.3,0.5c0.1,0.1,0.2,0.3,0.2,0.4h0c0-0.2,0-0.4-0.1-0.7c0-0.2,0-0.5,0-0.8v-9.7h1.2v13
			H333.4z"/>
		<path d="M337.5,286.5v-13h6.3v1.1h-5.1v4.8h4.8v1.1h-4.8v4.9h5.4v1.1H337.5z"/>
		<path d="M350.2,274.6v11.9H349v-11.9h-3.7v-1.1h8.7v1.1H350.2z"/>
		<path d="M367.2,286.5h-1.3l-2.8-9.6c-0.1-0.2-0.1-0.5-0.2-0.7c0-0.2-0.1-0.4-0.1-0.6h0c0,0.4-0.1,0.8-0.3,1.3l-2.9,9.7h-1.3
			l-3.8-13h1.3l2.9,10.2c0.1,0.2,0.1,0.4,0.2,0.6c0,0.2,0.1,0.4,0.1,0.6h0c0-0.3,0.1-0.7,0.3-1.2l3-10.2h1l2.9,10.2
			c0.1,0.2,0.1,0.4,0.1,0.6c0,0.2,0.1,0.4,0.1,0.6h0c0-0.1,0-0.3,0.1-0.4c0-0.2,0.1-0.3,0.1-0.5l2.9-10.5h1.3L367.2,286.5z"/>
		<path d="M377.8,286.8c-0.9,0-1.8-0.2-2.5-0.5c-0.8-0.3-1.4-0.8-1.9-1.4c-0.5-0.6-0.9-1.3-1.2-2.1c-0.3-0.8-0.4-1.7-0.4-2.6
			c0-1,0.1-1.9,0.4-2.8c0.3-0.8,0.7-1.6,1.2-2.2c0.5-0.6,1.2-1.1,2-1.4c0.8-0.3,1.7-0.5,2.7-0.5c0.9,0,1.7,0.2,2.5,0.5
			c0.7,0.3,1.4,0.8,1.9,1.4c0.5,0.6,0.9,1.3,1.2,2.1c0.3,0.8,0.4,1.7,0.4,2.6c0,1-0.1,1.9-0.4,2.7c-0.3,0.8-0.7,1.6-1.2,2.2
			c-0.5,0.6-1.2,1.1-1.9,1.5C379.7,286.6,378.8,286.8,377.8,286.8z M377.9,274.4c-0.8,0-1.5,0.1-2.1,0.4c-0.6,0.3-1.1,0.7-1.5,1.2
			c-0.4,0.5-0.7,1.1-0.9,1.8c-0.2,0.7-0.3,1.4-0.3,2.2c0,0.7,0.1,1.4,0.3,2.1c0.2,0.7,0.5,1.3,0.9,1.8c0.4,0.5,0.9,0.9,1.5,1.2
			c0.6,0.3,1.3,0.5,2.1,0.5c0.8,0,1.5-0.1,2.1-0.4c0.6-0.3,1.1-0.7,1.5-1.2c0.4-0.5,0.7-1.1,0.9-1.8c0.2-0.7,0.3-1.4,0.3-2.3
			c0-0.8-0.1-1.5-0.3-2.2c-0.2-0.7-0.5-1.3-0.9-1.8c-0.4-0.5-0.9-0.9-1.5-1.2C379.5,274.6,378.8,274.4,377.9,274.4z"/>
		<path d="M393.2,286.5l-2-3.7c-0.2-0.4-0.4-0.7-0.6-0.9c-0.2-0.2-0.4-0.4-0.6-0.6c-0.2-0.1-0.4-0.3-0.6-0.3
			c-0.2-0.1-0.5-0.1-0.7-0.1h-1.4v5.7h-1.2v-13h3.7c0.5,0,1,0.1,1.4,0.2c0.5,0.1,0.9,0.4,1.2,0.6c0.4,0.3,0.6,0.6,0.9,1.1
			c0.2,0.4,0.3,0.9,0.3,1.5c0,0.5-0.1,0.9-0.2,1.3c-0.1,0.4-0.3,0.7-0.6,1s-0.6,0.6-0.9,0.8c-0.4,0.2-0.8,0.4-1.2,0.5v0
			c0.2,0.1,0.3,0.2,0.5,0.3c0.1,0.1,0.3,0.3,0.4,0.4c0.1,0.2,0.3,0.4,0.4,0.6c0.1,0.2,0.3,0.5,0.4,0.7l2.2,4H393.2z M387.4,274.6
			v5.1h2.2c0.4,0,0.8-0.1,1.2-0.2c0.4-0.1,0.7-0.3,0.9-0.5c0.3-0.2,0.5-0.5,0.6-0.9s0.2-0.7,0.2-1.1c0-0.8-0.2-1.4-0.7-1.8
			c-0.5-0.4-1.2-0.6-2.1-0.6H387.4z"/>
		<path d="M403.2,286.5l-5.3-6.1c-0.1-0.2-0.2-0.3-0.3-0.4h0v6.5h-1.2v-13h1.2v6.1h0c0-0.1,0.1-0.1,0.1-0.2c0-0.1,0.1-0.1,0.2-0.2
			l5.1-5.7h1.5l-5.6,6.3l6,6.7H403.2z"/>
	</g>
	<polygon class="st0" points="72,248.2 26.2,294.6 26.2,202.8 72,156.4 	"/>
	<polygon class="st1" points="124.4,195.2 78.5,241.7 78.5,149.9 124.4,103.5 	"/>
	<g>
		<g>
			<defs>
				<rect id="SVGID_1_" x="26.2" y="118.8" width="98.2" height="100.4"/>
			</defs>
			<clipPath id="SVGID_2_">
				<use xlink:href="#SVGID_1_"  style="overflow:visible;"/>
			</clipPath>
			<path class="st2" d="M78.5,179.8v1.7c14.9-11.2,29.6-23.9,45.7-38c0.1-0.1,0.1-0.1,0.2-0.2v-1.8c-0.4,0.3-0.7,0.6-1.1,1
				C107.5,156.3,93.1,168.8,78.5,179.8"/>
			<path class="st2" d="M26.2,212.2c16.7-7,31.5-15.8,45.9-26v-1.7c-14.4,10.3-29.2,19.1-45.9,26.2V212.2z"/>
			<path class="st2" d="M26.2,209.7c16.7-7.1,31.5-16,45.9-26.5v-1.7c-14.4,10.6-29.2,19.6-45.9,26.7V209.7z"/>
			<path class="st2" d="M78.5,176.7v1.7c14.4-11.1,28.6-23.6,44.1-37.4c0.6-0.5,1.2-1,1.7-1.6v-1.8c-0.9,0.8-1.8,1.6-2.6,2.3
				C106.5,153.5,92.6,165.8,78.5,176.7"/>
			<path class="st2" d="M26.2,207.3c16.8-7.2,31.6-16.4,45.9-27.2v-1.7c-14.3,10.9-29.1,20.2-45.9,27.4V207.3z"/>
			<path class="st2" d="M78.5,173.3v1.7c14.5-11.6,28.6-24.8,44.2-39.4c0.5-0.5,1.1-1,1.6-1.5v-1.8c-0.9,0.8-1.7,1.6-2.6,2.4
				C106.5,148.9,92.6,161.9,78.5,173.3"/>
			<path class="st2" d="M78.5,163c11.5-9.6,22.2-20,32.5-30.8c0.8-0.9-0.5-2.2-1.3-1.3c-10,10.4-20.2,20.5-31.2,29.8V163z"/>
			<path class="st2" d="M71,169.1c0.4-0.3,0.7-0.6,1-0.9v-2.3c-0.3,0.2-0.6,0.5-0.9,0.8c-9.6,7.6-19.8,14.4-30.1,21.1l-5.9,6
				C47.4,186,59.5,178,71,169.1"/>
			<path class="st2" d="M66,169.1c2.1-1.6,4-3.3,6-5v-2.4c-1.9,1.7-3.9,3.4-5.9,5c-4.5,3.6-9.3,6.8-14.1,10l-5.9,5.9
				C53,178.4,59.7,174,66,169.1"/>
			<path class="st2" d="M101.1,133c-7.3,7.9-14.7,15.7-22.6,22.9v2.5c8.4-7.6,16.2-15.8,23.9-24.1
				C103.2,133.4,101.9,132.1,101.1,133"/>
			<path class="st2" d="M114.2,128.7c3.4-0.6,6.8-1.3,10.1-2.1v-2c-2.3,0.6-4.6,1.1-7,1.6c-6,1.2-12,2-18.1,2.6l-2,2
				C103,130.3,108.6,129.6,114.2,128.7"/>
			<path class="st2" d="M113.8,123c3.6-0.6,7.1-1.4,10.6-2.2v-2c-2.5,0.6-4.9,1.2-7.5,1.7c-3.7,0.7-7.5,1.3-11.2,1.8l-2.1,2.1
				C107,124,110.4,123.6,113.8,123"/>
			<path class="st2" d="M78.5,188.1c15-9.7,29.6-21,45.9-34.6V152c-16.3,13.7-30.9,25-45.9,34.7V188.1z"/>
			<path class="st2" d="M78.5,198.9c15.5-7.5,30.3-16.3,45.9-27.2v-1.4c-15.6,10.9-30.4,19.8-45.9,27.3V198.9z"/>
			<path class="st2" d="M78.5,197.6c14.9-7.6,29.7-16.8,45.9-28.3v-1.4c-16.2,11.6-30.9,20.7-45.9,28.4V197.6z"/>
			<path class="st2" d="M26.2,219.1c16.6-5.1,31.6-10.6,45.9-17.1v-2.4c-4.7,2.2-9.4,4.4-14.2,6.4c4.8-2.1,9.5-4.3,14.2-6.7V198
				c-14,7.1-28.6,13-45.4,18.1c16.4-6.2,31.2-12.9,45.4-20.8V194c-1.7,0.9-3.3,1.9-5,2.8c1.7-0.9,3.3-1.9,5-2.9v-1.3
				c-7.4,4.3-14.8,8.2-22.4,11.8c7.8-3.8,15.1-7.9,22.4-12.3v-1.3c-14.2,8.7-29,16-45.9,22.5V219.1z"/>
			<path class="st2" d="M78.5,195.9c15.3-8.2,30-17.9,45.9-29.6V165c-15.9,11.8-30.6,21.5-45.9,29.7V195.9z"/>
			<path class="st2" d="M78.5,191.6c15.3-9,30.1-19.4,45.9-32.2V158c-15.8,12.8-30.6,23.3-45.9,32.4V191.6z"/>
			<path class="st2" d="M78.5,190.1c14.7-9,29.5-19.8,45.9-33.3v-1.4c-16.4,13.5-31.2,24.3-45.9,33.4V190.1z"/>
		</g>
	</g>
</g>
</svg>
