<?xml version="1.0" encoding="UTF-8"?>
<svg fill="#000000"  viewBox="0 0 95 20" version="1.1" xmlns="http://www.w3.org/2000/svg" xmlns:xlink="http://www.w3.org/1999/xlink">
    <!-- Generator: Sketch 53.2 (72643) - https://sketchapp.com -->
    <title>logo-new</title>
    <desc>Created with Sketch.</desc>
    <g id="Page-1" stroke="none" stroke-width="1" fill="#000000" fill-rule="evenodd">
        <g id="MW-7277---xl" transform="translate(-406.000000, -55.000000)" fill="#000000" fill-rule="nonzero">
            <g id="logo-new" transform="translate(406.000000, 55.000000)">
                <path d="M38.7613636,4.78409091 C39.8636364,5.17045455 40.75,6.01136364 41.1818182,7.10227273 C41.4204545,7.69318182 41.5340909,8.34090909 41.5227273,8.97727273 L41.5227273,15.2954545 L38.7272727,15.2954545 L38.7272727,9.47727273 C38.7272727,8.69318182 38.5340909,8.09090909 38.1590909,7.67045455 C37.7840909,7.25 37.2045455,7.03409091 36.4204545,7.03409091 C35.7386364,7.02272727 35.0909091,7.30681818 34.6477273,7.82954545 C34.1704545,8.36363636 33.9431818,9.06818182 33.9431818,9.95454545 L33.9431818,15.2840909 L31.1363636,15.2840909 L31.1363636,9.47727273 C31.1363636,8.69318182 30.9431818,8.09090909 30.5681818,7.67045455 C30.1931818,7.25 29.6136364,7.03409091 28.8295455,7.03409091 C28.1477273,7.02272727 27.5,7.30681818 27.0568182,7.82954545 C26.5795455,8.36363636 26.3522727,9.06818182 26.3522727,9.95454545 L26.3522727,15.2840909 L23.5568182,15.2840909 L23.5568182,4.76136364 L26.3522727,4.76136364 L26.3522727,5.55681818 C26.7159091,5.21590909 27.1363636,4.96590909 27.5909091,4.79545455 C28.1590909,4.57954545 28.7613636,4.46590909 29.3636364,4.47727273 C30.125,4.46590909 30.875,4.59090909 31.5795455,4.85227273 C32.2045455,5.10227273 32.75,5.52272727 33.1363636,6.06818182 C33.5454545,5.57954545 34.0454545,5.19318182 34.625,4.93181818 C35.2613636,4.625 36.0227273,4.46590909 36.9090909,4.46590909 C37.5340909,4.46590909 38.1704545,4.57954545 38.7613636,4.78409091 Z" id="Path"></path>
                <path d="M50.8522727,4.89772727 C51.5340909,5.15909091 52.1477273,5.55681818 52.6704545,6.05681818 C53.1818182,6.55681818 53.5909091,7.15909091 53.8636364,7.81818182 C54.1590909,8.52272727 54.3068182,9.27272727 54.2954545,10.0340909 C54.3068182,10.7954545 54.1590909,11.5454545 53.8636364,12.2386364 C53.5795455,12.8977273 53.1818182,13.4886364 52.6704545,13.9886364 C52.1477273,14.4886364 51.5340909,14.8863636 50.8522727,15.1477273 C49.3863636,15.7045455 47.7727273,15.7045455 46.3068182,15.1477273 C45.625,14.8863636 45.0113636,14.4886364 44.4886364,13.9886364 C43.9772727,13.4886364 43.5681818,12.8977273 43.2954545,12.2386364 C43,11.5454545 42.8522727,10.7840909 42.8636364,10.0340909 C42.8522727,9.27272727 43,8.52272727 43.2954545,7.81818182 C43.5681818,7.15909091 43.9772727,6.55681818 44.4886364,6.05681818 C45.0113636,5.55681818 45.625,5.15909091 46.3068182,4.89772727 C47.7613636,4.34090909 49.3863636,4.34090909 50.8522727,4.89772727 L50.8522727,4.89772727 Z M47.4204545,7.27272727 C47.0795455,7.42045455 46.7613636,7.625 46.4886364,7.88636364 C46.2159091,8.15909091 46.0113636,8.47727273 45.8636364,8.82954545 C45.7159091,9.21590909 45.6363636,9.63636364 45.6363636,10.0454545 C45.6363636,10.4545455 45.7045455,10.8636364 45.8636364,11.25 C46,11.6022727 46.2159091,11.9204545 46.4886364,12.1818182 C47.6590909,13.3068182 49.5,13.3068182 50.6590909,12.1818182 C50.9318182,11.9204545 51.1363636,11.6022727 51.2840909,11.25 C51.4318182,10.8636364 51.5113636,10.4545455 51.5113636,10.0454545 C51.5113636,9.625 51.4431818,9.21590909 51.2840909,8.82954545 C51.1477273,8.47727273 50.9318182,8.15909091 50.6590909,7.88636364 C49.7954545,7.05681818 48.5227273,6.82954545 47.4204545,7.27272727 Z" id="Shape"></path>
                <polygon id="Path" points="58.9204545 15.3068182 54.0568182 4.77272727 57.1363636 4.77272727 60.2840909 11.5568182 63.4318182 4.76136364 66.4090909 4.76136364 61.5454545 15.2954545"></polygon>
                <path d="M66.6477273,7.96590909 C66.8863636,7.31818182 67.2386364,6.71590909 67.7045455,6.19318182 C68.1818182,5.67045455 68.7613636,5.23863636 69.3977273,4.95454545 C70.1136364,4.63636364 70.8863636,4.47727273 71.6704545,4.48863636 C72.25,4.48863636 72.8409091,4.57954545 73.3863636,4.77272727 C73.8977273,4.94318182 74.3636364,5.21590909 74.75,5.59090909 L74.75,4.77272727 L77.5454545,4.77272727 L77.5454545,15.3068182 L74.75,15.3068182 L74.75,14.5113636 C74.3636364,14.8863636 73.8977273,15.1590909 73.3863636,15.3181818 C72.0795455,15.75 70.6590909,15.6818182 69.3977273,15.125 C68.75,14.8295455 68.1704545,14.4204545 67.7045455,13.8977273 C67.2386364,13.3863636 66.8863636,12.7840909 66.6477273,12.1363636 C66.1590909,10.7840909 66.1590909,9.30681818 66.6477273,7.96590909 L66.6477273,7.96590909 Z M69.2840909,11.1818182 C69.4204545,11.5340909 69.6136364,11.8522727 69.8636364,12.1363636 C70.1136364,12.4090909 70.4090909,12.6363636 70.75,12.7840909 C71.1136364,12.9431818 71.5,13.0227273 71.8863636,13.0227273 C72.2613636,13.0227273 72.625,12.9545455 72.9772727,12.8295455 C73.3295455,12.7045455 73.6477273,12.5227273 73.9318182,12.2727273 C74.2272727,12.0227273 74.4545455,11.7045455 74.6136364,11.3522727 C74.7954545,10.9431818 74.875,10.4886364 74.8636364,10.0454545 C74.875,9.59090909 74.7840909,9.14772727 74.6136364,8.73863636 C74.4545455,8.38636364 74.2159091,8.06818182 73.9318182,7.80681818 C73.6590909,7.55681818 73.3295455,7.36363636 72.9772727,7.23863636 C72.625,7.11363636 72.2613636,7.04545455 71.8977273,7.04545455 C71.5,7.04545455 71.1136364,7.125 70.7613636,7.29545455 C70.4204545,7.45454545 70.1136364,7.68181818 69.8636364,7.95454545 C69.0909091,8.84090909 68.8636364,10.0909091 69.2840909,11.1818182 L69.2840909,11.1818182 Z" id="Shape"></path>
                <polygon id="Path" points="83.4204545 15.3068182 78.5568182 4.77272727 81.6363636 4.77272727 84.7840909 11.5568182 87.9318182 4.76136364 90.9090909 4.76136364 86.0454545 15.2954545"></polygon>
                <path d="M94.9431818,0.0113636364 L94.9431818,3.05681818 L91.8863636,3.05681818 L91.8863636,0.0113636364 L94.9431818,0.0113636364 Z M94.8068182,15.3068182 L92.0113636,15.3068182 L92.0113636,4.76136364 L94.8068182,4.76136364 L94.8068182,15.3068182 Z" id="Shape"></path>
                <circle id="Oval" cx="9.11363636" cy="4.52272727" r="3.31818182"></circle>
                <circle id="Oval" cx="9.11363636" cy="15.9772727" r="3.31818182"></circle>
                <circle id="Oval" cx="14.8409091" cy="10.25" r="3.31818182"></circle>
                <circle id="Oval" cx="3.38636364" cy="10.25" r="3.31818182"></circle>
            </g>
        </g>
    </g>
</svg>
