<?xml version="1.0" encoding="utf-8"?>
<!-- Generator: Adobe Illustrator 22.0.1, SVG Export Plug-In . SVG Version: 6.00 Build 0)  -->
<svg version="1.1" id="SIG_color" xmlns="http://www.w3.org/2000/svg" xmlns:xlink="http://www.w3.org/1999/xlink" x="0px" y="0px"
	 viewBox="0 0 250 74.8" style="enable-background:new 0 0 250 74.8;" xml:space="preserve">
<g>
	<g>
		<path d="M54.5,74v-1.7c1.1,0.4,2,0.7,2.7,0.7c0.5,0,0.9-0.1,1.2-0.4c0.3-0.2,0.5-0.6,0.5-1c0-0.3-0.1-0.6-0.3-0.8
			c-0.2-0.2-0.6-0.5-1.1-0.8l-0.7-0.4c-0.9-0.5-1.5-1-1.9-1.4s-0.5-1-0.5-1.6c0-0.8,0.3-1.5,0.9-1.9c0.6-0.5,1.4-0.7,2.4-0.7
			c0.8,0,1.7,0.1,2.6,0.3V66c-1-0.4-1.8-0.6-2.4-0.6c-0.4,0-0.8,0.1-1.1,0.3s-0.4,0.5-0.4,0.8s0.1,0.5,0.3,0.7
			c0.2,0.2,0.5,0.5,1.1,0.7l0.7,0.4c0.9,0.5,1.6,1,2,1.5s0.5,1,0.5,1.6c0,0.9-0.3,1.6-1,2.1s-1.6,0.8-2.8,0.8
			C56.5,74.3,55.6,74.2,54.5,74z"/>
		<path d="M63.1,74.1v-9.8h3.4c1.2,0,2,0.2,2.6,0.6c0.5,0.4,0.8,1.1,0.8,2c0,1.1-0.3,1.9-1,2.5s-1.6,0.9-2.9,0.9h-0.8v3.8H63.1
			L63.1,74.1z M65.1,68.9h0.4c0.7,0,1.2-0.2,1.7-0.5c0.4-0.3,0.6-0.8,0.6-1.3c0-1-0.6-1.5-1.9-1.5h-0.8L65.1,68.9L65.1,68.9z"/>
		<path d="M71.7,74.1v-9.8h6.1v1.3h-4.1v2.7h3.4v1.3h-3.4v3h4.4V74L71.7,74.1L71.7,74.1z"/>
		<path d="M88,73.7c-0.9,0.4-2.1,0.6-3.4,0.6c-1.6,0-2.9-0.5-3.8-1.4s-1.3-2.2-1.3-3.8c0-1.7,0.5-2.9,1.4-3.8s2.2-1.3,3.9-1.3
			c1.1,0,2.1,0.1,3.2,0.4V66c-1.2-0.4-2.2-0.6-3-0.6c-1,0-1.8,0.3-2.4,1s-0.8,1.6-0.8,2.8c0,1.2,0.3,2.1,0.9,2.8s1.4,1,2.5,1
			c1,0,1.9-0.2,2.9-0.7L88,73.7L88,73.7z"/>
		<path d="M90,74.1v-9.8h2v9.8C92.1,74.1,90,74.1,90,74.1z"/>
		<path d="M93.7,74.1l3.8-9.8h2l3.8,9.8h-2.1l-1-2.6h-4.1l-1,2.6C95.2,74.1,93.7,74.1,93.7,74.1z M96.7,70.2h3l-1.5-3.9L96.7,70.2z"
			/>
		<path d="M105.1,74.1v-9.8h2v8.4h4.4v1.4H105.1z"/>
		<path d="M118,74.1v-9.8h2v9.8H118z"/>
		<path d="M122.7,74.1v-9.8h1.8L129,71v-6.7h1.6v9.8h-1.8l-4.5-6.7v6.7C124.4,74.1,122.7,74.1,122.7,74.1z"/>
		<path d="M135.8,74.1v-8.5h-3.5v-1.3h9.1v1.3h-3.5v8.5H135.8z"/>
		<path d="M143,74.1v-9.8h6.1v1.3H145v2.7h3.4v1.3H145v3h4.4V74L143,74.1L143,74.1z"/>
		<path d="M151.5,74.1v-9.8h3.7c2,0,3,0.8,3,2.4c0,0.6-0.2,1.2-0.5,1.7s-0.8,0.9-1.4,1.1l3.2,4.6H157l-2.4-4h-1.1v4
			C153.4,74.1,151.5,74.1,151.5,74.1z M153.4,68.7h0.5c1.5,0,2.2-0.6,2.2-1.8c0-0.9-0.7-1.3-2-1.3h-0.7V68.7L153.4,68.7z"/>
		<path d="M161.1,74.1v-9.8h6.1v1.3h-4.1v2.7h3.4v1.3h-3.4v3h4.4V74L161.1,74.1L161.1,74.1z"/>
		<path d="M168.9,74v-1.7c1.1,0.4,2,0.7,2.7,0.7c0.5,0,0.9-0.1,1.2-0.4c0.3-0.2,0.5-0.6,0.5-1c0-0.3-0.1-0.6-0.3-0.8
			c-0.2-0.2-0.6-0.5-1.1-0.8l-0.7-0.4c-0.9-0.5-1.5-1-1.9-1.4c-0.4-0.5-0.5-1-0.5-1.6c0-0.8,0.3-1.5,0.9-1.9
			c0.6-0.5,1.4-0.7,2.4-0.7c0.8,0,1.7,0.1,2.6,0.3V66c-1-0.4-1.8-0.6-2.4-0.6c-0.4,0-0.8,0.1-1.1,0.3s-0.4,0.5-0.4,0.8
			s0.1,0.5,0.3,0.7s0.5,0.5,1.1,0.7l0.7,0.4c0.9,0.5,1.6,1,2,1.5c0.4,0.4,0.5,1,0.5,1.6c0,0.9-0.3,1.6-1,2.1s-1.6,0.8-2.8,0.8
			C170.9,74.3,170,74.2,168.9,74z"/>
		<path d="M179.9,74.1v-8.5h-3.5v-1.3h9.1v1.3H182v8.5H179.9z"/>
		<path d="M199.7,73.9c-1.2,0.3-2.3,0.5-3.2,0.5c-1.7,0-3-0.4-3.9-1.3s-1.4-2.2-1.4-3.8c0-1.6,0.5-2.9,1.4-3.8s2.2-1.3,3.9-1.3
			c1.1,0,2.1,0.1,3.2,0.4V66c-1.2-0.4-2.2-0.6-3-0.6c-1,0-1.8,0.3-2.4,1s-0.8,1.6-0.8,2.8c0,1.2,0.3,2.1,0.9,2.8s1.4,1,2.5,1
			c0.2,0,0.5,0,0.8-0.1v-3.2h2V73.9L199.7,73.9z"/>
		<path d="M202.3,74.1v-9.8h3.7c2,0,3,0.8,3,2.4c0,0.6-0.2,1.2-0.5,1.7s-0.8,0.9-1.4,1.1l3.2,4.6h-2.5l-2.4-4h-1.1v4
			C204.2,74.1,202.3,74.1,202.3,74.1z M204.2,68.7h0.5c1.5,0,2.2-0.6,2.2-1.8c0-0.9-0.7-1.3-2-1.3h-0.7V68.7L204.2,68.7z"/>
		<path d="M216.2,74.3c-1.5,0-2.7-0.5-3.6-1.4c-0.9-0.9-1.3-2.2-1.3-3.7c0-1.6,0.4-2.8,1.3-3.8c0.9-0.9,2.1-1.4,3.6-1.4
			s2.7,0.5,3.6,1.4c0.9,0.9,1.3,2.2,1.3,3.7c0,1.6-0.4,2.9-1.3,3.8C219,73.9,217.7,74.3,216.2,74.3z M216.2,73c0.9,0,1.6-0.3,2.1-1
			s0.8-1.6,0.8-2.8c0-1.1-0.3-2.1-0.8-2.7c-0.5-0.7-1.2-1-2-1c-0.9,0-1.5,0.3-2,1s-0.8,1.6-0.8,2.8c0,1.1,0.3,2.1,0.8,2.8
			C214.7,72.6,215.4,73,216.2,73z"/>
		<path d="M223.2,64.3h2v6c0,0.9,0.2,1.6,0.5,2.1c0.3,0.4,0.8,0.6,1.5,0.6s1.1-0.2,1.4-0.6c0.3-0.4,0.4-1,0.4-1.9v-6.2h1.8v6
			c0,0.9-0.1,1.6-0.3,2.1s-0.5,0.9-0.9,1.2c-0.6,0.5-1.5,0.7-2.5,0.7c-1.1,0-2-0.3-2.7-0.8c-0.5-0.4-0.8-0.8-1-1.3s-0.3-1.2-0.3-2
			L223.2,64.3L223.2,64.3z"/>
		<path d="M233.6,74.1v-9.8h3.4c1.2,0,2,0.2,2.6,0.6c0.5,0.4,0.8,1.1,0.8,2c0,1.1-0.3,1.9-1,2.5s-1.6,0.9-2.9,0.9h-0.8v3.8H233.6
			L233.6,74.1L233.6,74.1z M235.6,68.9h0.4c0.7,0,1.2-0.2,1.7-0.5c0.4-0.3,0.6-0.8,0.6-1.3c0-1-0.6-1.5-1.9-1.5h-0.8L235.6,68.9
			L235.6,68.9z"/>
	</g>
	<g>
		<path d="M61.3,34.7h2.4c4.4,0,6,2.2,6,6.6c0,4.3-1.4,6.6-5.3,6.6h-3.1V34.7L61.3,34.7z M61.3,17.2h2.8c3.3,0,4.8,2.1,4.8,6
			c0,3.5-2.1,5.4-4.9,5.4h-2.7L61.3,17.2L61.3,17.2z M54,53.8h11.6c8.3,0,11.5-5.3,11.5-12.4c0-5.5-2.2-8.5-5.9-10.1
			c3.5-1.4,5.1-5.3,5.1-8.9c0-7.3-3.5-11.3-11.4-11.3H54V53.8L54,53.8z"/>
		<polygon points="86.6,53.8 86.6,11.1 80,11.1 80,53.8 		"/>
		<path d="M104.3,22v25c-1.5,1.1-2.8,2-4.3,2s-2.4-0.7-2.4-2.3V22H91v25.7c0,4.1,2.1,6.7,5.6,6.7c3.8,0,5.3-1.4,8-3.8v3.2h6.3V22
			H104.3L104.3,22z"/>
		<path d="M121.6,33.7V32c0-3.7,1.3-5.2,3.7-5.2s3.7,1.5,3.7,5.2v1.7H121.6L121.6,33.7z M135.6,33.2c0-7-2.7-11.8-10.3-11.8
			S115,26.2,115,33.2v9.3c0,7,2.7,11.8,10.3,11.8c7.4,0,10.2-4.6,10.3-11.4H129v0.7c0,3.7-1.3,5.2-3.7,5.2s-3.7-1.5-3.7-5.2V39h14
			V33.2L135.6,33.2z"/>
		<path d="M141.4,27.5v19.8c0,4.9,2.8,7.2,7.7,7.2c1.7,0,2.4-0.1,3.3-0.4v-5.7h-2.2c-1.5,0-2.2-0.9-2.2-2.6V27.5h4.4V22H148v-8.6
			h-6.6V22h-3.7v5.4L141.4,27.5L141.4,27.5z"/>
		<path d="M169.2,43.8c0,3.7-1.3,5.2-3.7,5.2s-3.7-1.5-3.7-5.2V32.1c0-3.7,1.3-5.2,3.7-5.2s3.7,1.5,3.7,5.2V43.8L169.2,43.8z
			 M155.2,42.6c0,7,2.7,11.8,10.3,11.8s10.3-4.8,10.3-11.8v-9.3c0-7-2.7-11.8-10.3-11.8s-10.3,4.8-10.3,11.8V42.6L155.2,42.6z"/>
		<path d="M193.2,43.8c0,3.7-1.3,5.2-3.7,5.2s-3.7-1.5-3.7-5.2V32.1c0-3.7,1.3-5.2,3.7-5.2s3.7,1.5,3.7,5.2V43.8L193.2,43.8z
			 M179.3,42.6c0,7,2.7,11.8,10.3,11.8s10.3-4.8,10.3-11.8v-9.3c0-7-2.7-11.8-10.3-11.8s-10.3,4.8-10.3,11.8V42.6L179.3,42.6z"/>
		<path d="M205.5,27.5v19.8c0,4.9,2.8,7.2,7.7,7.2c1.7,0,2.4-0.1,3.3-0.4v-5.7h-2.2c-1.5,0-2.2-0.9-2.2-2.6V27.5h4.4V22h-4.4v-8.6
			h-6.6V22h-3.7v5.4L205.5,27.5L205.5,27.5z"/>
		<path d="M227.3,53.8v-25c1.5-1.1,2.8-2,4.3-2c1.4,0,2.4,0.7,2.4,2.3v24.7h6.6V28.1c0-4.1-2.1-6.7-5.6-6.7c-3.8,0-5.3,1.4-7.7,3.5
			V11.1h-6.6v42.7H227.3L227.3,53.8z"/>
		<path d="M24.2,16.3l4.9,4.9L24.2,26V16.3L24.2,16.3z M24.2,46.2l4.9-4.9l-4.9-4.9V46.2L24.2,46.2z M19,31.2L8.4,20.6l3.1-3.1
			l8.4,8.4V5.8l15.3,15.3L25.1,31.2l10.1,10.1L19.9,56.7V36.5l-8.4,8.4l-3.1-3.1L19,31.2L19,31.2z M21.8,60.8
			c12.9,0,21.8-6.1,21.8-29.6c0-23.4-8.9-29.6-21.8-29.6C8.9,1.7,0,7.8,0,31.2C0,54.7,8.9,60.8,21.8,60.8L21.8,60.8z"/>
	</g>
	<path d="M250,15.7c0,2.5-2.2,4.7-4.7,4.7c-2.6,0-4.7-2-4.7-4.7c0-2.6,2.1-4.7,4.7-4.7C248,11,250,13.1,250,15.7z M241.7,15.7
		c0,2,1.6,3.7,3.6,3.7s3.6-1.6,3.6-3.6s-1.6-3.7-3.6-3.7C243.3,12,241.7,13.7,241.7,15.7z M246.2,18.2l-1.4-2.3h-0.1v2.3h-0.9v-5.1
		h1.6c1.2,0,1.7,0.5,1.7,1.3c0,0.9-0.5,1.4-1.4,1.5c0.1,0.1,0.3,0.4,0.5,0.7l1.1,1.6L246.2,18.2L246.2,18.2z M245.3,13.8h-0.6v1.6
		h0.4c0.8,0,1.1-0.5,1.1-0.9C246.1,14,245.9,13.8,245.3,13.8z"/>
</g>
</svg>
