<svg width="143" height="25" viewBox="0 0 143 25" fill="none" xmlns="http://www.w3.org/2000/svg">
<path d="M17.6953 0L9.78784 7.71853L17.6953 15.4407L25.601 7.71853L17.6953 0Z" fill="#555"/>
<path d="M17.6941 15.4414L19.5754 17.2785L27.4819 9.55897L25.5996 7.71899L17.6941 15.4414Z" fill="#999"/>
<path d="M0 17.2787L7.90646 25.0001L17.6953 15.4416L9.78781 7.71924L0 17.2787Z" fill="#000"/>
<path d="M19.5745 17.2788L27.4829 25.0002L35.3874 17.2788L27.4829 9.55933L19.5745 17.2788Z" fill="#000"/>
<path d="M37.27 0L27.4832 9.55851L35.3876 17.2787L45.1764 7.71853L37.27 0Z" fill="#555"/>
<path d="M95.6459 9.2463C95.4507 8.98368 95.2153 8.75163 94.948 8.5582C94.6324 8.33658 94.2846 8.16192 93.9161 8.03999C93.4767 7.8882 93.0188 7.79258 92.5541 7.75556C91.7976 7.68544 91.0379 7.65223 90.278 7.65606C89.5512 7.65606 88.8089 7.67202 88.0424 7.70111C87.2789 7.72926 86.6264 7.74711 86.0965 7.74711C85.5868 7.74711 84.9121 7.73584 84.0791 7.7152C84.0791 8.50751 84.0668 9.57456 84.0424 10.9164C84.0154 12.2588 83.9748 13.5342 83.9208 14.7427C83.8686 15.9519 83.8046 17.0139 83.7287 17.9289C83.6572 18.847 83.5575 19.8774 83.4294 21.0202C84.4343 21.0052 85.1293 20.9987 85.5183 20.9987C85.8494 20.9987 86.5704 21.0059 87.6814 21.0202C87.7017 19.1737 87.7458 17.2924 87.8137 15.3764C87.8774 13.4576 87.9537 11.8338 88.0425 10.5052C88.3764 10.4977 88.6651 10.4864 88.9133 10.477C89.1652 10.4676 89.4046 10.4629 89.6401 10.4629C90.1517 10.4438 90.6635 10.497 91.1594 10.6206C91.4489 10.6947 91.7044 10.861 91.8853 11.0929C92.0386 11.3086 92.1183 11.5657 92.1131 11.8279C92.1109 12.165 92.0054 12.4938 91.81 12.7723C91.5919 13.0827 91.2763 13.3162 90.9104 13.4379C90.4866 13.5853 90.039 13.6578 89.589 13.6519C89.2334 13.65 88.8787 13.6174 88.5291 13.5543L89.5581 16.3133C89.8708 17.1432 90.107 17.79 90.2665 18.2537C90.3486 18.4602 90.4441 18.7531 90.5561 19.1408C90.8399 20.0571 91.0309 20.6795 91.1372 21.0202C92.2289 21.0052 93.014 20.998 93.4924 20.9987C93.8708 20.9987 94.6112 21.0052 95.7077 21.0202C95.5533 20.6569 95.4481 20.4119 95.3882 20.2871L94.0512 17.4332C93.8843 17.0727 93.7288 16.7235 93.5802 16.3789L93.059 15.1416C93.6035 14.9481 94.1248 14.6978 94.614 14.3952C94.9718 14.164 95.2824 13.8702 95.53 13.5288C95.7698 13.204 95.9506 12.8417 96.0648 12.4576C96.1803 12.0587 96.2378 11.646 96.2356 11.2316C96.2384 10.8615 96.1867 10.4929 96.0822 10.137C95.9897 9.81817 95.8421 9.51692 95.6459 9.24613" fill="black"/>
<path d="M77.4297 7.71484C77.395 7.71484 77.3622 8.23586 77.3207 9.26848C77.2724 10.3387 77.2087 11.5159 77.1199 12.7982C77.0215 14.3068 76.9432 15.2747 76.8796 15.7018C76.8428 16.05 76.7631 16.3926 76.6421 16.7222C76.5529 16.97 76.4282 17.2042 76.2714 17.4179C76.1605 17.572 76.0261 17.7087 75.8728 17.8234C75.6947 17.9517 75.4956 18.0497 75.284 18.1135C74.9938 18.2004 74.6918 18.2437 74.3882 18.2421C74.0227 18.2432 73.6597 18.1835 73.3148 18.0656C73.0015 17.9693 72.7225 17.7891 72.5098 17.5455C72.3088 17.2995 72.1726 17.0095 72.1131 16.7006C72.0315 16.2932 71.9946 15.8784 72.003 15.4634C72.003 15.2043 72.0166 14.7311 72.0473 14.0515C72.0753 13.369 72.1226 12.6358 72.1805 11.8577L72.4798 7.71492C71.5927 7.72898 70.8845 7.73587 70.3552 7.73556C69.9276 7.73556 69.1956 7.72868 68.1592 7.71492L67.9796 11.5648C67.9381 12.3571 67.9005 12.9607 67.8686 13.3691L67.7374 14.9274C67.6949 15.5207 67.663 15.9732 67.6486 16.2905C67.6341 16.6031 67.6283 16.8378 67.6283 16.9936C67.6254 17.4322 67.6862 17.8689 67.8088 18.291C67.9002 18.6195 68.0487 18.9303 68.248 19.21C68.4685 19.5026 68.7377 19.7573 69.0443 19.9638C69.4585 20.2518 69.9091 20.4865 70.385 20.6623C70.9423 20.8737 71.5217 21.0254 72.1128 21.1148C72.8248 21.2209 73.5441 21.2739 74.2644 21.2734C75.0913 21.2724 75.9167 21.2037 76.7317 21.0678C77.4904 20.9483 78.2249 20.7132 78.9084 20.3713C79.4661 20.1044 79.9613 19.7286 80.363 19.2673C80.7043 18.8389 80.9481 18.3448 81.0783 17.8178C81.2606 16.8746 81.3466 15.9162 81.3351 14.9565C81.3351 14.873 81.3379 14.7652 81.3447 14.6346L81.8302 7.71496H77.4297V7.71484Z" fill="black"/>
<path d="M59.6257 13.2612C59.6257 13.6846 59.6189 14.0173 59.6054 14.2591C59.5929 14.5032 59.5813 14.6919 59.5793 14.8224L59.506 16.0184L60.5668 16.009C60.648 16.009 60.9037 16.0184 61.3371 16.039L61.2252 18.155C60.5897 18.3166 59.9361 18.4017 59.2792 18.4086C58.6094 18.4173 57.9462 18.2777 57.34 18.0002C56.7897 17.7537 56.3427 17.3313 56.0736 16.8033C55.7981 16.2455 55.6609 15.6327 55.673 15.014C55.6706 14.3752 55.7897 13.7415 56.0244 13.1449C56.2501 12.5642 56.6105 12.0419 57.0775 11.6186C57.5588 11.1875 58.132 10.8647 58.7561 10.6733C59.429 10.4674 60.1308 10.3645 60.8362 10.3682C61.1142 10.3682 61.4308 10.3832 61.7889 10.417C62.1432 10.4461 62.5216 10.4987 62.9164 10.5662C63.3121 10.6339 63.6606 10.7098 63.9569 10.7897C64.2513 10.8723 64.6374 10.9915 65.1181 11.1455C65.0322 9.98141 64.9877 8.92718 64.9877 7.97717C63.3951 7.65387 61.7738 7.48221 60.1469 7.4646C58.1517 7.4646 56.5223 7.7941 55.2588 8.45311C54.0514 9.06348 53.0462 9.99354 52.3591 11.1359C51.6916 12.2515 51.3434 13.5205 51.3504 14.8112C51.3503 15.5987 51.477 16.3814 51.7259 17.1308C51.9513 17.8366 52.3122 18.4944 52.7897 19.0694C53.256 19.622 53.8438 20.066 54.5098 20.3686C55.2534 20.7024 56.0407 20.9352 56.8496 21.0605C57.7311 21.2027 58.6231 21.2739 59.5166 21.2736C60.0697 21.2736 60.6962 21.251 61.4018 21.1994C62.1054 21.1496 62.7136 21.0971 63.2145 21.0323C63.7174 20.9732 64.3506 20.8746 65.1142 20.7366C65.1354 19.9058 65.1911 18.6748 65.2812 17.0435C65.37 15.4119 65.4578 14.155 65.5456 13.2612C64.7483 13.2753 63.6441 13.2821 62.2329 13.2818C61.4076 13.2818 60.5385 13.2749 59.6257 13.2612" fill="black"/>
<path d="M106.336 7.72636L103.87 7.73573C101.356 7.73573 99.1535 7.72885 97.2639 7.71509C97.2504 8.40409 97.2301 9.03775 97.203 9.61607L97.1558 10.6966L101.407 10.5914C101.338 14.3868 101.138 17.8631 100.807 21.0201C102.052 21.006 102.817 20.9989 103.104 20.9986C103.423 20.9986 104.13 21.0061 105.218 21.0201C105.218 20.209 105.239 19.147 105.281 17.834C105.319 16.5188 105.375 15.1645 105.45 13.771C105.501 12.7975 105.581 11.7367 105.68 10.5915H106.378C107.301 10.5915 108.475 10.6266 109.9 10.6967C109.9 10.5277 109.903 10.2742 109.915 9.93816C109.923 9.60482 109.941 9.18238 109.968 8.67084L110.03 7.71518L108.731 7.72645L106.336 7.72636Z" fill="black"/>
<path d="M121.62 11.7802L120.162 7.71443C119.362 7.72945 118.497 7.73596 117.556 7.73596C117.415 7.73596 117.251 7.73596 117.064 7.73314C116.545 7.73031 115.854 7.72405 114.991 7.71436C114.705 8.30109 114.484 8.75076 114.324 9.06055L113.776 10.1252L108.615 19.616L107.786 21.0195C108.91 21.0054 109.725 20.9985 110.231 20.9988C110.512 20.9988 111.268 21.0054 112.502 21.0195C113.126 19.6432 113.726 18.3837 114.304 17.2409H119.335C119.888 18.6875 120.31 19.947 120.603 21.0195C121.688 21.0054 122.51 20.9985 123.068 20.9988C123.314 20.9988 124.013 21.0057 125.163 21.0195L124.585 19.5944L121.62 11.7802ZM117.064 14.4022H115.513L116.231 12.9622C116.466 12.4844 116.747 11.908 117.064 11.2274C117.155 11.0312 117.252 10.8256 117.349 10.6143C117.419 10.8462 117.841 12.1089 118.616 14.4022H117.064Z" fill="black"/>
<path d="M137.35 7.71489C137.183 8.31569 137.054 8.75785 136.955 9.04505C136.86 9.33609 136.632 9.94722 136.272 10.8831C135.912 11.8172 135.613 12.6518 135.375 13.3868C135.137 14.1237 134.866 14.9987 134.576 16.0182C134.29 14.5321 134.076 13.4816 133.933 12.8668C133.789 12.2519 133.6 11.5243 133.365 10.6841C133.127 9.84302 132.979 9.27694 132.919 8.98591C132.859 8.69584 132.785 8.27339 132.698 7.71484C131.508 7.72891 130.62 7.73549 130.044 7.73549C129.344 7.73549 128.384 7.72891 127.156 7.71484L126.845 12.2152L126.23 19.0503L125.981 21.0198C126.834 21.0057 127.432 20.9985 127.777 20.9982C128.032 20.9982 128.616 21.0057 129.535 21.0198L129.566 19.774L129.894 14.2354L130.144 11.5355C130.216 11.9439 130.271 12.2302 130.301 12.3935C130.336 12.5559 130.367 12.693 130.394 12.8019L131.114 15.6605L132.339 21.0198C133.19 21.0058 133.825 20.9983 134.236 20.9983C134.561 20.9983 135.157 21.0058 136.022 21.0198L137.899 15.484L139.207 11.5169C139.217 11.99 139.223 12.3599 139.223 12.6284C139.223 13.2386 139.187 14.6448 139.105 16.8453C139.026 19.0429 138.96 20.4345 138.906 21.02C139.653 21.0059 140.281 20.9985 140.793 20.9985C141.146 20.9985 141.762 21.0056 142.642 21.02C142.627 20.3929 142.622 19.9564 142.622 19.7104C142.622 18.5586 142.665 16.441 142.751 13.3578C142.791 11.7873 142.875 9.90633 143 7.71496C141.84 7.72903 140.939 7.73561 140.284 7.73561C139.325 7.73561 138.347 7.72873 137.35 7.71496" fill="black"/>
</svg>
