<?xml version="1.0" encoding="UTF-8"?>
<svg width="1130px" height="160px" viewBox="0 0 1130 160" version="1.1" xmlns="http://www.w3.org/2000/svg" xmlns:xlink="http://www.w3.org/1999/xlink">
    <!-- Generator: Sketch 49 (51002) - http://www.bohemiancoding.com/sketch -->
    <title>logo_black_transparent copy 2</title>
    <desc>Created with Sketch.</desc>
    <defs></defs>
    <g id="logo_black_transparent-copy-2" stroke="none" stroke-width="1" fill="none" fill-rule="evenodd">
        <path d="M125.495374,1 L156.082723,1 C159.241996,1 161.880667,1.71818173 163.998815,3.15456674 C166.116964,4.59095176 167.499125,6.49413335 168.14534,8.86416862 L189.685726,90.7377049 C190.331941,93.3950172 190.978146,96.231835 191.624361,99.2482436 C192.270576,102.264652 192.916781,105.424652 193.562996,108.728337 C194.855426,101.977328 196.435038,95.9805102 198.301881,90.7377049 L223.719537,8.86416862 C224.365752,6.8532296 225.747913,5.03982073 227.866062,3.42388759 C229.98421,1.80795445 232.551081,1 235.56675,1 L246.336943,1 C249.496216,1 252.045136,1.73613628 253.983781,3.20843091 C255.922425,4.68072555 257.394337,6.5659526 258.39956,8.86416862 L283.601812,90.7377049 C285.468655,95.7650525 287.048268,101.474597 288.340698,107.866511 C288.915111,104.706464 289.507465,101.6901 290.117779,98.8173302 C290.728093,95.9445602 291.356348,93.2513787 292.002563,90.7377049 L313.54295,8.86416862 C314.117363,6.78141035 315.481574,4.95004693 317.635623,3.37002342 C319.789673,1.78999991 322.374493,1 325.390163,1 L354.038877,1 L305.573007,157.960187 L272.616215,157.960187 L243.105885,60.6814988 C242.028861,57.5932711 240.987752,54.0382715 239.982529,50.0163934 C238.977306,54.0382715 237.936198,57.5932711 236.859173,60.6814988 L206.918036,157.960187 L173.961244,157.960187 L125.495374,1 Z M499.221083,157.960187 L471.003177,157.960187 C467.843904,157.960187 465.294984,157.224051 463.35634,155.751756 C461.417695,154.279462 459.945783,152.394235 458.94056,150.096019 L449.678194,122.733021 L390.011323,122.733021 L380.748957,150.096019 C379.959138,152.106958 378.541077,153.920367 376.49473,155.5363 C374.448383,157.152233 371.917413,157.960187 368.901744,157.960187 L340.468433,157.960187 L401.212324,1 L438.477193,1 L499.221083,157.960187 Z M398.412074,97.9555035 L441.277443,97.9555035 L426.845384,54.971897 C425.768359,52.2427654 424.61955,49.0289022 423.398922,45.3302108 C422.178294,41.6315194 420.957685,37.6276562 419.737056,33.3185012 C418.58823,37.6994755 417.421471,41.7572022 416.236744,45.4918033 C415.052016,49.2264043 413.921157,52.4582221 412.844133,55.1873536 L398.412074,97.9555035 Z M653.988762,79.4262295 C653.988762,90.7736711 652.032196,101.24117 648.119007,110.82904 C644.205817,120.41691 638.695123,128.711909 631.58676,135.714286 C624.478397,142.716663 615.916179,148.174844 605.899849,152.088993 C595.883519,156.003142 584.77238,157.960187 572.5661,157.960187 L511.606806,157.960187 L511.606806,1 L572.5661,1 C584.77238,1 595.883519,2.97499977 605.899849,6.92505855 C615.916179,10.8751173 624.478397,16.3332985 631.58676,23.2997658 C638.695123,30.2662331 644.205817,38.5432776 648.119007,48.1311475 C652.032196,57.7190175 653.988762,68.1506072 653.988762,79.4262295 Z M616.723893,79.4262295 C616.723893,71.6697504 615.718685,64.6674785 613.708239,58.4192037 C611.697793,52.1709289 608.80782,46.8743387 605.038233,42.529274 C601.268647,38.1842093 596.65546,34.8446643 591.198535,32.5105386 C585.741609,30.176413 579.53086,29.0093677 572.5661,29.0093677 L548.225463,29.0093677 L548.225463,129.95082 L572.5661,129.95082 C579.53086,129.95082 585.741609,128.783774 591.198535,126.449649 C596.65546,124.115523 601.268647,120.775978 605.038233,116.430913 C608.80782,112.085849 611.697793,106.789258 613.708239,100.540984 C615.718685,94.2927088 616.723893,87.2545278 616.723893,79.4262295 Z M711.932402,128.873536 L770.091446,128.873536 L770.091446,157.960187 L675.529149,157.960187 L675.529149,1 L711.932402,1 L711.932402,128.873536 Z M825.234836,157.960187 L788.616179,157.960187 L788.616179,1 L825.234836,1 L825.234836,157.960187 Z M874.777726,1 C876.357362,1 877.685673,1.07181817 878.762697,1.21545667 C879.839722,1.35909518 880.80903,1.62841333 881.67065,2.0234192 C882.532269,2.41842508 883.357976,2.97501593 884.147794,3.69320843 C884.937612,4.41140094 885.835119,5.38094628 886.840342,6.60187354 L961.37008,100.864169 C961.082874,97.8477601 960.867472,94.9211695 960.723869,92.0843091 C960.580265,89.2474487 960.508465,86.5722218 960.508465,84.058548 L960.508465,1 L992.603641,1 L992.603641,157.960187 L973.648101,157.960187 C970.847836,157.960187 968.496368,157.511324 966.593624,156.613583 C964.69088,155.715843 962.806115,154.153797 960.939273,151.9274 L886.948044,58.4192037 C887.163449,61.1483353 887.342951,63.8235622 887.486554,66.4449649 C887.630157,69.0663675 887.701958,71.52614 887.701958,73.824356 L887.701958,157.960187 L855.606782,157.960187 L855.606782,1 L874.777726,1 Z M57.7932325,1.13357341 L96.2519577,1.13357341 L49.8002907,150.961283 C48.5026115,155.146887 44.630961,158 40.248809,158 L9.99803924,158 L2,158 L47.6363587,8.21898616 C48.918836,4.00982587 52.8019907,1.13357341 57.2021927,1.13357341 L57.7932325,1.13357341 Z M1124,1 L1124,29.0093677 L1059.59424,29.0093677 L1059.59424,65.6370023 L1108.92173,65.6370023 L1108.92173,92.5690867 L1059.59424,92.5690867 L1059.59424,129.95082 L1124,129.95082 L1124,157.960187 L1022.97559,157.960187 L1022.97559,1 L1124,1 Z" id="Combined-Shape" fill="#222222"></path>
    </g>
</svg>