<?xml version="1.0" encoding="UTF-8"?>
<!DOCTYPE svg PUBLIC "-//W3C//DTD SVG 1.1//EN" "http://www.w3.org/Graphics/SVG/1.1/DTD/svg11.dtd">
<!-- Creator: CorelDRAW X6 -->
<svg xmlns="http://www.w3.org/2000/svg" xml:space="preserve" width="1.33333in" height="1.33333in" version="1.1"
     style="shape-rendering:geometricPrecision; text-rendering:geometricPrecision; image-rendering:optimizeQuality; fill-rule:evenodd; clip-rule:evenodd"
     viewBox="0 0 1333 1333"
     xmlns:xlink="http://www.w3.org/1999/xlink">
 <defs>
  <style type="text/css">
   <![CDATA[
    .fil1 {fill:#253038;fill-rule:nonzero}
    .fil0 {fill:none;fill-rule:nonzero}
   ]]>
  </style>
 </defs>
  <g id="Layer_x0020_1">
  <metadata id="CorelCorpID_0Corel-Layer"/>
    <polygon class="fil0" points="0,1333 1333,1333 1333,0 0,0 "/>
    <path class="fil1"
          d="M769 528l29 -96 29 96 -58 0zm143 84l-75 -227c-2,-5 -4,-8 -6,-10 -2,-2 -6,-2 -10,-2l-41 0c-5,0 -8,1 -11,3 -2,2 -4,5 -6,10l-76 227c-1,1 -1,4 -1,7 0,6 3,8 10,8l31 0c3,0 5,0 7,0 2,0 3,-1 4,-2 1,-1 2,-2 3,-4 1,-2 2,-4 3,-8l12 -40 85 0 12 39c1,3 2,6 3,8 1,2 2,3 3,4 1,1 3,2 4,2 2,0 4,0 6,0l33 0c7,0 10,-3 10,-8 0,-2 0,-3 0,-3 0,-1 -1,-2 -1,-4zm-37 91l-24 0c-6,0 -10,1 -12,3 -2,2 -3,5 -3,11l0 135 -71 -135c-3,-6 -6,-9 -8,-11 -3,-2 -8,-2 -14,-2l-22 0c-6,0 -10,1 -12,3 -2,2 -3,5 -3,11l0 227c0,5 1,9 3,11 2,2 6,3 12,3l24 0c6,0 10,-1 12,-3 2,-2 3,-5 3,-11l0 -135 71 135c3,6 6,9 8,11 3,2 8,2 14,2l22 0c6,0 10,-1 12,-3 2,-2 3,-5 3,-11l0 -227c0,-5 -1,-9 -3,-11 -2,-2 -6,-3 -12,-3zm119 -22l62 62 0 311 -777 0 0 -311 62 -62c9,-9 9,-24 0,-33l-62 -62 0 -311 777 0 0 311 -62 62c-9,9 -9,24 0,33zm117 -461l-889 0 0 393 51 51 -51 51 0 393 889 0 0 -393 -51 -51 51 -51 0 -393zm-494 684l-100 0 106 -149c2,-2 3,-4 3,-6 0,-1 1,-3 1,-5l0 -29c0,-5 -1,-9 -3,-11 -2,-2 -6,-3 -12,-3l-153 0c-6,0 -9,1 -11,3 -2,2 -3,6 -3,13l0 21c0,6 1,11 3,13 2,2 5,3 11,3l94 0 -104 149c-3,3 -4,7 -4,10l0 29c0,5 1,9 3,11 2,2 6,3 12,3l157 0c5,0 9,-1 11,-3 2,-2 3,-6 3,-13l0 -21c0,-6 -1,-11 -3,-13 -2,-2 -5,-3 -11,-3zm-47 -379c0,10 -1,18 -2,24 -1,7 -3,12 -6,16 -3,4 -7,7 -12,9 -5,2 -11,3 -18,3l-29 0 0 -154 29 0c14,0 23,4 29,12 6,8 9,21 9,40l0 51zm51 -103c-8,-17 -20,-29 -34,-38 -14,-8 -33,-12 -54,-12l-73 0c-6,0 -10,1 -12,3 -2,2 -3,5 -3,11l0 227c0,5 1,9 3,11 2,2 6,3 12,3l82 0c39,0 65,-17 80,-50 3,-8 6,-15 7,-23 1,-8 2,-18 2,-29l0 -48c0,-14 -1,-24 -2,-32 -1,-8 -4,-15 -7,-22z"/>
 </g>
</svg>
