<svg width="200" height="228" viewBox="0 0 200 228" xmlns="http://www.w3.org/2000/svg"><title>logo</title><g fill="#0B0B0B"><path d="M27.411 101.996l.472-.337c.22.094.259.447.064.586-.194.14-.517-.01-.536-.25zm-1.272 7.11l-.028-.364c-.355.098-.743-.277-.657-.633a3.042 3.042 0 0 1 1.552-.103.733.733 0 0 1 .031.916.737.737 0 0 1-.898.184zm1.206 4.55c.358-.02.546.429.548.788-.156.003-.311.008-.468.01a12.461 12.461 0 0 1-.003-.05c-.192.025-.396-.108-.43-.3a.397.397 0 0 1 .353-.447zm71.971 82.69c-45.434 0-82.396-36.891-82.396-82.236 0-45.344 36.962-82.235 82.396-82.235s82.397 36.89 82.397 82.235a81.663 81.663 0 0 1-3.215 22.69c-.105-.188-.208-.377-.318-.562a26.196 26.196 0 0 0-.97-1.513c-.049-.07-.1-.136-.15-.206a79.757 79.757 0 0 0 2.649-20.41c0-44.24-36.065-80.233-80.393-80.233S18.924 69.87 18.924 114.11c0 44.241 36.064 80.234 80.392 80.234 28.26 0 53.15-14.637 67.486-36.707a143.924 143.924 0 0 0 3.344-1.595c-14.38 24.107-40.737 40.304-70.83 40.304zM166.552 146c-37.906 10.69-76.599 15.389-91.816 13.841-5.185-.527-7.428-4.27-6.727-8.496.97-5.834 3.15-10.846 5.244-13.896 1.933 2.479 12.316 3.108 25.756 2.483-1.085 1.331-1.98 2.94-2.602 4.889-2.131 6.684 8.772 6.255 19.265 5.469 10.494-.786 21.671-5.805 21.212-8.477-.36-2.09-1.218-3.969-2.648-5.464 11.561-1.743 22.381-3.955 29.935-6.361.56 3.214 1.503 6.139 4.784 9.578 2.093 2.195 1.49 5.337-2.403 6.434zm-40.449 25.364l7.501-4.5 1.443 2.395-2.557 1.531 5.625 9.342-2.391 1.432-5.623-9.339-2.556 1.533-1.442-2.394zm-11.793 3.626l2.616 13.44-3.046.59-2.616-13.44 3.046-.59zm-54.194-12.985l2.171 1.632-3.254 7.54 6.382-5.188 2.17 1.63-10.955 8.905-2.069-1.557 5.555-12.962zm-23.507-8.35a4.343 4.343 0 0 1 .865-1.567c.418-.486.94-.927 1.58-1.314l1.75 2.59-.18.122c-.144.097-.298.22-.454.374-.156.15-.289.316-.393.494a1.458 1.458 0 0 0-.191.565.795.795 0 0 0 .153.564c.099.149.22.25.356.306.14.052.287.074.445.062.158-.013.319-.047.483-.109a4.968 4.968 0 0 0 .923-.469c.138-.088.255-.166.351-.23l6.945-4.676 1.834 2.714-6.058 4.08c-.472.315-.963.625-1.48.928a8.11 8.11 0 0 1-1.57.724 3.783 3.783 0 0 1-1.331.185c-.449-.02-.879-.1-1.29-.248a4.256 4.256 0 0 1-1.147-.621 3.993 3.993 0 0 1-.898-.944c-.408-.604-.663-1.204-.773-1.802a3.74 3.74 0 0 1 .08-1.727zm11.498-14.507c.178.014.346.07.503.154l.103.03-.1-.028-.003-.002-.503-.154zm-12.574-9.398c.763.915 2.716 2.831 5.4 5.22.022-.007.038-.025.061-.028.127-.015.254.037.38.028.127-.01.263-.14.2-.25l.487-.82c-.069-.054-.148-.095-.207-.16l.058-.122c-.108-.5.589-.858 1.06-.655.202.087.36.237.495.41.4.186.776.477 1.112.761l1.684 1.423c-.595.187-1.352.331-1.754-.145-.075-.09-.132-.198-.228-.265-.315-.223-.705.122-.998.37a2.34 2.34 0 0 1-1.149.512 168.392 168.392 0 0 0 9.496 7.687c.054-.137.134-.26.273-.327.126-.058.271-.074.388-.149.226-.147.264-.48.156-.727-.108-.247-.323-.43-.531-.601l-2.75-2.276c.082-.139.174-.283.277-.417-.02-.017-.049-.02-.065-.04-.009 0-.016.006-.025.005-.088-.011-.16-.077-.223-.14-.22-.217-.437-.447-.571-.725-.135-.28-.178-.618-.047-.898.21-.455.772-.608 1.268-.69.404-.066.827-.12 1.218.006.39.125.737.478.722.887a.78.78 0 0 1-.374.614c.014.038.021.077.037.115a.752.752 0 0 1 .675.294.75.75 0 0 1-.064.923c-.068.071-.135.183-.132.263 1.382 1.482 3.258 2.481 4.646 3.96.055.02.115.032.16.068.3.235.39.644.461 1.018-.202.214-.631.093-.69-.196l.218.458c-.219-.385-.842-.538-.878-.95-.675-.292-1.394-.838-1.997-.487-.293.17-.442.508-.686.743a1.09 1.09 0 0 1-.253.17c3.537 2.594 7.248 5.064 10.77 6.986.13.54.34 1.137.588 1.752l.004.123.044.548.069.545.094.539.121.533.15.533.18.525.207.513.235.505.264.494.293.48.32.464.253.325.026.068c-12.97-5.89-34.507-30.627-30.928-29.8zm-1.223-5.483c.102-.052.218-.074.324-.117.275-.11.51-.37.805-.345.31.026.509.374.485.684-.004.055-.031.104-.045.157.072.018.147.034.206.079.172.135.215.378.202.597-.011.218-.067.435-.042.652.04.326.254.6.458.859.204.258.414.537.442.864.027.327-.218.698-.546.675a.72.72 0 0 1-.34-.138c-.032-.022-.06-.048-.09-.073-.221-.107-.421-.384-.518-.635-.06-.158-.104-.322-.157-.484a6.579 6.579 0 0 0-.731-.57c-.21-.14-.431-.273-.583-.472a.739.739 0 0 1-.15-.439c-.07-.213-.126-.433-.107-.656.023-.259.155-.52.387-.638zm-.98-11.822a1.171 1.171 0 0 1 1.288-.297c.28.115.49.355.606.634.146.042.284.1.38.217.17.202.164.498.287.731.113.213.323.356.482.537.159.182.267.458.134.66a.362.362 0 0 1-.403.14c-.015-.005-.022-.022-.038-.03-.471.113-1.054-.254-1.418-.656a8.581 8.581 0 0 1-1.319-1.936zm-.693 14.877c-.041-.165.178-.323.322-.231-.028.232-.023.529.192.623.066.03.14.032.209.056.253.094.277.495.063.66-.212.164-.545.095-.727-.104-.181-.199-.23-.489-.198-.756l.139-.248zm30.339-64.138l-.064.344-1.735 1.616-.343.032-6.064-6.49a1.794 1.794 0 0 0-.447-.344 1.644 1.644 0 0 0-.55-.2 1.494 1.494 0 0 0-.566.009 1.06 1.06 0 0 0-.507.265 1.73 1.73 0 0 0-.347.455c-.085.17-.133.34-.15.52a1.266 1.266 0 0 0 .35 1.015l6.191 6.628v.372l-1.89 1.762-.342.032-6.267-6.705a1.116 1.116 0 0 0-.433-.285 1.404 1.404 0 0 0-.516-.086 1.64 1.64 0 0 0-.509.092c-.164.06-.308.142-.426.254-.125.115-.22.256-.282.425a1.415 1.415 0 0 0-.01 1.013.98.98 0 0 0 .28.406l.007.009 6.237 6.674-.076.343-1.795 1.673-.335.026-6.462-6.918a3.434 3.434 0 0 1-.716-1.14 3.934 3.934 0 0 1-.256-1.301 4.56 4.56 0 0 1 .151-1.327 4.69 4.69 0 0 1 .512-1.23c.404-.676.925-1.191 1.564-1.537.639-.35 1.344-.51 2.12-.484.014-.65.162-1.225.442-1.729a4.013 4.013 0 0 1 1.135-1.29c.277-.208.576-.384.899-.524.32-.142.65-.245.99-.316a4.913 4.913 0 0 1 1.031-.092c.348.005.683.05 1.01.135.328.089.644.213.942.385.298.17.566.384.803.639l6.424 6.874zm1.889-.59L58.006 50.74l2.536-1.46 5.444 9.407 4.284-2.468 1.414 2.447-6.819 3.93zm-2.842 78.822l.3-.21a2.503 2.503 0 0 1-.935-.451c-.465-.378-.847-.936-1.372-1.158-.01.04-.015.083-.027.122-.403-.217-.805-.436-1.207-.654 0-.144.05-.284.126-.407-.06-.098-.109-.204-.16-.307-.054.002-.108.012-.164.013-.16.22-.502.31-.724.14a.212.212 0 0 1-.078-.097c-.036-.109.075-.211.184-.245.048-.015.097-.025.145-.037l.06-.043c.106-.667 1.148-.785 1.6-.284.183.206.27.461.316.73.678.193 1.323.635 1.998.463.282-.073.532-.25.82-.3a.665.665 0 0 1 .443.091l.074-.029c.539.043 1.02.402 1.26.883.296.157.578.34.82.572.212.206.407.452.455.743.086.524-.345 1.022-.846 1.198-.502.178-1.053.114-1.581.048-.59-.074-1.29-.227-1.507-.781zM62 132.241l4.138 2.505c.496.167 1.07.526.918 1.013-.26.102-.536.163-.815.182.023.364.042.744-.1 1.082-.14.336-.495.615-.854.543-.315-.064-.532-.377-.585-.694-.015-.087-.002-.174.001-.262-.465-.02-.959-.205-1.404-.056l-.016.007c.09.084.164.184.184.306.057.338-.198.684-.528.783-.33.097-.701-.023-.953-.257-.205-.189-.345-.485-.247-.746.016-.044.052-.076.083-.11a1.411 1.411 0 0 1-.044-.549c.037-.36.118-.762-.092-1.058a.715.715 0 0 0-.166-.162c-.186.207-.513.277-.79.2-.327-.09-.591-.321-.845-.546l.07-.196c.081-.097.18-.184.284-.26a.408.408 0 0 1-.017-.209.473.473 0 0 1 .1-.197c-.74-.271-1.34-.903-1.535-1.665a.439.439 0 0 1-.01-.25c.121-.343.67-.04 1.006-.18l.32.342c-.028-.098.016-.242.088-.335.257-.326.599-.606 1.004-.696.406-.089.878.052 1.097.404.218.352.083.9-.307 1.042.005.005.01.014.015.02zm-5.897-1.571l.289-.211c.616-.518 1.748.203 1.533.98-.682.248-1.526-.109-1.822-.77zm-2.826-8.376a.557.557 0 0 1 .755.112c.157.217.13.513.097.779l-.192-.052a.557.557 0 0 1-.758-.084.555.555 0 0 1 .098-.755zm-6.953-5.926l-.008-.355.489-.368c-.255.175-.664.02-.74-.277-.088-.346.27-.692.628-.678.357.013.659.295.805.621.145.326.163.693.18 1.049a3.609 3.609 0 0 1-1.354.008zm3.04 1.14c.136-.033.273.041.386.12.426.3.764.726.957 1.21a3.025 3.025 0 0 1-.496.233c.02.342-.289.716-.606.58l-1.459.58c-.426.128-.893-.256-.936-.698-.043-.442.26-.868.656-1.07.064-.032.132-.052.197-.075-.101-.091-.19-.197-.295-.285a.99.99 0 0 0-.788-.217c-.099-.279.233-.555.527-.525.294.03.53.247.743.454l.351.298.002.173c.19-.01.382 0 .57.028.024.003.049.01.073.016l.006-.508c-.109-.086-.023-.282.112-.314zm-10.717-2.653c.595.352 1.228.744 1.495 1.38.18.427.204.969.586 1.231a4.595 4.595 0 0 0-2.308-.626c-.111 0-.238-.004-.305-.092-.112-.146.052-.337.178-.47a1.51 1.51 0 0 0 .354-1.423zm-2.062-2.874l.138-.25c-.29-.385-.577-.771-.864-1.159.395-.08.839-.15 1.175.073.336.223.348.867-.048.945a.969.969 0 0 1 .802.652c-.38.258-.965.13-1.203-.26zm.413 5.38c.137.1.094.335-.046.432a.385.385 0 0 1-.508-.082.383.383 0 0 1 .063-.51l.24.392c-.118-.122.114-.332.25-.232zm12.72 13.503c-.138.552-.613 1.018-1.185 1.072-.43.04-1.06.029-1.073.459a17.9 17.9 0 0 0 2.362.801c-.22.43-.858.379-1.3.182-1.626-.723-2.573-2.397-3.394-3.973.76-.306 1.652-.22 2.357.195.003-.008 0-.016.004-.024.04-.08.085-.157.12-.239-.01-.116-.018-.232-.03-.348a83.754 83.754 0 0 1-1.853-1.738c-.141.227-.41.38-.675.328-.37-.073-.608-.524-.46-.87a1.465 1.465 0 0 1-.658-.375c-.147-.156-.248-.429-.082-.563.115-.094.274-.048.408.032-4.69-4.732-8.102-9.166-6.879-8.883.541.647 2.031 2.093 4.052 3.862.488-.275 1.098-.336 1.616-.12a1.87 1.87 0 0 1 1.125 1.562c.009.122.001.257-.082.348-.08.089-.209.11-.327.125-.025.004-.049.001-.074.005 2.517 2.08 5.49 4.349 8.442 6.248.517-.152.984-.69.653-1.086.264-.016.525-.09.757-.216l-.05.13c.046-.402.642-.528.962-.278.32.25.41.692.434 1.097.023.405.008.83.197 1.189-.446.056-.892.112-1.34.166.484.289.966.564 1.441.823.25 1.049.921 2.4 1.615 3.562l.852.073c.465-.085.97.214 1.12.663a1.02 1.02 0 0 1-.507 1.196c-.3.146-.65.13-.983.114l-2.095-.109c-.323-.017-.679-.046-.91-.273-.222-.218-.264-.555-.292-.865-.03-.316-.047-.661.135-.921l.01-.009c-1.423-.935-2.919-2.083-4.413-3.342zm12.009 16.23c-.303-.007-.578-.214-.701-.487a1.44 1.44 0 0 1-.416-.37c.002.053.01.106 0 .16-.062.358-.564.61-.805.34l-.353-.113c-.065.012-.131.03-.197.038l.135-.057-.02-.006a1.825 1.825 0 0 1-1.413-.075c-.322-.162-.61-.58-.38-.856.153-.185.444-.172.673-.092.227.078.448.207.69.198a.972.972 0 0 0 .28-.058.91.91 0 0 1-.104-.287.803.803 0 0 1 .178-.625 3.122 3.122 0 0 1-.68-.55c.531-.344 1.325-.106 1.624.44.352-.061.753.121.878.465.096.264.023.566-.15.789.252-.022.518.05.719.206.197-.053.406-.064.607-.026.08.015.167.043.21.112.036.057.035.13.024.198a.82.82 0 0 1-.799.655zm-.093 1.756c.263-.273.747.192.589.535-.159.342-.623.424-.99.336a.34.34 0 0 1 .102-.452.341.341 0 0 1 .451.104l-.152-.523zm104.242 2.757c-37.111 9.976-75.265 14.166-90.257 13.094-1.51-.108-2.718-.462-3.673-1.005l-1-2.684c.868.388 2.642.63 3.891.719 15.242 1.09 53.851-3.769 91.579-13.91 1.266-.34 2.147-.81 2.727-1.373.484 1.978-.036 4.29-3.267 5.16zm-31.968-101.98a4.692 4.692 0 0 1-.358 1.235l-3.83 8.586-.347.093-2.17-.965-.157-.317 3.616-8.108a1.79 1.79 0 0 0 .144-.546 1.766 1.766 0 0 0-.026-.585 1.35 1.35 0 0 0-.223-.518 1.013 1.013 0 0 0-.436-.356 1.553 1.553 0 0 0-.557-.137 1.557 1.557 0 0 0-.543.058c-.171.05-.328.137-.467.261-.143.12-.253.275-.336.459l-3.696 8.284-.355.156-2.366-1.05-.144-.322 3.464-7.764c.114-.28.248-.56.403-.837a6.57 6.57 0 0 1 .52-.79c.19-.252.405-.479.643-.687.234-.204.49-.382.762-.528a3.495 3.495 0 0 1 1.75-.389c.596.03 1.182.167 1.763.41.34.139.666.307.982.505a4.9 4.9 0 0 1 .856.681c.254.257.476.54.658.858.188.314.32.656.403 1.03.094.432.11.86.047 1.284zm10.703 6.505a3.323 3.323 0 0 1-.6 1.547l-3.371 4.803a3.26 3.26 0 0 1-.786.798 3.605 3.605 0 0 1-.952.48 4.3 4.3 0 0 1-1.054.193c-.364.02-.723 0-1.083-.066a5.155 5.155 0 0 1-1.043-.288 4.81 4.81 0 0 1-.935-.49 3.932 3.932 0 0 1-.82-.707 4.403 4.403 0 0 1-.629-.898 4.782 4.782 0 0 1-.414-1.016 4.3 4.3 0 0 1-.162-1.072c-.006-.36.038-.71.133-1.057a3.13 3.13 0 0 1 .462-.968l3.369-4.804a3.18 3.18 0 0 1 .766-.769 4.12 4.12 0 0 1 2.02-.722 4.735 4.735 0 0 1 1.11.03c.371.052.725.144 1.073.273.348.134.664.299.954.504.43.3.81.681 1.127 1.14.322.458.558.948.705 1.478.147.525.189 1.063.13 1.611zm8.923 8.582a2.024 2.024 0 0 1-.208.426 5.204 5.204 0 0 1-.31.448 7.791 7.791 0 0 1-.346.416c-.116.131-.229.25-.323.35l-3.124 3.344a4.571 4.571 0 0 1-1.315.996 3.861 3.861 0 0 1-2.97.222 4.732 4.732 0 0 1-1.456-.79 9.7 9.7 0 0 1-.565-.458 43.272 43.272 0 0 0-.546-.467l-2.35-2.152-.032-.337 9.053-9.688.334.014 2.966 2.76c.742.69 1.217 1.442 1.425 2.26.213.817.134 1.7-.233 2.656zm1.92 17.338c-.091.378-.3.661-.625.856a1.31 1.31 0 0 1-1.052.15c-.373-.1-.657-.31-.853-.636a1.33 1.33 0 0 1-.158-1.044c.091-.368.3-.65.631-.847.162-.099.333-.16.524-.186a1.361 1.361 0 0 1 1.014.245c.144.11.267.244.366.407.195.325.246.676.153 1.055zm4.775-8.413l-2.47-3.396-1.98 1.436 1.518 2.09-2.177 1.579-1.519-2.089-2.292 1.663 2.47 3.395-2.326 1.686-4.09-5.62 11.096-8.046 4.09 5.62-2.32 1.682zm3.75 16.59a28.6 28.6 0 0 1-1.606.687 8.1 8.1 0 0 1-1.669.47 3.77 3.77 0 0 1-1.341-.026 4.303 4.303 0 0 1-2.272-1.239 3.994 3.994 0 0 1-.739-1.073c-.307-.657-.467-1.29-.48-1.898a3.694 3.694 0 0 1 .35-1.693 4.334 4.334 0 0 1 1.101-1.415 6.508 6.508 0 0 1 1.764-1.051l1.322 2.833-.196.091a3.308 3.308 0 0 0-.506.3 2.238 2.238 0 0 0-.466.426 1.437 1.437 0 0 0-.277.527.799.799 0 0 0 .062.58.797.797 0 0 0 .304.359 1 1 0 0 0 .43.13c.159.014.322.003.496-.032a4.71 4.71 0 0 0 .984-.319c.15-.065.277-.124.381-.173l7.593-3.533 1.385 2.968-6.62 3.082zm9.24 6.934c-.088.522-.279.99-.573 1.405-.295.417-.693.78-1.19 1.094a8.194 8.194 0 0 1-1.72.8l-.658-2.634c.537-.174.934-.423 1.188-.737.254-.315.327-.704.218-1.169a2.677 2.677 0 0 0-.148-.434 1.117 1.117 0 0 0-.238-.347.825.825 0 0 0-.342-.197.937.937 0 0 0-.464-.001c-.151.03-.286.087-.398.167a.738.738 0 0 0-.254.343 1.297 1.297 0 0 0-.11.533c.002.186 0 .362-.007.531-.027.56-.096 1.12-.2 1.684a5.933 5.933 0 0 1-.517 1.568c-.24.479-.56.902-.963 1.26-.397.355-.907.61-1.522.763a5.615 5.615 0 0 1-1.856.165 4.248 4.248 0 0 1-1.62-.46 3.817 3.817 0 0 1-1.265-1.076c-.353-.458-.614-1.015-.779-1.672-.184-.743-.239-1.403-.163-1.981a3.337 3.337 0 0 1 .585-1.533c.317-.446.742-.831 1.282-1.157a9.3 9.3 0 0 1 1.939-.843l.704 2.853a8.998 8.998 0 0 0-.768.318 2.764 2.764 0 0 0-.622.413c-.172.157-.298.34-.376.55-.078.205-.085.446-.022.72.043.198.12.37.231.515.11.138.262.248.454.321.212.08.447.114.704.104a3.51 3.51 0 0 0 .703-.096c.273-.067.495-.213.665-.445a.8.8 0 0 0 .146-.299 3.27 3.27 0 0 0 .094-.399c.026-.138.046-.27.056-.404.012-.131.023-.245.03-.335.037-.58.085-1.111.153-1.595.063-.481.19-.921.383-1.311a3.03 3.03 0 0 1 .82-1.027c.357-.292.84-.536 1.452-.73.64-.204 1.225-.273 1.75-.213.531.062 1 .23 1.407.507.412.276.757.647 1.042 1.11.284.466.503 1.007.657 1.623.16.644.199 1.226.111 1.748zm-53.224-14.988l-2.574.51a1727.566 1727.566 0 0 0-11.224 5.05c-.048-.403-.058-.782-.07-1.163 3.094-2.736 6.6-3.893 10.432-5.019-.116-.582-.232-1.161-.34-1.713-4.657.921-14.238 2.519-13.4 10.599.594.104 1.218.204 1.842.302-1.228 2.467-1.96 3.596-1.835 6.305 1.789-.13 2.478-1.157 4.132-1.485-.579 1.418-.613 3.65.78 4.58 1.19-.108 3.165-1.388 5.414-2.247-.307.696-.307.696-.053 1.98 5.42-1.073 8.07-5.346 12.917-6.306a413.088 413.088 0 0 1 2.873 3.403c3.463 2.513 12.24 5.903 22.24 8.405 10.001 2.502 12.628 3.303 14.79 7.117 2.167 3.817 4.746 12.256-3.145 15.805-2.132.487-3.88.612-5.975 1.124-41.728 8.227-63.624 7.762-73.683 7.658-10.058-.104-10.664-6.738-10.964-8.839-.518-3.614-.263-6.258.2-9.504.674-4.722 2.874-15.8 4.811-23.81.702-2.901 1.303-6.003 3.258-14.006 4.497-3.543 31.34-26.017 38.98-10.545 1.022 3.867.875 7.586 1.237 11.672l-.643.127zM109.44 93.639c18.83-11.642 15.343-1.644-1.458 4.833.27-.72.102-1.576 1.458-4.833zm-.838-46.12a.817.817 0 0 0-.227-.242 4.114 4.114 0 0 0-.7-.428c-.115-.06-.219-.108-.3-.148a20.512 20.512 0 0 1-1.437-.715 4.204 4.204 0 0 1-1.091-.826 3.054 3.054 0 0 1-.669-1.131c-.143-.44-.197-.976-.16-1.616.04-.67.184-1.236.431-1.707a3.06 3.06 0 0 1 .976-1.13 3.551 3.551 0 0 1 1.41-.572 5.765 5.765 0 0 1 1.755-.03c.66.079 1.219.253 1.676.523.457.265.825.61 1.109 1.035.284.425.48.923.597 1.5.112.572.157 1.204.131 1.89l-2.7-.33c.029-.563-.06-1.02-.262-1.371-.204-.352-.542-.558-1.017-.624a2.854 2.854 0 0 0-.458-.016c-.152.01-.29.04-.411.097a.826.826 0 0 0-.306.248.94.94 0 0 0-.167.434c-.026.15-.022.295.012.429a.732.732 0 0 0 .231.361c.133.13.285.225.46.292.174.065.338.13.494.197.514.226 1.013.492 1.503.79.49.3.915.646 1.282 1.044.36.396.64.845.833 1.346.19.5.245 1.065.169 1.696a5.62 5.62 0 0 1-.512 1.787c-.258.532-.596.98-1.01 1.343a3.848 3.848 0 0 1-1.459.794c-.556.164-1.171.207-1.844.126-.76-.095-1.4-.28-1.913-.556a3.366 3.366 0 0 1-1.223-1.096 4.144 4.144 0 0 1-.622-1.61c-.109-.617-.141-1.32-.095-2.11l2.921.369a8.02 8.02 0 0 0 .024.829c.025.268.08.509.163.728.085.217.209.4.378.547.166.147.387.24.666.28.201.03.388.02.563-.034.172-.051.328-.154.465-.306.15-.17.265-.375.35-.617.081-.242.135-.472.162-.692a1.146 1.146 0 0 0-.178-.777zm-11.152-.66a.821.821 0 0 0-.259-.21 3.769 3.769 0 0 0-.367-.183 5.158 5.158 0 0 0-.382-.145l-.32-.104a21.883 21.883 0 0 1-1.523-.507 4.249 4.249 0 0 1-1.196-.666 3.059 3.059 0 0 1-.818-1.028c-.204-.415-.332-.938-.387-1.579-.053-.669.01-1.25.19-1.75.177-.5.448-.92.809-1.255.362-.338.803-.59 1.318-.762a5.874 5.874 0 0 1 1.732-.274c.665-.011 1.242.083 1.732.287.49.2.904.49 1.242.87.342.381.607.848.8 1.402.192.55.327 1.171.395 1.854l-2.718.047c-.053-.56-.204-1.002-.453-1.32-.25-.319-.616-.477-1.093-.474a2.75 2.75 0 0 0-.456.045 1.17 1.17 0 0 0-.395.153.83.83 0 0 0-.267.289.927.927 0 0 0-.106.451.987.987 0 0 0 .074.424.704.704 0 0 0 .279.326c.15.11.312.183.494.225.181.042.354.083.517.127a12.49 12.49 0 0 1 1.6.574c.526.23.996.51 1.414.857.415.34.752.745 1.011 1.215.26.468.395 1.021.406 1.654a5.668 5.668 0 0 1-.258 1.843 4.138 4.138 0 0 1-.813 1.47c-.36.417-.804.75-1.335.99-.526.24-1.13.367-1.807.379-.768.013-1.425-.084-1.974-.284a3.36 3.36 0 0 1-1.363-.915c-.365-.408-.645-.909-.84-1.507a9.263 9.263 0 0 1-.388-2.077l2.945-.042c.033.287.08.555.139.819.061.261.147.495.263.698.113.203.263.367.45.49.184.122.418.183.7.184.202.001.385-.035.551-.112.163-.074.303-.198.417-.366.124-.19.212-.41.26-.66a3.68 3.68 0 0 0 .067-.708 1.14 1.14 0 0 0-.287-.746zm2.272 8.547c28.537 0 52.275 20.43 57.379 47.432-.233-.055-.462-.111-.7-.165-2.18-.497-4.536-.96-7.075-1.579l-.884-.244-.873-.248-.86-.25-.85-.256-.839-.257-.825-.258-.81-.261-.795-.263-.777-.263-.762-.266-.745-.264-.726-.266-.706-.267-.687-.263-.665-.263-.642-.26-.62-.262-.597-.256-.57-.254-.543-.25-.516-.246-.49-.24-.456-.236-.427-.228-.393-.22-.36-.212-.321-.197-.185-.12-.04-.047-.178-.213-.181-.217-.182-.218-.18-.214-.181-.215-.182-.216-.182-.216-.182-.214-.18-.212-.182-.216-.184-.215-.178-.21c-4.129-4.84-4.32-3.484-4.903-10.237l-.028-.355-.026-.357-.023-.36-.023-.359-.023-.361-.019-.36-.02-.367-.02-.366-.02-.365-.019-.367-.019-.371-.023-.373-.021-.375-.024-.376-.026-.382-.028-.383-.031-.384-.033-.386-.038-.39-.041-.393-.044-.395-.05-.397-.054-.4-.06-.407-.066-.404-.07-.408-.078-.413-.086-.415-.091-.417-.1-.42-.225-.878-1.15-2.002-1.202-1.547-1.382-1.318-1.534-1.062-1.645-.797-1.71-.541-1.743-.307-1.75-.099-1.748.079-1.736.23-1.73.362-1.717.476-1.707.575-1.693.66-1.678.735-1.658.798-1.633.85-1.604.893-1.57.923-1.527.944-1.48.956-1.427.957-1.368.945-1.298.928-1.223.895-1.143.856-1.052.803-.955.743-.85.67-.734.583-.607.484-1.385 1.1c-.045.14-.092.281-.154.43-1.783 4.35-5.93 21.336-8.04 33.662-9.5-4.121-18.056-9.44-25.303-15.733 7.163-24.111 29.517-41.705 56-41.705zm-16.5-5.765c.038.19.121.36.25.517.13.155.28.284.45.39.168.105.35.177.544.222.193.044.373.048.544.007a1.74 1.74 0 0 0 .562-.235 1.69 1.69 0 0 0 .44-.401c.12-.155.209-.328.266-.52.058-.187.07-.383.037-.585l-.007-.032a.821.821 0 0 1-.005-.44c.04-.114.14-.199.301-.25l.007-.002 2.18-.5.03.002a.409.409 0 0 1 .303.141c.072.088.122.19.147.301.135.578.182 1.129.146 1.654a3.31 3.31 0 0 1-.457 1.47c-.269.452-.67.865-1.2 1.239-.529.372-1.214.7-2.059.984l-.018.004a4.508 4.508 0 0 1-1.605.08 4.628 4.628 0 0 1-1.506-.464 4.461 4.461 0 0 1-1.25-.952 4.14 4.14 0 0 1-.836-1.397L79.3 44.878c-.018-.14-.038-.277-.055-.42a3.33 3.33 0 0 1-.03-.419 2.685 2.685 0 0 1 .286-1.272c.2-.413.466-.79.8-1.132a5.137 5.137 0 0 1 2.448-1.403 4.581 4.581 0 0 1 1.476-.11c.468.041.905.155 1.31.336.402.182.772.428 1.107.735.333.308.626.667.876 1.073.165.255.285.536.356.841.07.309.142.622.217.943l-.126.237-2.343.54c-.118.028-.208.004-.271-.072a.696.696 0 0 1-.135-.256 3.192 3.192 0 0 1-.07-.292c-.02-.1-.045-.198-.067-.294a.668.668 0 0 0-.261-.398 1.463 1.463 0 0 0-.462-.22 2.258 2.258 0 0 0-.988-.036 1.648 1.648 0 0 0-.892.527c-.109.128-.19.266-.243.42a1.011 1.011 0 0 0-.05.482l1.038 4.953zM49.784 77.01l-1.639 2.253-8.833-6.404-1.754 2.407-2.264-1.641 5.145-7.066 2.264 1.64-1.752 2.407 8.833 6.404zm-19.98 7.447l-.089-.314 1.332-2.504.311-.101 4.656 2.471.904-1.697-4.655-2.47-.088-.323 1.405-2.633.444.149 11.496 6.099.097.318-1.329 2.495-.323.105-4.555-2.417-.904 1.695 4.556 2.42.097.316-1.333 2.503-.32.099-11.703-6.211zm1.255 35.402c.654-.105 1.303.57 1.171 1.218a2.921 2.921 0 0 1-2.79-1.081.391.391 0 0 1 .5.11l1.119-.247zm-.41-5.387l-.006.214c.08-.204.241-.367.46-.351a.45.45 0 0 1 .396.33c.075.3-.25.615-.552.545a.466.466 0 0 1-.31-.276l-.006.259a.64.64 0 0 1-.024-.374.47.47 0 0 1 .041-.347zm-.31-4.506l.27.439c.266-.07.527-.15.78-.256.15.104.103.358-.043.465-.138.102-.322.106-.494.094.128.09.226.223.226.379-.279.028-.533-.14-.682-.374-.04.007-.08.005-.12.02l-.082-.228c.034-.006.067-.017.102-.024a.67.67 0 0 1 .043-.515zm1.955-6.539c-.202.072-.439.104-.617-.013-.177-.117-.213-.432-.022-.527l.187-.17a.327.327 0 0 1-.064-.452.328.328 0 0 1 .454-.043c.32.274-.12.827.062 1.205zm16.24 58.992l-3.803 3.54-.333-.024-1.66-1.775v-.333l7.117-6.624c.46-.426.946-.712 1.457-.852a3.438 3.438 0 0 1 1.524-.084c.506.087.997.267 1.47.553.476.282.906.628 1.3 1.047.396.426.716.886.958 1.382.248.496.392 1 .438 1.517a3.503 3.503 0 0 1-.205 1.517c-.183.502-.506.967-.963 1.392l-7.08 6.59-.338-.03-1.534-1.64-.005-.34 3.803-3.539-2.146-2.297zm19.576 14.579l-2.363 4.623-.319.09-2.167-1.1-.115-.312 4.418-8.654c.286-.56.642-.992 1.075-1.298a3.45 3.45 0 0 1 1.404-.6 4.232 4.232 0 0 1 1.573.017 5.922 5.922 0 0 1 1.578.541c.518.264.976.586 1.377.97.4.382.71.806.929 1.277.217.466.328.966.328 1.497-.002.53-.144 1.08-.429 1.638l-4.395 8.607-.327.087-2.002-1.018-.124-.317 2.362-4.624-2.803-1.424zm14.867.31c-.146-.379-.447-.634-.905-.774a2.86 2.86 0 0 0-.45-.088 1.137 1.137 0 0 0-.42.033.81.81 0 0 0-.344.196.937.937 0 0 0-.231.401c-.049.147-.068.29-.055.427a.717.717 0 0 0 .171.392 1.3 1.3 0 0 0 .407.36c.164.093.315.182.458.273.473.304.924.642 1.363 1.016.434.37.802.78 1.1 1.232.296.446.502.934.61 1.458.112.523.078 1.09-.096 1.7a5.63 5.63 0 0 1-.786 1.686 4.209 4.209 0 0 1-1.208 1.17c-.467.294-.988.48-1.566.555-.575.076-1.19.023-1.841-.164-.737-.21-1.336-.495-1.803-.848a3.355 3.355 0 0 1-1.035-1.271 4.17 4.17 0 0 1-.364-1.688c-.01-.628.07-1.327.237-2.098l2.828.819a7.87 7.87 0 0 0-.106.821c-.017.27-.002.519.048.745.05.229.143.429.286.6.142.17.347.296.615.381.194.06.381.08.562.055.176-.024.348-.102.507-.23.173-.146.32-.33.443-.555a3.66 3.66 0 0 0 .267-.657 1.133 1.133 0 0 0-.054-.797.82.82 0 0 0-.185-.277 3.53 3.53 0 0 0-.299-.28 3.894 3.894 0 0 0-.323-.25c-.108-.079-.202-.141-.277-.194-.484-.322-.92-.628-1.307-.928a4.256 4.256 0 0 1-.947-.986 3.045 3.045 0 0 1-.482-1.223c-.073-.455-.044-.995.093-1.622.146-.656.377-1.193.693-1.619.316-.427.698-.75 1.142-.962a3.53 3.53 0 0 1 1.483-.345 5.812 5.812 0 0 1 1.738.244c.639.183 1.164.442 1.572.777.41.335.72.734.933 1.197.213.464.33.988.353 1.574a8.174 8.174 0 0 1-.164 1.887l-2.615-.748c.116-.552.102-1.016-.046-1.394zm11.556 2.583a1.441 1.441 0 0 0-.358-.366 2.28 2.28 0 0 0-.916-.372 1.677 1.677 0 0 0-.54.02 1.58 1.58 0 0 0-.48.173 1.312 1.312 0 0 0-.37.31c-.102.125-.174.27-.214.437l-.721 5.008c-.028.193-.01.38.056.57.069.191.167.363.29.522.123.155.27.287.436.393.163.108.333.174.509.196a1.785 1.785 0 0 0 1.157-.259c.167-.104.31-.236.429-.397.119-.155.197-.336.236-.54l.003-.032a.814.814 0 0 1 .148-.411c.076-.095.2-.142.366-.134l.009.001 2.222.272.025.012c.118.05.195.13.237.237.036.107.048.22.034.334a5.544 5.544 0 0 1-.43 1.603 3.27 3.27 0 0 1-.932 1.226c-.406.332-.926.585-1.552.754-.625.17-1.381.245-2.273.222h-.018a4.581 4.581 0 0 1-2.79-1.424 4.437 4.437 0 0 1-.85-1.321 4.144 4.144 0 0 1-.307-1.599l.943-6.038c.03-.137.06-.274.092-.413.03-.143.069-.276.115-.405.138-.412.373-.777.703-1.097a4.36 4.36 0 0 1 1.14-.791c.432-.209.89-.355 1.377-.438a4.775 4.775 0 0 1 2.83.356 4.022 4.022 0 0 1 1.904 1.832c.208.403.359.838.457 1.306.066.297.083.6.045.912-.04.313-.078.633-.118.96l-.2.18-2.388-.291c-.12-.015-.194-.069-.227-.162a.684.684 0 0 1-.041-.286c.006-.097.02-.197.035-.3.012-.099.026-.199.037-.298a.65.65 0 0 0-.11-.462zm9.252 10.166l-2.934.257-1.194-13.638 4.103-.358c.731-.063 1.392-.042 1.976.065.584.106 1.09.31 1.517.62.422.301.762.711 1.018 1.23.256.518.416 1.153.484 1.906.031.371.01.767-.065 1.194a5.643 5.643 0 0 1-.377 1.228 5.21 5.21 0 0 1-.657 1.095 3.222 3.222 0 0 1-.91.795l2.946 5.091-3.014.264-3.089-4.995-.262.023.458 5.223zm20.26-3.811l-.146.306-2.454.943-.306-.136-4.751-12.35.14-.296 3.73-1.43a4.347 4.347 0 0 1 1.686-.29 4.74 4.74 0 0 1 1.629.335c.507.207.962.498 1.36.88.398.38.7.83.902 1.351l.148.388c.227.587.302 1.165.221 1.732a4.06 4.06 0 0 1-.562 1.571 5.05 5.05 0 0 1-1.141 1.282 5.614 5.614 0 0 1-1.512.874l-.704.27 1.76 4.57zm71.924-25.818l-3.173-1.828 3.493-1.668a4.94 4.94 0 0 0 2.333-6.595 4.959 4.959 0 0 0-6.607-2.327l-9.625 4.593-4.2-2.42.02-.029 15.104-7.209a4.942 4.942 0 0 0 2.333-6.594 4.959 4.959 0 0 0-6.608-2.328l-8.126 3.878a85.194 85.194 0 0 0 3.366-19.54h8.535a4.183 4.183 0 0 0 4.188-4.178 4.184 4.184 0 0 0-4.188-4.18h-8.498a85.223 85.223 0 0 0-3.323-20.21l8.046 3.84a4.959 4.959 0 0 0 6.608-2.326 4.942 4.942 0 0 0-2.333-6.595l-15.142-7.228 4.218-2.431 9.625 4.594a4.959 4.959 0 0 0 6.607-2.327 4.942 4.942 0 0 0-2.333-6.596l-3.493-1.667 3.173-1.83a7.432 7.432 0 0 0 2.729-10.161c-2.058-3.56-6.618-4.778-10.183-2.723l-3.306 1.904.32-4.122a4.948 4.948 0 0 0-4.555-5.314 4.953 4.953 0 0 0-5.325 4.547l-.847 10.886-4.217 2.43 1.32-16.971a4.949 4.949 0 0 0-4.555-5.313 4.952 4.952 0 0 0-5.325 4.547l-.658 8.458a85.532 85.532 0 0 0-15.064-12.763l3.769-6.515a4.175 4.175 0 0 0-1.533-5.709 4.192 4.192 0 0 0-5.72 1.53l-3.708 6.41a84.366 84.366 0 0 0-18.552-7.21l6.42-4.395a4.939 4.939 0 0 0 1.284-6.876 4.96 4.96 0 0 0-6.888-1.28L107.53 28.06V23.2l8.8-6.022a4.939 4.939 0 0 0 1.283-6.876 4.96 4.96 0 0 0-6.888-1.28l-3.195 2.186V7.55c0-4.11-3.337-7.44-7.454-7.44-4.117 0-7.455 3.33-7.455 7.44v3.81l-3.417-2.339a4.962 4.962 0 0 0-6.889 1.281 4.94 4.94 0 0 0 1.285 6.876l9.021 6.175v4.86l-14.065-9.627a4.961 4.961 0 0 0-6.89 1.281 4.94 4.94 0 0 0 1.285 6.876l6.115 4.185a84.267 84.267 0 0 0-18.35 6.854l-3.382-5.845a4.192 4.192 0 0 0-5.72-1.529 4.174 4.174 0 0 0-1.532 5.709l3.381 5.845a85.416 85.416 0 0 0-14.991 12.261l-.567-7.286a4.952 4.952 0 0 0-5.325-4.547 4.948 4.948 0 0 0-4.556 5.313l1.3 16.703-4.218-2.43-.826-10.618a4.951 4.951 0 0 0-5.323-4.547 4.948 4.948 0 0 0-4.556 5.314l.3 3.853-3.174-1.828c-3.566-2.054-8.124-.836-10.184 2.723a7.432 7.432 0 0 0 2.729 10.162l3.306 1.906-3.738 1.783a4.942 4.942 0 0 0-2.332 6.596 4.959 4.959 0 0 0 6.608 2.327l9.87-4.71 4.217 2.43-15.387 7.345a4.942 4.942 0 0 0-2.333 6.595 4.959 4.959 0 0 0 6.608 2.327l6.65-3.174a85.173 85.173 0 0 0-3.134 19.544H7.338a4.183 4.183 0 0 0-4.186 4.179 4.182 4.182 0 0 0 4.186 4.178h7.107a85.17 85.17 0 0 0 3.176 18.875l-6.73-3.213a4.959 4.959 0 0 0-6.608 2.328 4.942 4.942 0 0 0 2.333 6.594l15.387 7.345-4.218 2.43-9.87-4.71a4.959 4.959 0 0 0-6.607 2.327 4.94 4.94 0 0 0 2.332 6.595l3.738 1.784-3.306 1.906a7.432 7.432 0 0 0-2.729 10.162c2.06 3.558 6.618 4.777 10.184 2.723l3.173-1.828-.3 3.853a4.948 4.948 0 0 0 4.557 5.314 4.952 4.952 0 0 0 5.323-4.548l.826-10.616 4.218-2.43-1.3 16.701a4.948 4.948 0 0 0 4.556 5.314 4.954 4.954 0 0 0 5.325-4.548l.584-7.511a85.46 85.46 0 0 0 15.376 12.5l-3.783 6.54a4.174 4.174 0 0 0 1.532 5.709 4.191 4.191 0 0 0 5.72-1.53l3.806-6.58a84.341 84.341 0 0 0 18.194 6.699l-6.383 4.368a4.94 4.94 0 0 0-1.284 6.876 4.962 4.962 0 0 0 6.889 1.28l14.065-9.626v4.86L83.6 210.48a4.939 4.939 0 0 0-1.285 6.874 4.961 4.961 0 0 0 6.89 1.282l3.416-2.34v3.811c0 4.108 3.338 7.44 7.455 7.44s7.454-3.332 7.454-7.44v-3.657l3.195 2.186a4.96 4.96 0 0 0 6.888-1.282 4.938 4.938 0 0 0-1.284-6.874l-8.8-6.023v-4.861l13.845 9.475a4.96 4.96 0 0 0 6.888-1.281 4.939 4.939 0 0 0-1.284-6.876l-6.687-4.577a84.354 84.354 0 0 0 18.394-7.056l4.134 7.146a4.191 4.191 0 0 0 5.72 1.53 4.175 4.175 0 0 0 1.532-5.709l-4.172-7.21a85.45 85.45 0 0 0 15.45-13.003l.675 8.684a4.954 4.954 0 0 0 5.325 4.548 4.95 4.95 0 0 0 4.556-5.314l-1.321-16.97 4.217 2.43.847 10.885a4.954 4.954 0 0 0 5.325 4.548 4.948 4.948 0 0 0 4.556-5.314l-.321-4.123 3.306 1.905c3.565 2.055 8.125.835 10.183-2.723a7.433 7.433 0 0 0-2.729-10.163z"/><path d="M150.663 62.431a.99.99 0 0 0-.225-.337l-.992-.923-5.372 5.75.99.921a.77.77 0 0 0 .38.177 2.31 2.31 0 0 0 1.007-.013c.15-.04.255-.09.315-.155l3.876-4.146a.683.683 0 0 0 .168-.365c.022-.15.022-.3-.007-.459a1.93 1.93 0 0 0-.14-.45M123.2 176.851a1.235 1.235 0 0 0-.34-.51 1.236 1.236 0 0 0-.479-.258 1.48 1.48 0 0 0-.559-.04 2.392 2.392 0 0 0-.572.14l-1.014.379 1.001 2.6 1.009-.388c.45-.172.772-.414.958-.727.185-.308.183-.71-.004-1.196m18.153-122.028a1.28 1.28 0 0 0-.406-.487 1.936 1.936 0 0 0-.7-.327 1.617 1.617 0 0 0-1.297.247c-.194.14-.367.312-.52.529l-2.15 3.065a4.292 4.292 0 0 0-.44.778 1.96 1.96 0 0 0-.157.743c.002.241.065.473.192.694.126.217.33.425.614.624.235.162.48.248.74.252.26.004.515-.04.759-.135.243-.098.472-.23.683-.399.211-.17.381-.343.51-.53l2.153-3.066c.12-.173.198-.378.237-.613.037-.237.04-.472 0-.708a2.185 2.185 0 0 0-.218-.667M104.827 182.13c.27-.077.494-.186.669-.326.18-.143.311-.324.392-.55.082-.229.11-.504.08-.833-.027-.31-.116-.553-.273-.737-.152-.18-.34-.32-.563-.414a2.39 2.39 0 0 0-.732-.172 4.58 4.58 0 0 0-.768.001l-.757.067.28 3.197.75-.065a5.76 5.76 0 0 0 .922-.167m-31.954-7.551a.707.707 0 0 0 .067-.495 1.248 1.248 0 0 0-.222-.458 1.779 1.779 0 0 0-.388-.385 2.86 2.86 0 0 0-.422-.27 1.85 1.85 0 0 0-.45-.154 2.36 2.36 0 0 0-.536-.061c-.176 0-.342.03-.494.093a.655.655 0 0 0-.344.3l-.835 1.635 2.796 1.422.828-1.626zm-19.034-12.805a.705.705 0 0 0 .232-.444 1.216 1.216 0 0 0-.051-.506 1.806 1.806 0 0 0-.233-.493 2.915 2.915 0 0 0-.305-.396 2.372 2.372 0 0 0-.852-.542 1.305 1.305 0 0 0-.495-.079.654.654 0 0 0-.428.164l-1.343 1.25 2.139 2.29 1.336-1.244zm70.442-51.235c.786-.095 1.147-.403 1.083-.92-.066-.537-.451-.761-1.155-.675a1.31 1.31 0 0 0-.704.306.692.692 0 0 0-.252.644c.063.508.405.723 1.028.646m-23.341 1.781c-.253-.262-.572-.37-.954-.323a1.04 1.04 0 0 0-.842.591c-.162.302-.218.656-.168 1.06.136 1.106.608 1.61 1.415 1.51.81-.1 1.141-.718 1.001-1.857-.047-.39-.2-.718-.452-.98m6.44 9.489c-.252-.263-.57-.37-.953-.324a1.042 1.042 0 0 0-.842.593c-.162.303-.22.656-.169 1.058.137 1.107.61 1.61 1.416 1.511.809-.1 1.142-.718 1.003-1.855-.051-.392-.2-.72-.454-.983m11.996-1.93c-.342.043-.618.17-.828.386-.21.214-.305.488-.285.821l.994-.122c.755-.094 1.115-.3 1.074-.62-.047-.383-.365-.535-.955-.465"/><path d="M102.932 113.258c.11.89-.03 1.631-.42 2.224-.406.627-1.05.993-1.93 1.101-.879.109-1.597-.086-2.154-.584-.529-.47-.85-1.15-.96-2.038-.105-.86.045-1.59.454-2.198.424-.649 1.056-1.025 1.896-1.128.901-.112 1.615.07 2.148.546.532.474.854 1.166.966 2.077zm.58-5.61c.43-.412.785-.633 1.063-.667.298-.036.548.472.752 1.529.008.072.098.754.268 2.045l.442 3.58c.003.032.16.156.471.375.31.22.475.395.491.53.056.456-.298.729-1.065.824-.081.01-.205.019-.368.029-.16.01-.283.02-.364.03-.52.062-.821.09-.907.078-.32-.045-.504-.24-.547-.593-.008-.072.093-.243.3-.518.209-.27.294-.558.255-.857l-.6-4.882-.211.04c-.132.027-.252-.017-.372-.134a.678.678 0 0 1-.202-.391c-.034-.27.164-.61.593-1.019zm3.79-.467c.43-.41.784-.63 1.06-.664.302-.039.55.47.755 1.527l.268 2.044.441 3.582c.005.032.162.156.473.374.31.22.474.396.491.53.056.455-.3.728-1.065.823-.084.01-.207.02-.367.03-.162.01-.284.02-.368.03-.515.065-.82.09-.904.08-.321-.045-.504-.242-.547-.595-.01-.072.09-.244.3-.516.208-.272.292-.558.256-.857l-.6-4.884-.212.042c-.132.026-.256-.02-.37-.136a.674.674 0 0 1-.207-.391c-.032-.27.165-.609.596-1.019zm3.699-.635c.176-.279.44-.44.792-.483a.998.998 0 0 1 .862.28c.233.228.37.517.416.87.04.322-.04.616-.232.886-.19.269-.448.425-.77.464-.3.038-.577-.056-.83-.278-.252-.22-.399-.479-.435-.778-.044-.363.02-.683.197-.961zm2.298 4.825l.197 1.596c.023.186.2.41.531.666.331.26.505.456.523.59.043.351-.209.56-.759.628l-1.29.159c-.361.044-.619.05-.77.016-.271-.061-.423-.242-.46-.542-.02-.154.202-.413.662-.774.11-.118.094-.762-.051-1.929-.054-.446-.103-.68-.149-.705l-.545-.06c-.19-.019-.302-.156-.335-.415-.026-.217.184-.545.63-.983.446-.437.787-.67 1.025-.7.238-.03.433.314.584 1.03.052.245.12.719.207 1.423zm2.069 8.64c.454.533.727 1.177.821 1.931.095.765-.013 1.465-.323 2.103-.353.734-.89 1.146-1.613 1.234a1.847 1.847 0 0 1-.995-.124c-.344-.156-.538-.406-.58-.74-.057-.462.122-.719.538-.77l.247-.031c.114-.013.201-.024.265-.033.32-.037.566-.216.738-.531.154-.28.211-.587.17-.917-.048-.381-.184-.69-.412-.925a1.045 1.045 0 0 0-.941-.34c-.426.05-.732.261-.917.63-.151.302-.2.68-.146 1.137l.325 2.618c.487.035.756.243.803.627.03.258-.216.677-.744 1.255-.528.58-.927.885-1.196.917-.146.018-.299-.046-.458-.195-.16-.147-.249-.295-.266-.438-.013-.114.065-.36.241-.74.065-.142.039-.705-.083-1.688l-.4-3.255-.154.05c-.161.05-.32.008-.473-.129-.153-.135-.241-.284-.26-.45-.03-.233.178-.562.62-.99.44-.426.786-.655 1.032-.686.323-.038.596.174.822.64.458-.549.946-.856 1.464-.92.725-.088 1.35.164 1.875.76zm-.063-10.846c.414-.434.752-.668 1.01-.698.24-.03.409.064.508.284.058.129.11.38.156.752.436-.8 1.02-1.244 1.744-1.333.984-.12 1.565.545 1.744 2l.187 1.511c.156-.008.324.046.502.168.178.121.277.253.294.399.033.28-.189.712-.67 1.293-.479.581-.86.887-1.14.921a.598.598 0 0 1-.476-.145.679.679 0 0 1-.201-.32c-.002.003-.006.015-.009.015-.01.002-.021-.05-.033-.153.006.05.028.092.042.138.039-.04.076-.297.112-.79.062-.784.076-1.301.045-1.562-.069-.55-.133-.916-.197-1.087-.158-.423-.402-.617-.735-.575-.557.069-.874.397-.95.987-.032.248-.003.746.091 1.494.03.261.22.51.565.742.344.23.524.414.54.55.05.405-.63.697-2.038.87-.787.096-1.21-.098-1.268-.584-.02-.144.048-.274.202-.388.214-.151.352-.273.412-.365.145-.196.194-.49.145-.884l-.217-1.75-.165.067a.745.745 0 0 1-.502-.12.555.555 0 0 1-.274-.415c-.03-.247.163-.589.576-1.022zm6.65 11.424c.102.817-.48 1.303-1.744 1.458a9.47 9.47 0 0 1-.85.048c-.385.01-.67.028-.857.05.048.31.2.538.448.686.249.148.533.2.855.162.23-.028.517-.158.868-.39.348-.233.55-.352.601-.357.477-.06.744.14.8.594.056.443-.185.841-.722 1.19a3.2 3.2 0 0 1-1.403.518c-.848.104-1.57-.121-2.165-.677-.557-.52-.888-1.208-.995-2.066-.102-.817.06-1.54.49-2.177.424-.635 1.043-1.001 1.85-1.1.725-.09 1.354.053 1.889.429.537.375.847.92.934 1.632zm2.777-12.89c-.207-.403-.322-.709-.348-.918-.043-.33.054-.62.286-.869.234-.248.518-.393.862-.435.31-.04.612.035.9.22.293.183.456.427.493.726a.632.632 0 0 1-.184.55.91.91 0 0 1-.553.264 1.117 1.117 0 0 1-.611-.113c-.095 0-.157.022-.19.06-.033.043-.036.108-.015.2.014.104.261.37.746.799.484.428.745.807.786 1.139.086.692-.147 1.242-.695 1.644-.271.201-.8.424-1.59.667-.575.185-.852.372-.83.558.036.287.417.39 1.141.301a7.39 7.39 0 0 0 .616-.116c.277-.06.483-.098.618-.115.537-.066.996-.008 1.376.176.449.219.703.58.767 1.089.092.763-.246 1.424-1.019 1.98-.637.456-1.38.736-2.23.842a5.308 5.308 0 0 1-1.837-.075c-.769-.177-1.19-.55-1.258-1.12a.798.798 0 0 1 .225-.665c.18-.196.396-.307.643-.339.229-.028.574.163 1.034.574.46.41.866.595 1.219.552.341-.044.654-.154.936-.337.351-.222.509-.481.472-.78-.055-.446-.456-.623-1.2-.53a8.052 8.052 0 0 0-.563.099c-.252.051-.44.087-.565.102-.62.076-1.065.09-1.335.039-.506-.097-.786-.378-.845-.841-.06-.475.261-.946.963-1.41-.77-.346-1.192-.824-1.268-1.433-.17-1.396.846-2.225 3.053-2.484zm2.367 15.39c-.343.387-.798.616-1.367.688a2 2 0 0 1-.961-.118c-.242.332-.495.515-.752.548-.289.035-.611-.177-.96-.638-.327-.422-.51-.792-.549-1.113-.055-.444.151-.694.616-.753.176-.022.538.12 1.086.426s.9.449 1.053.428c.425-.051.617-.243.577-.573-.033-.259-.324-.455-.876-.585-.931-.21-1.451-.342-1.561-.391-.577-.234-.897-.608-.96-1.124-.063-.516.05-.96.339-1.325.294-.367.698-.582 1.215-.645.332-.04.693-.007 1.086.1.126-.34.339-.527.639-.564.27-.032.552.177.852.635.256.388.407.742.447 1.064.042.35-.153.552-.588.606-.207.024-.528-.095-.96-.363-.432-.266-.69-.395-.772-.384a.662.662 0 0 0-.366.17.381.381 0 0 0-.14.349c.027.206.311.375.853.508.834.203 1.34.345 1.52.427.558.267.87.67.936 1.207.069.558-.067 1.031-.407 1.42zm-18.145 1.882c-.406.627-1.05.995-1.93 1.103-.88.107-1.599-.087-2.154-.586-.53-.47-.852-1.147-.96-2.037-.107-.857.046-1.59.455-2.196.423-.65 1.054-1.027 1.893-1.13.9-.111 1.618.07 2.15.546.531.476.853 1.167.964 2.077.11.888-.028 1.63-.418 2.223zm-5.745 1.287a2.86 2.86 0 0 1-1.337.543c-.86.106-1.585-.11-2.177-.645-.567-.508-.904-1.196-1.011-2.064-.108-.868.07-1.624.525-2.266.456-.643 1.115-1.02 1.974-1.125a2.6 2.6 0 0 1 1.349.196c.52.209.806.525.859.948a.674.674 0 0 1-.185.558.824.824 0 0 1-.533.286c-.05.007-.273-.084-.664-.274-.392-.186-.688-.268-.896-.24-.374.044-.637.25-.791.615-.123.288-.16.633-.11 1.035.05.405.188.727.42.972.254.273.579.386.97.337.209-.026.502-.142.882-.353.378-.208.603-.317.675-.325.165-.022.322.038.463.177.145.14.227.294.247.458.053.425-.168.813-.66 1.167zm-5.677 3c-.71.79-1.68 1.261-2.899 1.41-1.193.147-2.234-.03-3.125-.529-1.004-.548-1.576-1.395-1.718-2.542-.103-.837.076-1.553.54-2.144.464-.592 1.115-.94 1.954-1.043.36-.044.687-.006.975.116.344.148.538.391.579.73.043.343-.127.622-.511.838l-1.042.378c-.37.223-.527.583-.467 1.08.073.579.38 1.002.931 1.271.48.235 1.026.313 1.637.238.704-.085 1.264-.353 1.684-.804.417-.45.581-1.021.498-1.713a4.726 4.726 0 0 0-.085-.431c-.153-.642-.506-1.117-1.059-1.427-.307-.183-.91-.393-1.811-.628-.903-.234-1.6-.484-2.096-.75-.745-.412-1.121-1.037-1.132-1.876-.013-.542.196-1.062.628-1.556.479-.563 1.121-.892 1.928-.992.25-.03.616-.007 1.097.07.05-.027.173-.137.37-.327a.753.753 0 0 1 .463-.216c.403-.05.808.252 1.215.906.342.556.537 1.03.585 1.422a.613.613 0 0 1-.165.516.77.77 0 0 1-.496.258c-.175.024-.437-.093-.784-.343a69.702 69.702 0 0 1-.732-.556 1.66 1.66 0 0 0-1.116-.24c-.3.036-.554.16-.759.368a.866.866 0 0 0-.254.747c.044.372.615.696 1.712.97 1.234.298 2.095.587 2.582.863 1.028.578 1.625 1.542 1.793 2.896.147 1.2-.158 2.213-.92 3.04zm-8.848-16.847a3.172 3.172 0 0 1-.692-1.63c-.154-1.26.209-2.308 1.097-3.141.79-.737 1.84-1.186 3.144-1.347 1.296-.157 2.407-.012 3.334.441 1.084.527 1.703 1.407 1.856 2.637.098.795-.056 1.472-.46 2.03-.404.56-.998.94-1.784 1.142.574 1.313 1.268 2.42 2.081 3.316 1.107 1.218 2.23 1.757 3.369 1.617.352-.044.836-.24 1.45-.59.613-.345.968-.525 1.06-.537.302-.038.566.023.797.185a.94.94 0 0 1 .4.69c.082.65-.252 1.238-.998 1.76a4.42 4.42 0 0 1-2.016.783c-1.866.229-3.522-.48-4.978-2.128-1.087-1.23-1.995-2.892-2.727-4.985l-.456.01.183 1.49c.556.078.856.28.897.613.043.361-.229.935-.821 1.722-.592.786-1.07 1.2-1.43 1.245a.86.86 0 0 1-.63-.167.766.766 0 0 1-.326-.55c-.012-.093.123-.356.407-.79.23-.342.283-1.025.157-2.049l-.396-3.21c-.016-.133-.144-.31-.381-.527-.237-.217-.36-.368-.37-.448-.063-.508.403-.822 1.397-.945.767-.093 1.176.071 1.228.495.017.133-.01.34-.074.614-.066.277-.09.487-.072.632l.078.635c.233.035.467.037.703.007.532-.065.968-.243 1.306-.536.394-.344.56-.767.498-1.273-.082-.663-.456-1.141-1.124-1.436-.556-.257-1.19-.343-1.894-.256-.723.088-1.352.308-1.889.657-.68.441-.982.98-.903 1.622.036.288.251.653.647 1.093.395.438.599.716.615.829a.907.907 0 0 1-.178.674.831.831 0 0 1-.594.348c-.57.073-1.075-.177-1.511-.742zm13.792-6.261l-.214.198-.213.212-.204.226-.19.245-.178.272-.159.315-.131.367-.079.425.006.422.008.036-.114-.019-.234-.026-.235-.017-.235-.005-.236.005-.237.017-.238.025-.23.033-.184.035-.013-.085-.064-.317-.083-.312-.103-.305-.117-.302-.141-.29-.159-.282-.177-.27-.193-.258-.214-.244-.227-.23-.243-.214-.255-.197-.268-.182-.277-.165-.28-.144-.25-.117-.25-.103-.258-.093-.26-.084-.262-.07-.267-.061-.271-.053-.272-.039-.273-.032-.278-.022-.282-.013-.28-.003-.284.007-.287.014-.288.026-.29.03-.296.04-.293.051-.289.06-.284.067-.28.078-.276.088-.274.097-.264.11-.26.115-.255.128-.251.139-.24.15-.235.156-.229.17-.22.181-.217.193-.229.226-.216.24-.2.25-.188.262-.168.274-.154.282-.135.294-.115.303-.096.304-.077.313-.057.316-.039.318-.02.323-.002.321.015.322.032.33.056.34.075.338.102.335.125.327.146.316.17.306.19.292.207.274.259.306.312.3.353.27.397.232.258.104c1.275.598-1.055 2.367.741 3.568-1.734 1.843-1.52 3.732-.317 5.37l.108.14-.007.006-.167.164-.155.17-.146.18-.138.185-.127.192-.119.197-.109.207-.095.21-.087.214-.073.219-.064.225-.05.224-.038.227-.028.228-.017.23-.006.227.005.226.013.23.024.236.046.3.059.298.079.294.094.294.113.285.128.278.146.267.164.26.181.251.195.237.21.222.223.212.235.196.248.183.256.167.254.148.235.125.243.115.247.105.254.095.258.082.26.075.263.061.266.05.27.04.267.03.274.017.276.01h.276l.277-.011.276-.022.283-.029.29-.042.288-.051.283-.064.278-.07.276-.087.27-.095.265-.106.26-.12.255-.13.243-.141.242-.156.231-.165.223-.176.216-.187.204-.196.192-.205.192-.218.188-.238.173-.25.158-.258.143-.265.129-.273.111-.282.094-.272.11.036.238.063.236.05.241.035.244.023.242.011.242-.002.24-.013.25-.024.284-.044.29-.066.285-.084.276-.103.268-.12.262-.135.25-.15.255-.172.288-.222.034-.034.078.038.222.097.225.083.233.07.233.057.235.042.237.032.238.02.238.007.237-.005.238-.014.237-.024.237-.035.235-.043.234-.055.23-.065.226-.079.223-.088.22-.102.028-.015.003.221.058.302.074.244.095.22.107.2.123.183.125.158.127.14.135.133.155.134.172.129.199.122.23.113.256.092.28.063.3.027.344-.017.421-.1.365-.153.3-.177.26-.185.24-.197.232-.211.228-.227.234-.248.225-.257.21-.255.191-.26.177-.274.162-.303.002-.005.05-.009.474-.153.451-.217.417-.276.374-.328.322-.368.042-.062.086.063.21.131.214.12.22.107.23.096.234.08.24.068.24.05.242.042.245.024.246.014h.24l.243-.014.247-.023.288-.044.289-.06.28-.077.278-.094.275-.11.261-.125.258-.142.255-.156.07-.052.135.102.338.194.395.15.452.088.46-.006.38-.075.324-.113.291-.146.13-.082.154.004.231-.006.24-.023.342-.055.345-.087.338-.114.33-.147.317-.178.298-.21.275-.237.255-.262.233-.295.205-.326.17-.35.125-.36.088-.375.043-.377.006-.375-.031-.384-.075-.403-.133-.412-.193-.397-.176-.257.04-.09.077-.499-.016-.41-.05-.294-.06-.25-.077-.243-.09-.232-.098-.222-.115-.218-.12-.21-.106-.165.065-.044.193-.132.39-.31.37-.362.333-.41.277-.458.213-.501.131-.528.053-.543-.03-.522-.068-.392-.112-.375-.162-.37-.212-.348-.257-.317-.297-.279-.322-.235-.19-.106.137-.403.087-.469.025-.467-.033-.478-.074-.37-.126-.349-.155-.314-.068-.105.092-.124.139-.255.108-.266.077-.28.04-.284.009-.273-.02-.266-.056-.304-.093-.308-.13-.297-.166-.278-.19-.25-.216-.224-.23-.196-.23-.16-.23-.135-.241-.117-.254-.097-.264-.077-.273-.055-.281-.03-.278-.001-.273.02-.275.046-.271.068-.266.094-.261.117-.247.139-.23.16-.217.18-.203.198-.194.228-.173.257-.15.279-.117.299-.084.312-.044.283-.273.103-.397.186-.38.223-.361.262-.095.086-.084-.086c-1.597-1.257-4.455-1.014-6.114.04l-.014-.16-.042-.268-.064-.26-.084-.26-.11-.257-.13-.245-.151-.234-.175-.22-.195-.207-.226-.2-.264-.187-.291-.157-.308-.12-.317-.084-.32-.042-.311-.008-.302.022-.3.05-.3.083-.298.116-.289.155-.27.189-.247.218-.109.122-.014-.016c-.826-.495-1.37-.598-2.28-.286a5.25 5.25 0 0 0-1.358.923c-.654-.74-1.561-.755-2.432-.459l-.281.131-.251.144-.235.159-.22.168-.214.18zm43.618 13.056c.005-.212.041-.387.11-.523a.708.708 0 0 1 .287-.313.792.792 0 0 1 .405-.104c.154 0 .286.035.408.104.12.07.217.17.286.313.067.136.105.31.108.523v5.824h1.633v-5.824a1.21 1.21 0 0 1 .106-.523.724.724 0 0 1 .289-.313.794.794 0 0 1 .405-.104.84.84 0 0 1 .411.104c.121.07.22.17.291.313.074.136.11.31.118.523v5.824h1.63v-5.841c0-.31-.02-.573-.05-.789a2.27 2.27 0 0 0-.16-.556 1.864 1.864 0 0 0-.265-.409 2.182 2.182 0 0 0-.398-.357 1.805 1.805 0 0 0-.493-.206 2.87 2.87 0 0 0-.65-.068 2.146 2.146 0 0 0-.588.101c-.1.031-.192.07-.277.118a2.928 2.928 0 0 0-.385.28 3.71 3.71 0 0 0-.34.334 1.933 1.933 0 0 0-1.587-.833c-.146 0-.29.02-.43.06-.14.036-.267.09-.385.159-.104.055-.2.129-.293.224a2.08 2.08 0 0 0-.247.281v-.598h-1.567v8.1h1.628v-5.824zm-12.932 4.226c.076.343.2.624.368.86a1.956 1.956 0 0 0 1.191.785c.23.051.48.08.738.076.36 0 .685-.046.975-.142.292-.099.54-.253.748-.459.22-.223.391-.501.504-.832.113-.325.18-.686.203-1.072h-1.615c-.008.14-.024.276-.052.41a.918.918 0 0 1-.167.36.602.602 0 0 1-.242.2.802.802 0 0 1-.354.075.842.842 0 0 1-.364-.081.633.633 0 0 1-.27-.242 1.447 1.447 0 0 1-.161-.524 6.63 6.63 0 0 1-.064-.802 54.84 54.84 0 0 1-.006-1.072c-.004-.603.006-1.103.033-1.502.028-.403.094-.695.197-.883a.734.734 0 0 1 .275-.248.794.794 0 0 1 .36-.088c.135 0 .25.026.35.076a.74.74 0 0 1 .246.216c.083.11.138.232.167.364.028.132.044.263.052.39h1.615a4.815 4.815 0 0 0-.094-.697c-.05-.23-.126-.45-.225-.66a1.91 1.91 0 0 0-1.181-1.015 3.157 3.157 0 0 0-.93-.122c-.258 0-.508.026-.738.074a1.959 1.959 0 0 0-1.19.773 2.39 2.39 0 0 0-.37.874 6.706 6.706 0 0 0-.165 1.134c-.023.416-.036.856-.034 1.314-.002.464.011.902.034 1.323.028.416.081.798.166 1.137m7-3.962c.025-.403.092-.696.197-.883a.744.744 0 0 1 .277-.247.79.79 0 0 1 .359-.09.78.78 0 0 1 .353.09.74.74 0 0 1 .275.247c.105.187.171.48.198.883.025.4.037.9.032 1.502a22.64 22.64 0 0 1-.032 1.51c-.027.404-.093.703-.198.888a.69.69 0 0 1-.275.242.826.826 0 0 1-.712 0 .695.695 0 0 1-.277-.242c-.105-.185-.172-.484-.197-.889a22.64 22.64 0 0 1-.033-1.51c-.006-.6.01-1.102.033-1.5m-1.466 3.952c.078.34.204.632.37.87a1.96 1.96 0 0 0 1.184.784c.232.052.48.08.745.076.258.004.506-.024.738-.076a1.95 1.95 0 0 0 1.184-.784c.166-.238.292-.53.375-.87.083-.346.132-.723.16-1.137a20.5 20.5 0 0 0 .036-1.314c0-.459-.01-.898-.037-1.314a6.727 6.727 0 0 0-.16-1.134 2.537 2.537 0 0 0-.374-.872 1.941 1.941 0 0 0-1.184-.775 3.617 3.617 0 0 0-.738-.073 3.67 3.67 0 0 0-.745.073 1.974 1.974 0 0 0-.646.264 1.875 1.875 0 0 0-.538.51 2.434 2.434 0 0 0-.37.873 6.593 6.593 0 0 0-.167 1.134 25.357 25.357 0 0 0 0 2.628c.03.414.08.791.167 1.137m18.709 15.685a.964.964 0 0 0-1.87.464l.747 3c.13.514.655.83 1.168.702a.966.966 0 0 0 .703-1.166l-.748-3zm-3.453.446a1.21 1.21 0 0 0-2.35.582l.94 3.775a1.212 1.212 0 0 0 2.35-.584l-.94-3.773zm-3.756.574a1.427 1.427 0 0 0-2.77.687l1.107 4.447c.19.76.967 1.229 1.729 1.04a1.43 1.43 0 0 0 1.042-1.727l-1.108-4.447zm-61.409 5.753c-.247.008-.493.153-.546.325l-1.614 5.29c-.052.172.107.307.355.3.246-.007.492-.154.545-.325l1.614-5.29c.052-.173-.108-.307-.354-.3m-8.965-.387c-.298.008-.592.183-.654.39l-1.938 6.349c-.062.205.129.368.425.36.298-.01.593-.186.654-.392l1.939-6.348c.062-.206-.129-.369-.426-.359m6.932.308c-.258.006-.514.16-.57.339l-1.684 5.52c-.055.179.112.319.37.312.26-.009.514-.161.57-.34l1.684-5.518c.054-.18-.112-.32-.37-.313m-4.505-.229c-.286.01-.568.177-.63.376l-1.865 6.112c-.06.198.124.354.41.345.286-.008.57-.177.63-.375l1.865-6.111c.06-.2-.124-.355-.41-.347m2.338.067c-.285.007-.565.17-.622.362l-1.802 5.9c-.058.192.126.342.41.334.283-.008.565-.171.623-.364l1.8-5.899c.059-.191-.126-.342-.41-.333"/></g></svg>