<svg width="947" height="160" viewBox="0 0 947 160" xmlns="http://www.w3.org/2000/svg"><title>logo copy 3</title><path d="M65.41 1.418h22.12v25.049h24.17V1.418h22.216V73h-22.217V44.045H87.53V73H65.41zm95.345 0h59.277v15.283h-37.11v11.377h34.424v14.6h-34.423v14.111h38.183V73h-60.351zM312.872 73V1.418h36.865c6.836 0 12.06.586 15.674 1.758 3.613 1.172 6.526 3.344 8.74 6.518 2.213 3.174 3.32 7.04 3.32 11.597 0 3.971-.846 7.397-2.539 10.278-1.693 2.881-4.02 5.217-6.982 7.007-1.888 1.14-4.476 2.084-7.764 2.832 2.637.88 4.557 1.758 5.762 2.637.814.586 1.994 1.84 3.54 3.76 1.546 1.92 2.58 3.401 3.1 4.443L383.282 73h-25l-11.817-21.875c-1.497-2.832-2.832-4.671-4.004-5.518-1.595-1.106-3.401-1.66-5.42-1.66h-1.953V73h-22.216zm22.216-42.578h9.327c1.009 0 2.962-.326 5.859-.977 1.465-.293 2.661-1.041 3.589-2.246.928-1.204 1.391-2.588 1.391-4.15 0-2.311-.732-4.085-2.197-5.322s-4.215-1.856-8.252-1.856h-9.717v14.55zm82.015 6.836c0-11.686 3.255-20.785 9.766-27.295 6.51-6.51 15.576-9.766 27.197-9.766 11.914 0 21.094 3.198 27.54 9.595 6.444 6.397 9.667 15.356 9.667 26.88 0 8.366-1.408 15.226-4.224 20.58-2.815 5.356-6.884 9.522-12.207 12.5-5.322 2.98-11.954 4.469-19.897 4.469-8.073 0-14.754-1.286-20.044-3.858-5.29-2.571-9.578-6.64-12.866-12.207-3.288-5.566-4.932-12.532-4.932-20.898zm22.12.097c0 7.227 1.342 12.42 4.028 15.577 2.685 3.157 6.34 4.736 10.962 4.736 4.752 0 8.43-1.546 11.035-4.639 2.604-3.092 3.906-8.642 3.906-16.65 0-6.738-1.36-11.662-4.077-14.77-2.718-3.11-6.405-4.664-11.06-4.664-4.46 0-8.04 1.58-10.742 4.737-2.702 3.157-4.053 8.382-4.053 15.673zm97.853-35.937h22.119v53.955h34.521V73h-56.64z"/><path d="M583.23 1.418h22.119v53.955h34.521V73h-56.64zm109.754 0h22.168V73h-22.168zm98.528 0h20.654l26.954 39.6v-39.6h20.85V73h-20.85l-26.807-39.307V73h-20.8zm117.497 45.654V32.18h34.18v30.517c-6.544 4.46-12.33 7.495-17.359 9.107-5.03 1.611-10.994 2.417-17.895 2.417-8.497 0-15.422-1.449-20.777-4.346-5.355-2.897-9.505-7.21-12.451-12.94-2.946-5.729-4.419-12.304-4.419-19.726 0-7.813 1.611-14.608 4.834-20.386 3.223-5.778 7.943-10.164 14.16-13.159 4.85-2.311 11.377-3.467 19.58-3.467 7.91 0 13.827.716 17.75 2.149 3.922 1.432 7.177 3.654 9.765 6.665 2.588 3.01 4.533 6.828 5.835 11.45l-21.338 3.809c-.879-2.702-2.368-4.77-4.468-6.202-2.1-1.432-4.777-2.148-8.032-2.148-4.85 0-8.716 1.684-11.597 5.054-2.88 3.369-4.321 8.7-4.321 15.99 0 7.748 1.457 13.282 4.37 16.602 2.914 3.32 6.974 4.98 12.183 4.98 2.474 0 4.834-.357 7.08-1.073 2.246-.716 4.818-1.937 7.715-3.662v-6.739h-14.795zM.295 1.418H67.53v17.676H44.973V73h-22.12V19.094H.296zm7.633 132.9L28.973 133c.456 3.418 1.384 6.022 2.783 7.813 2.28 2.897 5.534 4.345 9.766 4.345 3.158 0 5.59-.74 7.3-2.221 1.709-1.482 2.563-3.199 2.563-5.152 0-1.855-.813-3.515-2.441-4.98-1.628-1.465-5.404-2.849-11.328-4.15-9.7-2.182-16.618-5.079-20.752-8.692-4.167-3.613-6.25-8.22-6.25-13.818 0-3.679 1.066-7.154 3.198-10.425 2.132-3.272 5.339-5.843 9.62-7.715 4.28-1.872 10.147-2.808 17.602-2.808 9.147 0 16.121 1.701 20.923 5.103 4.801 3.402 7.658 8.813 8.569 16.235l-20.85 1.22c-.553-3.222-1.717-5.566-3.49-7.03-1.775-1.465-4.224-2.198-7.35-2.198-2.571 0-4.508.546-5.81 1.636-1.302 1.09-1.953 2.417-1.953 3.98 0 1.139.537 2.164 1.611 3.076 1.042.944 3.516 1.823 7.422 2.636 9.668 2.084 16.593 4.192 20.776 6.324 4.183 2.132 7.227 4.777 9.131 7.934 1.905 3.158 2.857 6.69 2.857 10.596 0 4.59-1.27 8.822-3.809 12.695-2.539 3.874-6.087 6.812-10.644 8.814-4.558 2.002-10.303 3.003-17.237 3.003-12.174 0-20.605-2.344-25.293-7.032-4.687-4.687-7.34-10.644-7.959-17.87zm148.153-5.566l19.385 5.86c-1.302 5.436-3.353 9.977-6.153 13.622-2.799 3.646-6.274 6.397-10.424 8.252-4.15 1.856-9.432 2.784-15.845 2.784-7.78 0-14.136-1.132-19.067-3.394-4.932-2.262-9.188-6.242-12.769-11.939-3.58-5.696-5.371-12.988-5.371-21.875 0-11.849 3.15-20.955 9.448-27.319 6.299-6.364 15.21-9.546 26.734-9.546 9.017 0 16.105 1.823 21.264 5.469 5.16 3.646 8.993 9.245 11.5 16.797l-19.532 4.346c-.684-2.181-1.4-3.776-2.148-4.786-1.237-1.692-2.751-2.994-4.541-3.906-1.79-.911-3.793-1.367-6.006-1.367-5.013 0-8.854 2.018-11.524 6.055-2.018 2.994-3.027 7.698-3.027 14.111 0 7.943 1.204 13.387 3.613 16.333 2.409 2.946 5.794 4.419 10.156 4.419 4.232 0 7.43-1.188 9.595-3.564 2.165-2.377 3.735-5.827 4.712-10.352zm66.869-6.494c0-11.686 3.254-20.785 9.765-27.295 6.51-6.51 15.576-9.766 27.197-9.766 11.914 0 21.094 3.198 27.54 9.595 6.445 6.397 9.667 15.356 9.667 26.88 0 8.366-1.408 15.226-4.223 20.58-2.816 5.356-6.885 9.522-12.207 12.5-5.323 2.98-11.955 4.469-19.898 4.469-8.073 0-14.754-1.286-20.044-3.858-5.29-2.571-9.578-6.64-12.866-12.207-3.288-5.566-4.932-12.532-4.932-20.898zm22.118.097c0 7.227 1.343 12.42 4.029 15.577 2.685 3.157 6.34 4.736 10.962 4.736 4.752 0 8.43-1.546 11.035-4.639 2.604-3.092 3.906-8.642 3.906-16.65 0-6.738-1.359-11.662-4.077-14.77-2.718-3.11-6.405-4.664-11.06-4.664-4.46 0-8.04 1.58-10.742 4.737-2.702 3.157-4.053 8.382-4.053 15.673z"/><path d="M292.114 86.418h36.768c8.008 0 14.005 1.904 17.993 5.713 3.988 3.808 5.981 9.228 5.981 16.26 0 7.226-2.173 12.874-6.518 16.943-4.346 4.069-10.978 6.103-19.898 6.103h-12.11V158h-22.216V86.418zm22.217 30.518h5.42c4.264 0 7.259-.741 8.984-2.222 1.725-1.481 2.588-3.377 2.588-5.689 0-2.246-.749-4.15-2.246-5.713-1.497-1.562-4.313-2.343-8.447-2.343h-6.3v15.967zm65.406-30.518h59.277v15.283h-37.11v11.377h34.425v14.6h-34.424v14.111h38.183V158h-60.351zm87.316 47.9L488.098 133c.455 3.418 1.383 6.022 2.783 7.813 2.278 2.897 5.534 4.345 9.765 4.345 3.158 0 5.591-.74 7.3-2.221 1.71-1.482 2.564-3.199 2.564-5.152 0-1.855-.814-3.515-2.442-4.98-1.627-1.465-5.403-2.849-11.328-4.15-9.7-2.182-16.618-5.079-20.752-8.692-4.167-3.613-6.25-8.22-6.25-13.818 0-3.679 1.066-7.154 3.198-10.425 2.133-3.272 5.339-5.843 9.62-7.715 4.28-1.872 10.148-2.808 17.602-2.808 9.147 0 16.121 1.701 20.923 5.103 4.801 3.402 7.658 8.813 8.57 16.235l-20.85 1.22c-.554-3.222-1.717-5.566-3.492-7.03-1.774-1.465-4.223-2.198-7.348-2.198-2.572 0-4.509.546-5.81 1.636-1.303 1.09-1.954 2.417-1.954 3.98 0 1.139.537 2.164 1.611 3.076 1.042.944 3.516 1.823 7.422 2.636 9.668 2.084 16.594 4.192 20.777 6.324 4.183 2.132 7.226 4.777 9.13 7.934 1.905 3.158 2.857 6.69 2.857 10.596 0 4.59-1.27 8.822-3.809 12.695-2.539 3.874-6.087 6.812-10.644 8.814s-10.303 3.003-17.236 3.003c-12.175 0-20.606-2.344-25.293-7.032-4.688-4.687-7.34-10.644-7.96-17.87zm207.028-5.566l19.385 5.86c-1.302 5.436-3.353 9.977-6.153 13.622-2.799 3.646-6.274 6.397-10.424 8.252-4.15 1.856-9.432 2.784-15.845 2.784-7.78 0-14.136-1.132-19.067-3.394-4.932-2.262-9.188-6.242-12.769-11.939-3.58-5.696-5.371-12.988-5.371-21.875 0-11.849 3.15-20.955 9.448-27.319 6.299-6.364 15.21-9.546 26.734-9.546 9.017 0 16.105 1.823 21.264 5.469 5.16 3.646 8.993 9.245 11.5 16.797l-19.532 4.346c-.684-2.181-1.4-3.776-2.148-4.786-1.237-1.692-2.751-2.994-4.541-3.906-1.79-.911-3.793-1.367-6.006-1.367-5.013 0-8.854 2.018-11.524 6.055-2.018 2.994-3.027 7.698-3.027 14.111 0 7.943 1.204 13.387 3.613 16.333 2.409 2.946 5.794 4.419 10.156 4.419 4.232 0 7.43-1.188 9.595-3.564 2.165-2.377 3.735-5.827 4.712-10.352zm41.869-6.494c0-11.686 3.254-20.785 9.765-27.295 6.51-6.51 15.576-9.766 27.197-9.766 11.914 0 21.094 3.198 27.54 9.595 6.445 6.397 9.667 15.356 9.667 26.88 0 8.366-1.408 15.226-4.223 20.58-2.816 5.356-6.885 9.522-12.207 12.5-5.323 2.98-11.955 4.469-19.898 4.469-8.073 0-14.754-1.286-20.044-3.858-5.29-2.571-9.578-6.64-12.866-12.207-3.288-5.566-4.932-12.532-4.932-20.898zm22.118.097c0 7.227 1.343 12.42 4.029 15.577 2.685 3.157 6.34 4.736 10.962 4.736 4.752 0 8.43-1.546 11.035-4.639 2.604-3.092 3.906-8.642 3.906-16.65 0-6.738-1.359-11.662-4.077-14.77-2.718-3.11-6.405-4.664-11.06-4.664-4.46 0-8.04 1.58-10.742 4.737-2.702 3.157-4.053 8.382-4.053 15.673z"/><path d="M784.358 86.418h20.655l26.953 39.6v-39.6h20.85V158h-20.85l-26.807-39.307V158h-20.8zm107.525 0h54.688v15.38H914.1v12.5h27.734v14.454H914.1V158h-22.217z"/></svg>