<?xml version="1.0" standalone="no"?>
<!DOCTYPE svg PUBLIC "-//W3C//DTD SVG 20010904//EN"
 "http://www.w3.org/TR/2001/REC-SVG-20010904/DTD/svg10.dtd">
<svg version="1.0" xmlns="http://www.w3.org/2000/svg"
 width="456.000000pt" height="456.000000pt" viewBox="0 0 456.000000 456.000000"
 preserveAspectRatio="xMidYMid meet">
<metadata>
Created by potrace 1.11, written by Peter Selinger 2001-2013
</metadata>
<g transform="translate(0.000000,456.000000) scale(0.100000,-0.100000)"
fill="#000000" stroke="none">
<path d="M2215 4541 c-52 -27 -77 -69 -84 -143 l-6 -58 -36 24 c-49 33 -83 41
-119 26 -37 -15 -60 -50 -60 -92 0 -48 16 -66 124 -138 l95 -65 1 -48 0 -48
-139 95 c-163 112 -181 121 -227 106 -44 -15 -64 -45 -64 -95 1 -49 9 -59 88
-114 34 -24 62 -45 62 -46 0 -2 -39 -15 -86 -29 -47 -15 -127 -45 -177 -67
-50 -21 -92 -39 -93 -39 -2 0 -19 29 -39 65 -20 36 -45 70 -55 75 -55 29 -130
-10 -130 -67 0 -16 17 -58 39 -94 l38 -66 -80 -58 c-44 -32 -110 -87 -148
-122 l-67 -64 -7 68 c-10 105 -15 121 -42 143 -39 31 -98 27 -134 -9 -34 -34
-34 -39 -16 -258 7 -79 11 -143 9 -143 -1 0 -20 9 -41 20 l-39 19 -7 103 c-10
165 -29 198 -111 198 -31 0 -48 -6 -68 -26 -22 -23 -26 -35 -26 -85 0 -33 -2
-59 -4 -59 -3 0 -27 12 -53 26 -114 61 -231 -15 -221 -142 5 -60 21 -83 86
-125 l44 -28 -51 -25 c-58 -30 -71 -49 -71 -104 0 -29 7 -46 26 -66 41 -40 84
-35 204 24 l102 49 39 -20 c21 -10 39 -22 39 -25 0 -2 -74 -40 -164 -83 -99
-47 -168 -87 -175 -99 -21 -39 -13 -97 15 -126 37 -36 87 -35 164 4 33 17 63
30 68 30 5 0 3 -23 -4 -51 -17 -65 -44 -245 -44 -293 l0 -36 -87 0 c-91 -1
-110 -7 -131 -47 -19 -35 -14 -63 17 -94 28 -27 34 -29 113 -29 l84 0 12 -102
c7 -57 21 -139 31 -183 11 -44 18 -81 16 -83 -2 -2 -35 13 -74 32 -87 45 -123
46 -162 7 -35 -35 -40 -95 -11 -131 10 -12 89 -56 177 -99 l159 -77 -38 -23
-38 -24 -111 52 c-62 28 -125 51 -140 51 -44 0 -87 -49 -87 -98 0 -50 27 -84
82 -107 47 -18 46 -20 -21 -57 -50 -28 -73 -74 -68 -140 2 -44 9 -64 28 -84
56 -60 120 -69 199 -29 l50 25 0 -55 c0 -67 10 -90 52 -111 39 -20 87 -12 118
21 19 20 25 41 31 112 4 49 8 104 8 123 1 30 7 38 41 57 21 13 40 23 42 23 2
0 -2 -69 -9 -152 -17 -217 -17 -213 16 -250 24 -27 36 -33 71 -33 56 0 100 46
100 104 0 21 3 59 6 84 l7 46 71 -66 c39 -36 106 -90 149 -120 42 -30 77 -57
77 -59 0 -3 -18 -38 -40 -78 -22 -40 -40 -85 -40 -100 0 -54 68 -92 125 -70 9
4 36 42 61 85 25 44 47 79 48 79 2 0 36 -15 77 -34 41 -19 120 -49 177 -66
l102 -33 -70 -49 c-79 -55 -90 -71 -90 -123 0 -27 8 -44 29 -66 51 -51 77 -43
244 71 80 55 148 100 151 100 3 0 6 -19 6 -43 l0 -43 -101 -69 c-55 -38 -104
-77 -110 -86 -19 -37 -10 -89 20 -120 39 -39 82 -38 144 1 l47 30 0 -48 c1
-102 62 -172 150 -172 89 0 150 64 150 158 0 28 3 52 8 52 4 0 25 -12 47 -25
55 -34 99 -33 136 4 31 32 38 71 18 114 -6 14 -56 55 -110 92 l-99 68 0 43 c0
24 2 44 5 44 3 0 71 -45 151 -100 168 -114 194 -122 245 -71 22 22 29 39 29
68 0 51 -16 72 -95 123 -36 23 -65 46 -65 50 0 4 29 15 64 24 35 10 115 40
177 67 84 35 115 45 121 36 5 -7 24 -40 43 -74 40 -70 67 -93 108 -93 65 0 98
80 59 145 -10 17 -30 51 -45 76 l-27 47 69 50 c37 27 106 83 153 125 l86 76 7
-95 c6 -86 10 -99 35 -127 23 -26 36 -32 70 -32 35 0 47 6 71 33 33 37 33 31
15 242 -8 85 -12 157 -10 159 3 3 21 -5 42 -17 l37 -21 11 -125 c12 -140 26
-170 90 -182 68 -13 113 35 114 119 0 31 3 57 8 57 4 0 21 -9 39 -19 51 -32
95 -36 147 -13 58 26 86 70 86 136 0 61 -25 104 -80 135 -22 12 -40 26 -40 31
0 5 16 14 35 20 77 25 101 115 46 171 -41 41 -72 38 -197 -21 l-107 -50 -38
22 c-22 12 -36 25 -32 28 5 4 73 37 153 74 80 38 155 79 168 93 33 37 30 96
-7 134 -40 39 -70 37 -175 -11 -47 -22 -88 -40 -89 -40 -2 0 7 46 20 103 12
56 26 140 30 187 l8 85 85 3 c47 1 95 4 107 7 61 14 84 95 38 140 -22 23 -31
25 -124 25 l-100 0 -5 33 c-2 17 -10 75 -16 127 -6 52 -19 128 -29 168 -11 39
-17 72 -15 72 3 0 40 -18 84 -40 98 -50 140 -52 181 -11 31 32 39 84 18 122
-6 12 -79 53 -177 100 l-167 80 40 23 c45 25 49 25 177 -40 86 -43 129 -44
169 -5 54 54 34 132 -41 166 -22 10 -40 21 -40 25 0 3 18 17 41 29 54 31 79
73 79 136 0 123 -124 186 -237 120 l-43 -26 0 60 c0 49 -4 65 -26 90 -22 26
-33 31 -69 31 -32 0 -52 -7 -71 -23 -26 -23 -28 -31 -38 -153 l-11 -129 -43
-23 -43 -24 6 39 c15 117 25 322 16 345 -24 63 -112 79 -161 30 -25 -26 -29
-37 -35 -125 l-7 -97 -62 57 c-63 59 -194 165 -222 181 -14 8 -11 18 25 80 48
83 53 127 18 160 -23 22 -68 29 -101 16 -9 -3 -35 -39 -58 -80 -23 -41 -46
-74 -50 -74 -5 0 -32 12 -60 26 -64 33 -163 71 -243 94 l-60 17 50 34 c88 60
115 92 115 136 0 48 -20 78 -64 93 -45 15 -64 6 -220 -100 -73 -50 -135 -90
-139 -90 -4 0 -7 19 -7 43 0 42 0 42 96 107 106 72 124 91 124 133 0 48 -26
85 -69 98 -41 12 -59 7 -123 -35 l-28 -18 0 52 c0 29 -7 67 -16 86 -35 74
-125 103 -199 65z m367 -650 c314 -64 594 -211 820 -429 271 -262 426 -555
490 -927 27 -158 22 -427 -11 -578 -24 -115 -29 -126 -46 -104 -9 12 -7 36 8
104 28 125 31 496 4 626 -100 492 -417 907 -862 1127 -152 76 -244 108 -399
142 -87 19 -131 22 -321 22 -189 0 -234 -3 -321 -22 -641 -139 -1127 -629
-1256 -1265 -20 -96 -23 -142 -22 -317 0 -172 4 -221 22 -307 106 -493 418
-899 863 -1123 313 -159 708 -207 1059 -130 383 83 735 315 966 636 24 33 55
66 70 72 34 16 31 10 -46 -100 -118 -167 -303 -337 -494 -453 -284 -171 -649
-256 -970 -226 -758 71 -1355 614 -1492 1356 -26 136 -26 441 -1 567 67 337
208 612 435 849 254 266 575 433 951 494 123 20 424 13 553 -14z m-332 -111
c19 -10 43 -64 33 -74 -13 -13 -43 -5 -53 14 -14 26 -50 27 -50 2 0 -13 12
-22 40 -31 47 -14 70 -43 70 -89 0 -84 -117 -115 -155 -41 -21 40 -19 49 14
49 20 0 30 -6 34 -20 3 -12 14 -20 26 -20 16 0 21 6 21 29 0 24 -6 31 -44 45
-50 19 -72 59 -56 101 16 41 76 59 120 35z m245 -25 c29 -28 35 -81 9 -71 -9
3 -19 6 -24 6 -5 0 -12 9 -15 20 -8 25 -45 27 -45 3 0 -10 16 -27 37 -38 52
-28 68 -63 49 -110 -18 -42 -52 -60 -100 -51 -26 5 -40 15 -51 36 -23 45 -19
60 15 60 23 0 30 -4 30 -20 0 -29 30 -38 46 -15 20 28 18 33 -26 55 -62 32
-77 76 -39 124 28 35 80 36 114 1z m-477 -31 c13 -15 21 -31 19 -38 -6 -18
-49 -20 -59 -2 -11 20 -32 21 -47 2 -13 -16 4 -112 25 -135 17 -19 42 -7 54
24 7 20 16 26 33 23 62 -9 2 -108 -66 -108 -53 0 -82 30 -96 96 -17 86 -14
118 12 141 44 40 87 39 125 -3z m920 -100 c29 -34 27 -50 -27 -166 -39 -86
-41 -88 -65 -77 l-24 11 19 44 c10 24 28 65 39 91 24 53 20 76 -11 71 -17 -2
-31 -23 -58 -85 -20 -45 -39 -85 -43 -88 -10 -11 -48 5 -48 19 0 23 71 170 93
194 30 32 92 25 125 -14z m-1392 -147 c25 -45 48 -84 50 -86 3 -3 23 6 46 19
40 22 42 22 55 5 7 -11 13 -21 13 -24 0 -7 -132 -83 -135 -79 -34 56 -125 220
-125 227 0 12 32 31 41 25 4 -2 29 -41 55 -87z m1602 27 c33 -38 28 -71 -24
-146 -32 -47 -53 -68 -73 -73 -56 -12 -111 31 -111 88 0 33 81 153 108 161 33
9 77 -4 100 -30z m-1681 -132 c71 -77 71 -77 52 -97 -20 -20 -20 -20 -89 55
-58 63 -71 73 -86 64 -10 -6 -19 -15 -21 -21 -2 -6 26 -44 63 -83 l67 -71 -20
-21 -21 -20 -69 73 c-50 52 -74 71 -86 66 -31 -12 -18 -40 50 -109 l66 -69
-21 -22 c-12 -11 -23 -19 -24 -16 -2 2 -36 38 -76 80 -56 60 -72 83 -72 107 0
36 31 78 65 86 14 4 25 12 25 19 0 15 37 51 60 60 34 13 68 -8 137 -81z m999
63 c379 -67 699 -309 863 -656 40 -83 96 -257 86 -267 -16 -16 -348 83 -447
134 -60 31 -161 134 -183 188 -7 17 -16 74 -20 126 -11 167 -23 220 -60 271
-47 66 -117 99 -208 99 -90 0 -143 -14 -253 -65 -108 -50 -174 -91 -315 -197
l-106 -79 -26 -87 c-37 -122 -71 -263 -106 -436 -17 -82 -33 -151 -36 -154
-17 -17 -355 184 -465 277 l-35 30 18 53 c57 161 159 318 290 445 104 100 176
152 292 210 214 108 480 148 711 108z m890 -121 c8 -31 -17 -73 -75 -127 -65
-61 -91 -62 -155 -6 l-46 41 91 100 92 99 44 -43 c24 -24 46 -53 49 -64z
m-780 -73 c79 -36 113 -118 114 -273 0 -44 -2 -48 -27 -54 -16 -3 -79 -28
-141 -55 -121 -53 -122 -53 -122 -40 0 15 78 63 142 86 40 15 64 29 67 40 3
15 -2 17 -36 12 -83 -14 -147 -41 -190 -82 -37 -36 -43 -47 -43 -83 0 -31 4
-42 15 -42 18 0 18 -8 0 -40 -8 -14 -14 -40 -15 -59 0 -35 4 -36 53 -16 13 6
17 2 17 -18 0 -61 18 -69 88 -37 42 19 42 19 42 -1 0 -16 4 -19 23 -13 33 10
77 33 125 66 23 16 58 36 77 44 34 14 34 14 62 -22 50 -64 210 -131 486 -205
192 -51 221 -63 261 -110 65 -77 85 -216 39 -277 -48 -64 -93 -77 -517 -147
-393 -65 -714 -95 -1016 -95 -200 0 -243 7 -290 47 -57 47 -65 75 -64 213 0
136 9 188 106 615 51 226 52 231 89 267 52 50 208 157 303 209 153 82 272 106
352 70z m918 -70 c26 -37 32 -52 23 -59 -23 -20 -36 -17 -59 14 -21 29 -25 31
-43 18 -17 -13 -18 -17 -6 -36 11 -17 10 -23 -3 -36 -14 -14 -17 -14 -35 2
-15 14 -24 15 -40 6 -26 -13 -26 -21 0 -54 17 -21 19 -29 9 -41 -20 -24 -34
-18 -74 36 -36 48 -37 52 -19 64 10 7 59 42 108 78 50 36 93 63 97 61 3 -2 22
-26 42 -53z m-2375 36 c8 -10 7 -19 -4 -33 -8 -10 -15 -21 -15 -24 0 -3 38
-33 85 -65 46 -33 84 -63 85 -66 0 -3 -6 -14 -14 -24 -12 -17 -18 -15 -101 45
l-88 64 -19 -23 c-16 -20 -20 -22 -36 -10 -9 7 -18 14 -20 15 -8 4 93 134 104
134 6 0 17 -6 23 -13z m-49 -248 c63 -33 116 -62 118 -63 4 -5 -20 -56 -27
-56 -3 0 -25 11 -48 24 -30 17 -44 21 -52 13 -18 -18 -13 -26 32 -48 23 -12
43 -23 45 -24 3 -3 -15 -44 -24 -54 -3 -4 -214 106 -227 118 -4 5 -3 20 4 34
l12 26 47 -24 c42 -21 50 -23 60 -9 15 17 16 16 -37 43 -24 12 -43 26 -43 32
0 10 18 49 23 49 2 0 54 -27 117 -61z m2318 -32 c4 -20 -25 -34 -40 -19 -15
15 -1 44 19 40 10 -2 19 -11 21 -21z m92 -73 c0 -7 -4 -16 -10 -19 -5 -3 -10
-13 -10 -21 0 -23 41 -16 119 21 40 19 76 35 80 35 4 0 13 -11 19 -25 12 -25
10 -27 -71 -65 -118 -57 -139 -59 -177 -22 -39 39 -40 79 -3 116 25 26 28 26
40 10 7 -10 13 -23 13 -30z m-760 -77 c0 -27 -108 -108 -202 -152 -70 -33 -79
-32 -68 4 15 54 29 67 121 114 92 47 149 59 149 34z m1003 -89 c25 -30 23 -93
-5 -112 -12 -9 -28 -16 -34 -16 -18 0 -24 38 -8 51 21 18 18 49 -6 49 -16 0
-20 -7 -20 -32 0 -79 -77 -132 -135 -94 -25 17 -45 53 -45 82 0 17 53 74 69
74 19 0 24 -43 7 -55 -9 -7 -16 -22 -16 -34 0 -18 5 -22 28 -19 24 3 28 8 33
45 11 84 83 118 132 61z m-2903 -298 c0 -5 -4 -10 -9 -10 -6 0 -13 5 -16 10
-3 6 1 10 9 10 9 0 16 -4 16 -10z m204 -56 c9 -24 2 -26 -12 -4 -7 11 -8 20
-3 20 5 0 12 -7 15 -16z m-34 -41 c15 -20 18 -29 9 -32 -13 -4 -49 33 -49 50
0 17 19 9 40 -18z m240 -48 c0 -8 -4 -15 -9 -15 -5 0 -11 7 -15 15 -3 9 0 15
9 15 8 0 15 -7 15 -15z m-152 -13 c2 -7 -3 -12 -12 -12 -9 0 -16 7 -16 16 0
17 22 14 28 -4z m38 -82 c24 0 44 -18 44 -39 1 -9 37 -42 81 -75 78 -57 80
-58 100 -40 15 14 22 15 31 6 10 -10 10 -17 0 -32 -7 -11 -8 -20 -4 -20 5 0
17 -18 27 -40 12 -27 25 -40 37 -40 25 0 20 -33 -5 -38 -33 -6 -67 7 -67 27 0
9 -18 32 -39 49 -37 30 -41 31 -68 17 -26 -14 -29 -13 -45 8 -23 29 -22 37 2
37 11 0 20 4 20 8 0 14 -23 32 -41 32 -10 0 -21 10 -25 23 -4 12 -31 48 -60
80 -65 70 -95 119 -42 70 19 -18 43 -33 54 -33z m129 50 c5 -8 11 -8 20 0 10
8 15 8 21 -1 8 -13 -21 -39 -44 -39 -9 0 -13 7 -9 20 3 10 0 21 -7 24 -8 3 -8
5 1 5 6 1 15 -4 18 -9z m-325 -50 c0 -5 -6 -10 -14 -10 -8 0 -18 5 -21 10 -3
6 3 10 14 10 12 0 21 -4 21 -10z m81 -77 c1 -16 7 -38 14 -55 10 -26 -6 -22
-34 7 -24 26 -23 55 4 55 8 0 15 -3 16 -7z m108 -209 c6 4 11 14 11 22 0 20
11 18 51 -12 32 -25 32 -26 8 -20 -17 4 -31 1 -38 -8 -12 -14 1 -26 127 -129
34 -27 62 -35 62 -17 0 6 -18 28 -40 50 -45 45 -50 65 -18 73 29 8 36 2 43
-37 5 -24 20 -43 56 -70 54 -40 67 -65 19 -38 -24 14 -31 15 -42 4 -16 -16 0
-30 120 -104 74 -46 83 -55 92 -92 6 -23 17 -56 25 -73 8 -18 11 -33 6 -33
-20 0 -162 104 -256 187 -155 138 -345 350 -345 384 0 8 24 -11 54 -40 30 -29
59 -50 65 -47z m2461 67 c0 -31 26 -84 69 -141 87 -115 67 -130 -299 -220
-520 -128 -1025 -203 -1380 -204 -240 -1 -261 4 -301 67 -17 26 -19 43 -15 92
6 66 43 184 77 244 20 37 23 39 43 26 35 -23 143 -35 319 -35 92 0 167 -1 167
-2 0 -2 -11 -25 -25 -52 -41 -80 -31 -114 40 -141 38 -15 70 -17 222 -12 207
5 324 30 444 93 91 48 100 66 67 134 -17 33 -22 53 -14 55 6 1 72 13 146 25
74 13 200 39 280 59 80 20 148 35 153 33 4 -2 7 -11 7 -21z m-2135 9 c3 -5 -1
-10 -9 -10 -9 0 -16 5 -16 10 0 6 4 10 9 10 6 0 13 -4 16 -10z m88 -18 c-2 -6
20 -24 47 -39 47 -26 63 -43 40 -43 -5 0 -10 -7 -10 -15 0 -18 -11 -19 -29 -2
-11 10 -14 10 -18 0 -8 -23 -33 -14 -33 11 0 16 -7 26 -21 29 -12 3 -18 10
-15 15 3 5 -1 15 -9 22 -20 16 -19 27 3 33 26 7 47 2 45 -11z m-43 -127 c7 -8
29 -15 50 -15 39 0 78 -29 65 -49 -12 -20 -61 -12 -85 14 -13 14 -28 25 -32
25 -14 0 -38 27 -31 34 10 10 20 7 33 -9z m20 -145 c0 -6 7 -10 15 -10 8 0 15
-5 15 -10 0 -13 -81 -2 -95 13 -7 7 -4 8 8 4 12 -5 17 -1 17 14 0 17 3 18 20
9 11 -6 20 -15 20 -20z m2162 -56 c-10 -52 -50 -67 -389 -144 -670 -151 -1505
-236 -1554 -158 -22 34 -11 39 84 32 231 -16 828 57 1315 162 197 42 479 111
507 123 28 13 41 7 37 -15z m-2378 -68 c15 -24 15 -25 -50 -70 -123 -86 -149
-93 -195 -47 -36 36 -37 70 -5 108 24 28 25 28 40 8 9 -11 13 -27 10 -35 -24
-60 -1 -59 97 5 46 30 85 55 85 55 1 0 9 -11 18 -24z m117 -140 c10 -17 19
-39 19 -49 0 -19 -95 -125 -143 -159 -27 -19 -30 -19 -45 -4 -15 15 -13 19 23
56 l39 40 -22 22 -22 22 -38 -37 -38 -38 -20 22 -19 21 75 70 c41 38 84 73 95
77 30 12 75 -8 96 -43z m108 -90 c10 -11 6 -29 -18 -85 -17 -39 -28 -71 -26
-71 2 0 31 22 64 50 57 48 60 49 79 32 20 -17 18 -19 -87 -104 -101 -81 -110
-86 -129 -72 -20 14 -20 15 20 107 22 50 46 107 53 125 15 35 26 40 44 18z
m1459 -101 c6 -14 8 -25 4 -25 -4 0 -15 -7 -25 -14 -17 -13 -14 -20 38 -106
31 -51 55 -93 53 -95 -2 -1 -12 -7 -24 -13 -19 -10 -25 -3 -73 79 -53 88 -66
100 -89 77 -13 -13 -42 5 -42 26 0 9 123 93 141 95 3 1 11 -10 17 -24z m-1210
-52 c13 -8 28 -26 33 -41 9 -24 4 -40 -42 -129 -46 -89 -55 -101 -71 -92 -23
12 -23 21 2 69 l20 39 -30 16 -29 15 -22 -42 c-12 -24 -23 -45 -24 -46 -7 -8
-45 10 -45 21 0 7 21 53 48 102 61 115 91 132 160 88z m1001 -58 c55 -28 57
-90 5 -133 -39 -32 -39 -32 -10 -103 5 -11 -2 -19 -20 -28 -15 -6 -28 -10 -29
-9 -7 11 -96 250 -94 252 12 9 87 35 102 35 10 1 31 -6 46 -14z m-792 -20 c21
-14 35 -58 26 -81 -7 -19 -44 -4 -54 22 -5 14 -17 24 -29 24 -31 0 -24 -20 20
-57 52 -45 55 -89 10 -135 -26 -25 -36 -29 -63 -24 -41 8 -77 48 -77 88 0 27
3 30 23 24 12 -3 25 -6 30 -6 4 0 7 -11 7 -25 0 -20 5 -25 25 -25 39 0 33 41
-10 74 -40 30 -47 74 -19 114 18 26 78 30 111 7z m620 -116 c29 -135 29 -155
1 -162 -12 -4 -24 -4 -26 -2 -6 5 -51 224 -52 247 0 16 23 28 45 23 6 -1 20
-48 32 -106z m-379 55 c12 -14 22 -36 22 -50 0 -35 -47 -34 -60 1 -10 25 -25
31 -47 17 -6 -4 -15 -36 -19 -71 -5 -49 -4 -65 7 -72 20 -13 26 -11 48 12 22
24 54 22 59 -3 2 -10 -8 -29 -22 -43 -46 -46 -131 -27 -151 35 -8 26 13 160
28 179 31 38 99 36 135 -5z m222 6 c25 -25 26 -81 4 -119 -16 -27 -15 -30 11
-75 l27 -46 -30 0 c-24 0 -35 8 -61 48 l-31 47 0 -51 c0 -47 -2 -52 -25 -56
-14 -3 -25 -5 -26 -4 -4 7 -23 268 -20 272 2 2 33 4 68 4 50 0 67 -4 83 -20z"/>
<path d="M3026 3433 c-40 -54 -43 -65 -21 -83 21 -18 50 -4 80 40 31 45 31 83
-2 88 -16 2 -31 -9 -57 -45z"/>
<path d="M3212 3277 c-41 -41 -50 -55 -40 -65 20 -20 42 -14 74 21 54 58 58
65 44 82 -7 8 -15 15 -19 15 -4 0 -30 -24 -59 -53z"/>
<path d="M2751 2471 c-10 -10 -20 -24 -23 -32 -3 -9 -26 -13 -74 -13 -61 -1
-71 2 -88 22 -17 22 -24 23 -85 17 -36 -3 -75 -7 -86 -7 -39 -1 -74 -21 -87
-49 -16 -37 -33 -37 -53 1 -44 84 -196 78 -243 -10 -18 -34 -8 -88 22 -119 17
-18 25 -37 25 -61 -1 -61 -8 -154 -15 -188 -15 -75 45 -129 132 -119 39 4 55
12 80 40 33 35 54 42 157 50 26 1 47 0 47 -4 0 -13 31 -39 46 -39 8 0 32 17
55 37 36 32 48 38 93 39 193 5 227 26 206 129 -10 47 -9 57 4 71 20 20 21 78
1 94 -10 8 -15 31 -15 71 0 48 -4 60 -22 73 -30 21 -54 20 -77 -3z m67 -38 c2
-7 -3 -13 -12 -13 -20 0 -20 -9 -1 -30 20 -22 10 -48 -21 -56 -37 -10 -28 -24
15 -24 24 0 41 -5 44 -14 8 -21 -20 -54 -52 -61 -30 -6 -71 8 -71 25 0 13 33
13 46 0 14 -14 44 -2 44 17 0 12 -8 13 -39 8 -41 -7 -63 7 -43 27 8 8 6 18 -4
33 -13 20 -13 25 1 39 9 9 23 16 31 16 8 0 14 8 14 18 0 10 3 22 7 26 10 10
36 3 41 -11z m-608 -31 c26 -32 25 -48 -4 -77 l-24 -24 29 -40 c33 -46 66 -59
110 -41 40 17 57 2 32 -29 -25 -30 -83 -32 -120 -5 -16 11 -41 44 -56 73 -29
53 -48 66 -26 17 10 -22 9 -29 -6 -46 -31 -35 -40 -24 -40 47 0 38 -2 75 -5
83 -3 9 3 16 18 18 18 3 22 -1 22 -22 0 -27 7 -30 34 -20 19 7 21 35 4 52 -19
19 -73 14 -93 -8 -17 -18 -17 -21 -1 -45 16 -24 16 -26 0 -32 -11 -4 -22 1
-30 12 -32 44 -3 101 56 114 49 10 77 3 100 -27z m327 22 c8 -21 -13 -42 -28
-27 -13 13 -5 43 11 43 6 0 13 -7 17 -16z m-72 -62 c3 -31 11 -65 16 -76 13
-22 -1 -39 -27 -34 -15 2 -18 11 -16 43 1 22 -2 55 -7 74 -8 24 -7 38 0 48 18
21 27 6 34 -55z m-81 31 c3 -16 8 -49 12 -76 3 -26 11 -50 16 -53 12 -8 -10
-24 -33 -24 -12 0 -16 13 -17 61 -1 34 -7 68 -13 75 -9 11 -8 18 1 29 18 22
28 18 34 -12z m302 -32 c4 -14 11 -32 17 -39 7 -9 4 -18 -8 -32 -24 -26 -35
-17 -35 31 0 28 -4 39 -15 39 -23 0 -29 -27 -12 -54 18 -27 13 -36 -19 -36
-21 0 -23 4 -18 30 4 18 1 36 -6 45 -10 12 -10 18 0 30 7 8 16 12 21 9 5 -3
16 -1 26 4 24 14 42 4 49 -27z m-140 -26 c3 -25 10 -48 15 -51 15 -9 -1 -24
-26 -24 -22 0 -23 3 -18 36 4 24 2 39 -7 44 -11 7 -11 11 -1 24 21 25 29 19
37 -29z m-226 -5 c53 -53 -16 -134 -72 -83 -25 23 -23 68 4 87 30 21 44 20 68
-4z m500 -152 c0 -5 -13 -7 -30 -3 -41 9 -38 -3 6 -21 27 -11 35 -20 32 -37
-5 -38 -98 -43 -98 -5 0 6 14 8 35 4 44 -9 46 8 3 20 -26 8 -33 15 -33 34 0
20 6 26 30 31 30 5 55 -5 55 -23z m-622 0 c14 -14 16 -48 3 -48 -6 0 -13 5
-16 10 -3 6 -17 10 -31 10 -39 0 -27 -32 16 -42 42 -11 80 -50 80 -84 0 -39
-42 -74 -87 -74 -54 0 -83 23 -83 66 0 27 5 37 24 46 14 6 33 8 43 4 16 -7 16
-9 -6 -25 -31 -24 -25 -55 12 -59 37 -4 59 15 55 47 -3 25 -15 34 -83 63 -53
23 -37 79 25 91 14 2 27 5 31 6 3 0 10 -4 17 -11z m504 -5 c32 -29 17 -53 -33
-53 -12 0 -17 -5 -14 -11 4 -6 19 -7 36 -4 30 7 37 -3 17 -23 -31 -31 -88 1
-88 49 0 51 46 75 82 42z m-116 -14 c19 -15 18 -73 -1 -89 -8 -7 -24 -10 -35
-7 -17 4 -20 2 -15 -14 6 -19 -9 -49 -25 -49 -4 0 -10 28 -14 63 -3 34 -11 64
-17 66 -6 2 -4 9 5 20 18 19 83 26 102 10z m-146 -9 c43 -23 26 -110 -22 -110
-54 0 -79 74 -36 104 26 19 33 19 58 6z m-109 -11 c26 -13 14 -31 -16 -23 -18
4 -25 1 -30 -15 -9 -30 3 -44 36 -37 37 7 46 -9 15 -29 -19 -13 -29 -14 -46
-5 -44 24 -46 84 -2 109 21 13 20 13 43 0z"/>
<path d="M2745 2370 c-8 -12 20 -24 35 -15 5 3 10 10 10 16 0 12 -37 12 -45
-1z"/>
<path d="M2264 2306 c-9 -24 4 -48 23 -44 24 4 24 52 0 56 -9 2 -20 -4 -23
-12z"/>
<path d="M2650 2150 c0 -5 6 -10 14 -10 8 0 18 5 21 10 3 6 -3 10 -14 10 -12
0 -21 -4 -21 -10z"/>
<path d="M2525 2130 c-12 -20 5 -48 25 -43 27 7 28 53 1 53 -11 0 -23 -5 -26
-10z"/>
<path d="M2397 2123 c-4 -3 -7 -17 -7 -30 0 -16 6 -23 19 -23 25 0 34 14 26
40 -6 20 -25 26 -38 13z"/>
<path d="M2952 2208 c-17 -17 -16 -122 2 -137 20 -17 67 -10 80 11 14 23 0 35
-25 20 -28 -18 -39 -7 -39 38 0 45 11 56 39 38 25 -15 39 -3 25 20 -13 21 -65
27 -82 10z"/>
<path d="M3062 2208 c-16 -16 -16 -120 0 -136 7 -7 24 -12 38 -12 39 0 50 18
50 80 0 62 -11 80 -50 80 -14 0 -31 -5 -38 -12z m53 -69 c0 -32 -4 -44 -15
-44 -16 0 -26 54 -16 82 12 30 31 6 31 -38z"/>
<path d="M3170 2140 c0 -63 3 -80 15 -80 10 0 15 16 17 62 2 38 8 63 16 66 9
3 12 -14 12 -62 0 -59 2 -66 20 -66 18 0 20 7 20 65 0 51 3 65 15 65 12 0 15
-14 15 -65 0 -52 3 -65 15 -65 13 0 15 13 13 78 l-3 77 -77 2 -78 3 0 -80z"/>
<path d="M3314 1776 c-7 -18 18 -108 31 -113 6 -1 16 1 24 6 12 8 12 17 0 63
-14 53 -43 76 -55 44z"/>
<path d="M3395 1753 c8 -48 31 -75 41 -50 3 10 3 33 0 52 -5 27 -12 35 -28 35
-18 0 -19 -4 -13 -37z"/>
<path d="M3233 1764 c-3 -9 0 -40 6 -69 13 -56 35 -76 58 -52 12 11 12 23 2
63 -6 27 -16 55 -22 62 -13 17 -36 15 -44 -4z"/>
<path d="M1843 1580 c-15 -51 -17 -70 -8 -70 6 0 21 32 32 70 15 51 17 70 8
70 -6 0 -21 -31 -32 -70z"/>
<path d="M1906 1628 c-3 -13 -12 -45 -21 -71 -11 -36 -11 -47 -2 -45 12 5 45
89 46 121 1 25 -16 21 -23 -5z"/>
<path d="M1945 1598 c-9 -29 -18 -59 -20 -65 -3 -7 1 -13 9 -13 7 0 20 26 29
60 20 70 20 70 8 70 -5 0 -17 -24 -26 -52z"/>
<path d="M1987 1587 c-20 -62 -20 -67 -8 -67 5 0 17 24 25 54 18 62 19 66 8
66 -5 0 -16 -24 -25 -53z"/>
<path d="M2028 1588 c-9 -29 -13 -57 -10 -63 7 -11 26 34 37 83 11 53 -11 37
-27 -20z"/>
<path d="M1300 1355 c-11 -14 -10 -19 8 -37 18 -18 23 -19 37 -8 9 7 15 23 13
34 -4 26 -40 33 -58 11z"/>
<path d="M1673 1084 c-6 -17 20 -44 43 -44 15 0 28 35 19 50 -10 16 -55 12
-62 -6z"/>
<path d="M2693 1034 c-15 -7 4 -54 22 -54 19 0 36 26 29 44 -6 16 -27 19 -51
10z"/>
<path d="M2340 945 c0 -37 9 -42 41 -25 23 13 25 46 3 54 -34 13 -44 7 -44
-29z"/>
</g>
</svg>
